<svg width="374" height="192" viewBox="0 0 374 192" fill="none" xmlns="http://www.w3.org/2000/svg">
<path opacity="0.6" d="M14.8707 189.457C14.8903 189.464 14.9095 189.472 14.9291 189.478C18.4866 190.751 22.3008 191.355 26.1341 191.355H341.825C346.315 191.035 350.301 190.671 353.742 190.256C378.621 187.261 383.835 149.923 350.828 139.126C315.414 127.542 326.62 117.356 322.719 100.654C314.405 65.0622 258.121 87.3339 237.3 87.8095C216.479 88.2851 219.113 46.0973 217.546 29.2957C214.289 -5.65348 168.501 -6.9795 148.677 15.024C113.463 54.1094 88.5869 32.7047 72.5286 44.7781C60.1824 54.0608 64.5593 66.1984 66.4817 70.0085C72.0266 80.9983 77.2961 89.0474 73.2383 102.138C61.2138 140.93 31.9877 123.183 9.08708 145.498C-8.20145 162.345 5.99233 186.273 14.8707 189.457Z" fill="url(#paint0_linear_171_796)"/>
<path d="M31.9883 191.115L72.9728 190.878L113.957 190.743L195.926 190.629L277.894 190.741L318.879 190.877L359.863 191.115L318.879 191.353L277.894 191.49L195.926 191.601L113.957 191.488L72.9728 191.352L31.9883 191.115Z" fill="#283034"/>
<path d="M86.7911 168.998C86.7911 168.998 87.6811 115.854 66.114 109.135C42.8047 101.873 51.653 142.209 62.0993 156.818C75.4539 175.495 86.9501 181.936 86.7911 168.998Z" fill="#B3CAFE"/>
<path d="M25.2287 125.43C25.2287 125.43 46.6139 130.733 55.9375 153.664C65.2611 176.595 23.3031 149.953 16.3651 140.453C9.42777 130.953 16.1324 124.396 25.2287 125.43Z" fill="#B3CAFE"/>
<path d="M63.985 121.073C63.985 121.073 85.5351 168.3 84.0744 190.3C84.0744 190.3 50.4052 149.583 21.7363 133.004" stroke="#283034" stroke-miterlimit="10" stroke-linecap="round" stroke-linejoin="round"/>
<path d="M286.908 160.013C286.908 160.013 286.883 106.862 308.558 100.423C331.983 93.4641 322.478 133.681 311.795 148.154C298.138 166.656 286.538 172.947 286.908 160.013Z" fill="#B3CAFE"/>
<path d="M352.438 109.879C352.438 109.879 330.969 114.905 321.273 137.713C311.577 160.521 353.965 134.424 361.056 125.015C368.148 115.606 361.551 108.963 352.438 109.879Z" fill="#B3CAFE"/>
<path d="M313.758 105.021C313.758 105.021 285.172 167.784 286.274 189.801C286.274 189.801 299.782 165.138 322.975 144.251C346.168 123.363 355.807 117.497 355.807 117.497" stroke="#283034" stroke-miterlimit="10" stroke-linecap="round" stroke-linejoin="round"/>
<path d="M273.63 178.435H95.6846V87.1416C95.6846 83.6275 98.8815 80.7783 102.826 80.7783H266.49C270.433 80.7783 273.631 83.627 273.631 87.1416V178.435H273.63Z" fill="#273237"/>
<path d="M268.085 183.844H101.229V88.8089C101.229 87.3612 102.547 86.1875 104.171 86.1875H265.143C266.768 86.1875 268.085 87.3612 268.085 88.8089V183.844Z" fill="#315188"/>
<path d="M282.974 190.98H86.3402C80.7565 190.98 76.2305 186.947 76.2305 181.972V178.435H293.084V181.972C293.084 186.947 288.558 190.98 282.974 190.98Z" fill="#273237"/>
<path d="M202.889 186.43H166.425C163.86 186.43 161.781 184.578 161.781 182.292V178.435H207.532V182.292C207.532 184.578 205.453 186.43 202.889 186.43Z" fill="#1A2023"/>
<path d="M193.034 88.8104H115.545V122.389H193.034V88.8104Z" fill="#365DAD"/>
<path d="M193.034 137.853H115.545V176.885H193.034V137.853Z" fill="#365DAD"/>
<path d="M183.517 134.364H53.9253C52.783 134.364 51.8564 133.539 51.8564 132.52V76.4532C51.8564 75.4348 52.783 74.6097 53.9253 74.6097H183.517C184.659 74.6097 185.586 75.4348 185.586 76.4532V132.52C185.586 133.539 184.659 134.364 183.517 134.364Z" fill="#EBEBEB"/>
<path d="M177.159 90.3428H106.093V93.2733H177.159V90.3428Z" fill="#EBEBEB"/>
<path d="M177.159 101.445H106.093V104.375H177.159V101.445Z" fill="#EBEBEB"/>
<path d="M127.587 103.021H62.1406V105.952H127.587V103.021Z" fill="#EBEBEB"/>
<path d="M127.588 107.62H56.5215V110.551H127.588V107.62Z" fill="#EBEBEB"/>
<path d="M177.159 95.2682H106.093V98.1986H177.159V95.2682Z" fill="#EBEBEB"/>
<path d="M99.7107 85.6779C99.7107 85.6779 88.2068 89.0148 84.2506 93.7528C80.2943 98.4907 75.1914 134.364 75.1914 134.364H157.711C157.711 134.364 155.577 96.5134 149.59 92.4073C143.604 88.3012 133.209 85.8419 133.209 85.8419L99.7107 85.6779Z" fill="#636AE8"/>
<path d="M133.208 85.8414C130.541 84.8002 128.607 84.1474 128.607 84.1474L104.396 84.1566C104.396 84.1566 102.381 84.7169 99.71 85.6774L116.451 108.607C116.451 108.607 128.306 93.967 133.208 85.8414Z" fill="#92B6FF"/>
<path d="M116.453 102.554C116.453 102.554 127.767 86.7975 128.609 84.1474C126.823 83.7327 121.845 82.5089 121.845 82.5089L121.448 68.0385L111.345 68.0809L111.411 80.5398L111.344 82.5371L104.397 84.1567C104.925 86.5191 116.453 102.554 116.453 102.554Z" fill="url(#paint1_linear_171_796)"/>
<path opacity="0.5" d="M127.588 83.906C125.41 83.3851 121.845 82.5089 121.845 82.5089L121.448 68.0385L111.345 68.0809L111.411 80.5398L111.344 82.5371L106.271 83.72C110.605 85.9656 117.875 87.8792 127.588 83.906Z" fill="#F0C2BF"/>
<path d="M133.808 58.4882C133.808 58.4882 138.319 58.0885 139.318 61.7039C140.34 65.4021 133.548 66.2525 133.548 66.2525L133.808 58.4882Z" fill="url(#paint2_linear_171_796)"/>
<g opacity="0.5">
<path opacity="0.3" d="M133.148 59.8887C133.148 59.8887 137.056 59.3323 138.255 62.6707C138.255 62.6707 134.986 60.8997 132.909 62.3874L133.148 59.8887Z" fill="#DD8373"/>
</g>
<path d="M99.6501 58.6201C99.6501 58.6201 94.8132 58.9156 94.5083 62.6288C94.197 66.4272 101.053 66.2505 101.053 66.2505L99.6501 58.6201Z" fill="url(#paint3_linear_171_796)"/>
<path opacity="0.3" d="M100.249 59.9179C100.249 59.9179 96.2912 59.9534 95.7373 63.4237C95.7373 63.4237 98.6261 61.1894 100.954 62.3455L100.249 59.9179Z" fill="#DD8373"/>
<path d="M132.581 53.0142C131.293 50.0297 131.405 47.399 129.943 45.6734C126.668 41.8082 121.982 41.0727 121.982 41.0727C118.385 41.5838 114.283 39.3402 108.893 42.5798C105.981 44.3298 100.524 45.0931 99.7214 54.7218C98.4486 69.993 102.156 79.5239 117.163 79.4645C133.327 79.4002 137.427 64.2362 132.581 53.0142Z" fill="#F0C2BF"/>
<path opacity="0.5" d="M129.943 45.6729C126.668 41.8078 121.982 41.0722 121.982 41.0722C118.385 41.5834 114.284 39.3397 108.893 42.5793C108.119 43.0447 107.164 43.4414 106.165 43.9531C105.05 45.1569 103.834 46.2566 102.257 47.0486C101.003 48.6876 100.027 51.0641 99.7211 54.7219C99.4988 57.388 99.4327 59.875 99.548 62.1707C106.801 62.4307 118.133 56.0464 123.348 52.6043C126.203 50.7204 128.611 50.0287 130.364 49.8257C130.541 52.2655 131.531 56.0162 134.17 61.7448C134.17 61.7448 134.279 61.6635 134.473 61.4634C134.378 58.5948 133.738 55.6925 132.581 53.0142C131.292 50.0292 131.406 47.3991 129.943 45.6729Z" fill="#F0C2BF"/>
<path d="M118.255 69.605C118.631 69.6045 119.049 69.55 119.328 69.3504C119.54 69.1995 119.651 68.9799 119.651 68.7166C119.65 67.929 118.938 67.6753 118.467 67.5074C118.271 67.4373 118.049 67.358 118.009 67.2801C117.874 67.0211 117.862 65.1917 117.886 64.0999C117.888 64.0059 117.804 63.9285 117.699 63.9266C117.573 63.9246 117.507 63.9996 117.505 64.093C117.494 64.5779 117.451 67.0162 117.662 67.4227C117.767 67.6233 118.025 67.7157 118.326 67.8224C118.79 67.9879 119.269 68.1587 119.27 68.7161C119.27 68.8772 119.212 68.998 119.091 69.0841C118.708 69.3577 117.81 69.2564 117.496 69.1932C117.392 69.1732 117.291 69.2306 117.268 69.3222C117.245 69.4137 117.31 69.5047 117.413 69.5252C117.441 69.532 117.818 69.6055 118.255 69.605Z" fill="#283034"/>
<path d="M129.782 61.1894C130.042 60.6563 125.884 57.4713 123.075 58.7832C120.593 59.9432 125.372 60.9173 127.788 61.3228C130.204 61.7283 129.782 61.1894 129.782 61.1894Z" fill="#283034"/>
<path d="M103.924 61.0448C103.546 60.5716 106.869 56.6856 109.922 57.4484C112.621 58.1226 108.174 59.9617 105.906 60.8058C103.637 61.6499 103.924 61.0448 103.924 61.0448Z" fill="#283034"/>
<path d="M134.171 59.7358C134.171 59.7358 136.143 58.2793 138.342 52.2524C140.54 46.2254 133.269 43.3631 132.085 43.5135C130.902 43.6644 127.922 46.1728 134.171 59.7358Z" fill="#283034"/>
<path d="M133.494 47.9832C133.494 47.9832 129.436 46.5769 123.349 50.5948C117.261 54.6128 102.833 62.6483 96.2945 59.434C89.7565 56.2197 87.7276 47.3806 98.3235 46.1748C108.919 44.9695 106.89 33.3176 121.545 34.1213C133.129 34.7571 131.916 46.979 133.494 47.9832Z" fill="#283034"/>
<path d="M122.044 72.5243L111.321 72.4703C111.321 72.4703 112.646 75.9893 117.098 76.0492C121.336 76.1061 122.044 72.5243 122.044 72.5243Z" fill="#F6FCF7"/>
<path d="M108.673 65.8552C109.538 65.8552 110.239 64.992 110.239 63.9271C110.239 62.8621 109.538 61.9989 108.673 61.9989C107.808 61.9989 107.106 62.8621 107.106 63.9271C107.106 64.992 107.808 65.8552 108.673 65.8552Z" fill="#283034"/>
<path d="M126.879 63.9271C126.879 64.9922 126.177 65.8552 125.312 65.8552C124.447 65.8552 123.746 64.9922 123.746 63.9271C123.746 62.862 124.448 61.9989 125.312 61.9989C126.177 61.9989 126.879 62.8624 126.879 63.9271Z" fill="#283034"/>
<path d="M154.315 37.3594L119.813 44.9982C118.441 45.4791 116.835 45.5297 115.322 45.1393L78.8726 32.8771C77.7068 32.5762 77.5981 31.3461 78.7131 31.0711L115.136 23.078C116.22 22.8102 117.408 22.7898 118.56 23.019L153.94 35.57C155.101 35.8012 155.352 36.9963 154.315 37.3594Z" fill="#636AE8"/>
<path d="M78.8726 32.8771L78.9731 32.9107L115.136 24.975C116.22 24.7077 117.408 24.6873 118.56 24.9161L153.897 37.4519L154.315 37.3594C155.352 36.9963 155.101 35.8012 153.939 35.57L118.56 23.019C117.408 22.7898 116.22 22.8102 115.136 23.078L78.7131 31.0711C77.5981 31.3461 77.7068 32.5767 78.8726 32.8771Z" fill="#636AE8"/>
<path d="M118.427 23.0006C117.316 22.7986 116.178 22.821 115.135 23.0785L78.7121 31.0716C77.5971 31.3466 77.7058 32.5772 78.8716 32.8776L78.9721 32.9112L115.135 24.9755C116.178 24.718 117.316 24.6956 118.427 24.8976V23.0006Z" fill="#636AE8"/>
<path d="M99.3269 33.985L98.915 46.1791C98.915 46.1791 107.072 48.7085 119.642 48.7085C132.212 48.7085 134.325 46.5102 134.325 46.5102V38.9079V35.5208C117.838 26.0362 99.3269 33.985 99.3269 33.985Z" fill="#636AE8"/>
<path d="M86.3511 29.395L85.0771 47.4302" stroke="#E0AC19" stroke-miterlimit="10"/>
<path d="M85.1386 46.3938C85.1386 46.3938 84.3688 46.2239 84.064 46.5447C83.7592 46.8655 83.8422 47.5217 84.1634 47.6254C84.4847 47.7291 85.6313 48.0859 86.0241 47.7997C86.4174 47.5134 86.247 47.0038 86.218 46.8801C86.1427 46.5564 85.1386 46.3938 85.1386 46.3938Z" fill="#E0AC19"/>
<path d="M84.2891 47.0432C84.2891 47.0432 82.4432 55.582 82.7087 55.8979C82.9742 56.2138 82.9747 56.2138 82.9747 56.2138C82.9747 56.2138 82.5317 58.7072 82.4432 59.3356C82.3547 59.9641 82.842 60.3988 83.1523 58.7009C83.4626 57.0034 82.3104 63.3293 82.5765 63.3444C82.8425 63.3594 82.9939 63.6656 83.3615 62.841C83.7286 62.0169 84.482 56.1739 84.482 56.1739C84.482 56.1739 84.5262 57.0424 84.8365 57.0424C85.1468 57.0424 85.7138 47.0427 85.7138 47.0427H84.2891V47.0432Z" fill="#E0AC19"/>
<path opacity="0.5" d="M96.6141 134.364C96.6141 134.364 95.3205 126.19 95.4608 125.827C95.9334 124.609 96.9375 127.978 96.9375 127.978C96.9375 127.978 96.0514 117.397 96.5829 117.292C97.1145 117.187 97.8236 126.293 98.3551 125.293C98.8867 124.293 99.2412 120.003 100.068 120.635C100.895 121.267 97.351 134.364 97.351 134.364H96.6141Z" fill="#636AE8"/>
<path opacity="0.5" d="M134.683 134.364C134.683 134.364 134.111 131.189 134.683 131.137C135.254 131.084 135.518 132.453 135.782 132.348C136.046 132.242 134.726 123.767 135.386 123.451C136.046 123.136 136.354 129.768 137.057 129.768C137.76 129.768 137.98 126.911 138.508 127.076C139.036 127.242 137.892 134.364 137.892 134.364H134.683Z" fill="#636AE8"/>
<path d="M179.26 79.1626C180.115 79.1626 180.807 78.5457 180.807 77.7845C180.807 77.0234 180.115 76.4064 179.26 76.4064C178.406 76.4064 177.714 77.0234 177.714 77.7845C177.714 78.5457 178.406 79.1626 179.26 79.1626Z" fill="#EBEBEB"/>
<path d="M173.175 79.1626C174.03 79.1626 174.722 78.5457 174.722 77.7845C174.722 77.0234 174.03 76.4064 173.175 76.4064C172.321 76.4064 171.629 77.0234 171.629 77.7845C171.629 78.5457 172.321 79.1626 173.175 79.1626Z" fill="#EBEBEB"/>
<path d="M168.638 77.7845C168.638 78.5459 167.945 79.1626 167.091 79.1626C166.237 79.1626 165.545 78.5454 165.545 77.7845C165.545 77.0237 166.238 76.4064 167.091 76.4064C167.946 76.4064 168.638 77.0232 168.638 77.7845Z" fill="#EBEBEB"/>
<path d="M167.82 165.303H77.3956C74.0927 165.303 71.4153 162.917 71.4153 159.974V149.494L63.6416 142.993H167.82C171.123 142.993 173.8 145.378 173.8 148.322V159.974C173.801 162.917 171.123 165.303 167.82 165.303Z" fill="#636AE8"/>
<path d="M166.943 149.401H83.0967V150.926H166.943V149.401Z" fill="#92B6FF"/>
<path d="M160.806 153.385H79.6914V154.911H160.806V153.385Z" fill="#92B6FF"/>
<path d="M167.392 157.369H90.2021V158.895H167.392V157.369Z" fill="#92B6FF"/>
<path d="M199.641 27.8943C191.793 27.8943 185.431 33.5634 185.431 40.5572C185.431 48.7221 194.247 55.7962 197.99 58.4317L197.699 59.5328H199.642C199.642 59.5328 213.853 50.0842 213.853 40.5572C213.852 33.5639 207.49 27.8943 199.641 27.8943ZM199.641 47.7188C195.491 47.7188 192.127 44.7212 192.127 41.023C192.127 37.3249 195.491 34.3272 199.641 34.3272C203.792 34.3272 207.156 37.3254 207.156 41.023C207.156 44.7207 203.792 47.7188 199.641 47.7188Z" fill="#0A49A5"/>
<path d="M197.699 27.8943C189.85 27.8943 183.488 33.5635 183.488 40.5572C183.488 50.9215 197.699 59.5328 197.699 59.5328C197.699 59.5328 211.91 50.0842 211.91 40.5572C211.91 33.5639 205.548 27.8943 197.699 27.8943ZM197.699 47.7189C193.549 47.7189 190.185 44.7212 190.185 41.0231C190.185 37.3249 193.549 34.3272 197.699 34.3272C201.849 34.3272 205.213 37.3254 205.213 41.0231C205.213 44.7207 201.849 47.7189 197.699 47.7189Z" fill="#636AE8"/>
<path d="M234.769 174.326H281.371C284.702 174.326 287.403 171.92 287.403 168.951V164.794" stroke="#283034" stroke-miterlimit="10"/>
<path d="M185.586 93.7903H225.542C228.03 93.7903 230.047 95.5875 230.047 97.8048V112.658" stroke="#283034" stroke-miterlimit="10"/>
<path d="M343.217 160.331H213.625C212.483 160.331 211.557 159.506 211.557 158.488V102.42C211.557 101.402 212.483 100.577 213.625 100.577H343.217C344.36 100.577 345.286 101.402 345.286 102.42V158.488C345.286 159.506 344.359 160.331 343.217 160.331Z" fill="#EBEBEB"/>
<path d="M232.591 105.6C232.591 106.361 231.898 106.978 231.045 106.978C230.191 106.978 229.498 106.361 229.498 105.6C229.498 104.838 230.191 104.222 231.045 104.222C231.898 104.222 232.591 104.838 232.591 105.6Z" fill="#EBEBEB"/>
<path d="M226.506 105.6C226.506 106.361 225.813 106.978 224.96 106.978C224.105 106.978 223.413 106.361 223.413 105.6C223.413 104.838 224.106 104.222 224.96 104.222C225.813 104.221 226.506 104.838 226.506 105.6Z" fill="#EBEBEB"/>
<path d="M220.422 105.6C220.422 106.361 219.73 106.978 218.876 106.978C218.021 106.978 217.329 106.361 217.329 105.6C217.329 104.838 218.022 104.222 218.876 104.222C219.73 104.221 220.422 104.838 220.422 105.6Z" fill="#EBEBEB"/>
<path d="M244.167 117.915H215.93V134.392H244.167V117.915Z" fill="#EBEBEB"/>
<path d="M244.167 137.637H215.93V143.709H244.167V137.637Z" fill="#EBEBEB"/>
<path d="M332.992 105.039H304.755V111.112H332.992V105.039Z" fill="#EBEBEB"/>
<path d="M336.292 119.303C336.292 119.303 341.432 103.351 340.404 98.1889C339.376 93.0269 339.602 89.3332 338.744 89.227C337.681 89.0956 338.186 93.65 337.47 93.6753C337.241 93.6831 337.255 88.0032 335.849 87.9638C334.47 87.9254 335.556 93.6559 335.11 93.8233C334.665 93.9908 334.124 87.7311 332.393 87.1742C331.33 86.832 331.923 89.5629 332.231 91.8791C332.521 94.0609 332.775 95.3285 332.475 95.4025C332.286 95.4492 331.33 89.3536 329.942 89.9368C329.088 90.2955 331.313 98.111 330.618 102.08C330.477 102.886 327.088 109.906 325.062 112.468L336.292 119.303Z" fill="#B78776"/>
<path d="M332.8 100.969C332.8 100.969 329.192 96.0553 327.275 96.046C325.357 96.0368 330.238 101.34 329.782 103.938C329.326 106.536 332.8 100.969 332.8 100.969Z" fill="#B78776"/>
<path d="M323.651 113.066L325.442 109.219C325.442 109.219 341.525 121.383 342.336 122.646L338.893 127.909L323.651 113.066Z" fill="#92B6FF"/>
<path d="M230.705 160.554H321.081C332.802 148.762 343.099 126.694 342.585 126.184C341.876 125.481 323.814 111.263 323.814 111.263C321.215 116.311 314.146 130.865 311.985 131.181C309.823 131.497 302.741 120.335 301.351 119.074C298.161 116.179 287.405 114.6 287.405 114.6L280.353 114.757L280.75 116.579L251.993 114.6H249.2C249.2 114.6 240.935 118.351 239.697 119.495C233.77 124.969 230.281 143.498 230.58 148.552C230.708 150.726 230.726 155.65 230.705 160.554Z" fill="#636AE8"/>
<path d="M293.376 115.636C290.242 114.944 287.404 114.599 287.404 114.599L280.352 114.757L280.749 116.578L251.992 114.599H249.199C249.199 114.599 246.444 115.788 243.883 117.041C248.243 120.86 260.069 130.613 269.644 132.97C269.644 132.97 286.396 122.677 293.376 115.636Z" fill="#92B6FF"/>
<path d="M273.414 73.751C273.414 73.751 255.801 79.6786 255.801 85.0465C255.801 90.4138 261.764 110.471 261.764 110.471C261.764 110.471 250.699 107.694 250.023 107.385C249.347 107.077 252.982 101.113 250.905 95.4551C248.827 89.7966 243.863 84.715 251.845 78.042C259.273 71.8325 269.471 65.1109 273.414 73.751Z" fill="#283034"/>
<path d="M260.915 109.902C263.673 107.444 264.137 97.1496 264.137 97.1496H272.468C272.468 97.1496 272.932 107.444 275.69 109.902C278.448 112.359 287.405 114.599 287.405 114.599L267.522 128.127C262.37 126.916 249.2 114.599 249.2 114.599C249.2 114.599 258.157 112.359 260.915 109.902Z" fill="url(#paint4_linear_171_796)"/>
<path d="M256.416 89.1939C256.416 89.1939 251.28 84.0943 247.905 85.6632C244.53 87.2327 248.492 94.5555 255.096 94.5555C261.699 94.5555 256.416 89.1939 256.416 89.1939Z" fill="url(#paint5_linear_171_796)"/>
<path d="M280.189 89.1939C280.189 89.1939 285.325 84.0943 288.701 85.6632C292.077 87.2327 288.114 94.5555 281.51 94.5555C274.906 94.555 280.189 89.1939 280.189 89.1939Z" fill="url(#paint6_linear_171_796)"/>
<path d="M252.453 91.2862V84.1469C252.453 76.347 259.549 70.0241 268.303 70.0241C277.056 70.0241 284.152 76.347 284.152 84.1469V91.2862C284.152 91.2862 284.445 106.768 268.303 108.076C252.16 106.768 252.453 91.2862 252.453 91.2862Z" fill="#B78776"/>
<path opacity="0.3" d="M284.152 91.2862V84.1469C284.152 81.3537 283.238 78.7523 281.668 76.5608C273.457 73.5504 263.292 69.7179 266.218 75.5117C269.541 82.0946 276.98 81.5528 276.478 87.1636C275.343 99.8669 277.993 101.925 277.441 105.002C284.314 100.115 284.152 91.2862 284.152 91.2862Z" fill="#B78776"/>
<path d="M267 96.5932C266.652 96.5927 266.263 96.542 266.003 96.3566C265.807 96.2164 265.703 96.0124 265.703 95.7675C265.704 95.0359 266.366 94.7998 266.804 94.644C266.986 94.5788 267.192 94.5053 267.23 94.4333C267.355 94.1923 267.366 92.4929 267.344 91.4784C267.341 91.3913 267.42 91.3192 267.517 91.3173C267.635 91.3154 267.696 91.385 267.698 91.4721C267.708 91.9229 267.748 94.1884 267.552 94.5662C267.455 94.7526 267.214 94.8383 266.936 94.9376C266.505 95.0914 266.059 95.2501 266.058 95.768C266.058 95.9175 266.112 96.0299 266.225 96.1098C266.58 96.3644 267.415 96.2699 267.706 96.2115C267.803 96.193 267.897 96.2466 267.918 96.3313C267.939 96.4164 267.879 96.5007 267.783 96.5201C267.757 96.525 267.405 96.5932 267 96.5932Z" fill="#283034"/>
<path d="M256.287 87.2429C256.046 86.7479 259.909 83.7882 262.519 85.0071C264.825 86.0848 260.384 86.9903 258.14 87.3666C255.895 87.7433 256.287 87.2429 256.287 87.2429Z" fill="#283034"/>
<path d="M280.315 87.1081C280.667 86.6685 277.579 83.0575 274.742 83.7662C272.235 84.3927 276.367 86.1014 278.475 86.8861C280.583 87.6708 280.315 87.1081 280.315 87.1081Z" fill="#283034"/>
<path d="M263.479 99.3056L273.442 99.2554C273.442 99.2554 272.212 102.526 268.075 102.581C264.137 102.634 263.479 99.3056 263.479 99.3056Z" fill="#F6FCF7"/>
<path d="M274.552 90.2016C274.552 91.162 275.184 91.9404 275.964 91.9404C276.745 91.9404 277.377 91.162 277.377 90.2016C277.377 89.2412 276.745 88.4628 275.964 88.4628C275.184 88.4628 274.552 89.2412 274.552 90.2016Z" fill="#283034"/>
<path d="M259.545 90.2017C259.545 91.1621 260.178 91.9405 260.958 91.9405C261.738 91.9405 262.37 91.1621 262.37 90.2017C262.37 89.2412 261.738 88.4628 260.958 88.4628C260.178 88.4628 259.545 89.2412 259.545 90.2017Z" fill="#283034"/>
<path d="M277.151 108.812L291.187 107.741C291.187 107.741 295.461 101.118 292.229 96.5927C288.997 92.067 289.623 93.8165 289.483 87.7496C289.344 81.6828 289.931 78.9407 286.442 77.7183C278.034 74.7728 264.459 68.9283 267.782 75.5112C271.105 82.0941 278.544 81.5523 278.042 87.1631C276.53 104.068 281.726 102.12 277.151 108.812Z" fill="#283034"/>
<path d="M306.645 71.3336L272.45 76.7574C271.076 77.1459 269.507 77.1011 268.061 76.6318L233.436 62.5431C232.322 62.1819 232.306 60.9761 233.414 60.7731L269.508 55.1161C270.584 54.919 271.743 54.9686 272.85 55.2592L306.411 69.5665C307.526 69.8605 307.683 71.04 306.645 71.3336Z" fill="#636AE8"/>
<path d="M233.436 62.5431L233.531 62.582L269.367 56.9654C270.443 56.7683 271.603 56.818 272.709 57.1086L306.23 71.3988L306.644 71.3331C307.681 71.0396 307.525 69.8601 306.41 69.5665L272.849 55.2597C271.743 54.9686 270.584 54.919 269.508 55.1166L233.413 60.7736C232.307 60.9761 232.322 62.1819 233.436 62.5431Z" fill="#636AE8"/>
<path d="M272.722 55.2337C271.654 54.9718 270.543 54.927 269.508 55.1168L233.414 60.7738C232.307 60.9768 232.322 62.1826 233.436 62.5438L233.531 62.5827L269.367 56.9661C270.403 56.7763 271.514 56.8211 272.582 57.0835L272.722 55.2337Z" fill="#636AE8"/>
<path d="M253.294 64.8218L251.993 76.6844C251.993 76.6844 259.758 79.628 272.011 80.3645C284.263 81.1011 286.486 79.0823 286.486 79.0823L287.047 71.6719L287.297 68.37C271.925 58.1586 253.294 64.8218 253.294 64.8218Z" fill="#636AE8"/>
<path d="M240.984 59.5868L238.411 77.0928" stroke="#E0AC19" stroke-miterlimit="10"/>
<path d="M238.547 76.0861C238.547 76.0861 237.809 75.8758 237.488 76.1703C237.167 76.4653 237.2 77.1098 237.506 77.2296C237.811 77.3493 238.902 77.7646 239.307 77.5085C239.711 77.2525 239.583 76.7457 239.563 76.6235C239.514 76.3032 238.547 76.0861 238.547 76.0861Z" fill="#E0AC19"/>
<path d="M237.671 76.6693C237.671 76.6693 235.242 84.8844 235.477 85.2081C235.713 85.5313 235.713 85.5313 235.713 85.5313C235.713 85.5313 235.098 87.9361 234.965 88.5436C234.832 89.1511 235.275 89.6029 235.703 87.9663C236.131 86.3297 234.541 92.4287 234.799 92.4589C235.057 92.489 235.182 92.7962 235.601 92.0144C236.02 91.2326 237.185 85.581 237.185 85.581C237.185 85.581 237.164 86.4304 237.467 86.4484C237.769 86.4665 239.06 76.7525 239.06 76.7525L237.671 76.6693Z" fill="#E0AC19"/>
<path d="M249.632 160.554C249.632 160.554 248.11 152.157 248.426 152.157C248.742 152.157 249.632 153.553 249.632 153.553C249.632 153.553 248.294 148.052 249.007 147.683C249.721 147.315 250.469 155.606 250.67 155.869C250.872 156.132 251.648 153.579 252.397 153.553C253.144 153.526 250.843 160.554 250.843 160.554H249.632Z" fill="#636AE8"/>
<path d="M293.908 154.112L295.68 160.554C295.68 160.554 298.457 159.422 299.077 158.79C299.697 158.158 298.368 158.185 297.571 158.5C296.773 158.816 299.077 153.605 297.867 153.921C296.656 154.237 296.124 158.553 296.124 158.395C296.124 158.238 295.267 150.736 294.706 150.789C294.144 150.842 293.347 152.074 293.908 154.112Z" fill="#636AE8"/>
<path d="M300.795 90.4903C301.755 89.6345 303.301 91.0112 304.261 90.1554C305.223 89.2986 303.678 87.9215 304.639 87.0647C305.601 86.2075 307.146 87.5846 308.108 86.7274C309.07 85.8702 307.525 84.493 308.487 83.6358C309.451 82.7771 310.996 84.1542 311.96 83.2955C312.923 82.4368 311.378 81.0602 312.341 80.2015" stroke="#283034" stroke-width="2" stroke-miterlimit="10" stroke-linecap="round"/>
<path d="M159.992 62.803C160.768 61.8075 162.563 62.9179 163.338 61.9224C164.113 60.9269 162.319 59.8166 163.094 58.8216C163.87 57.8261 165.664 58.9364 166.44 57.941C167.216 56.9455 165.421 55.8351 166.196 54.8391C166.973 53.8417 168.768 54.9521 169.545 53.9551C170.322 52.9577 168.527 51.8473 169.304 50.8504" stroke="#636AE8" stroke-width="2" stroke-miterlimit="10"/>
<path d="M301.125 178.979C302.274 178.331 303.442 179.977 304.592 179.329C305.741 178.682 304.573 177.036 305.722 176.389C306.871 175.741 308.039 177.386 309.189 176.739C310.339 176.091 309.171 174.445 310.321 173.797C311.472 173.148 312.64 174.794 313.791 174.145C314.942 173.497 313.774 171.851 314.925 171.202" stroke="#636AE8" stroke-width="2" stroke-miterlimit="10"/>
<path d="M32.6055 117.9C33.7822 118.508 32.6874 120.192 33.8641 120.8C35.0408 121.407 36.1356 119.722 37.3123 120.329C38.489 120.937 37.3937 122.621 38.5704 123.229C39.7482 123.837 40.8436 122.151 42.0214 122.759C43.1997 123.368 42.105 125.053 43.2833 125.661C44.4617 126.269 45.557 124.584 46.7359 125.192" stroke="#283034" stroke-width="2" stroke-miterlimit="10" stroke-linecap="round"/>
<path d="M251.369 185.78H183.287C181.529 185.78 180.104 184.51 180.104 182.943V168.884C180.104 167.317 181.529 166.047 183.287 166.047H251.369C253.127 166.047 254.552 167.317 254.552 168.884V182.943C254.552 184.51 253.126 185.78 251.369 185.78Z" fill="#636AE8"/>
<path d="M191.058 179.961C193.566 179.961 195.599 178.149 195.599 175.914C195.599 173.678 193.566 171.866 191.058 171.866C188.549 171.866 186.516 173.678 186.516 175.914C186.516 178.149 188.549 179.961 191.058 179.961Z" fill="#F7F7F7"/>
<path d="M224.96 75.9737C226.91 75.9737 228.491 74.5646 228.491 72.8265C228.491 71.0884 226.91 69.6794 224.96 69.6794C223.009 69.6794 221.428 71.0884 221.428 72.8265C221.428 74.5646 223.009 75.9737 224.96 75.9737Z" stroke="#283034" stroke-width="2" stroke-miterlimit="10" stroke-linecap="round"/>
<path d="M64.0595 186.71C64.0595 187.654 63.2012 188.419 62.1425 188.419C61.0838 188.419 60.2256 187.654 60.2256 186.71C60.2256 185.767 61.0838 185.002 62.1425 185.002C63.2012 185.002 64.0595 185.767 64.0595 186.71Z" stroke="#283034" stroke-width="2" stroke-miterlimit="10" stroke-linecap="round"/>
<path d="M360.667 147.671C360.667 149.21 359.267 150.457 357.54 150.457C355.814 150.457 354.414 149.21 354.414 147.671C354.414 146.133 355.814 144.885 357.54 144.885C359.267 144.886 360.667 146.133 360.667 147.671Z" stroke="#283034" stroke-width="2" stroke-miterlimit="10" stroke-linecap="round"/>
<defs>
<linearGradient id="paint0_linear_171_796" x1="288.504" y1="75.623" x2="203.932" y2="136.227" gradientUnits="userSpaceOnUse">
<stop offset="0.00031135" stop-color="white" stop-opacity="0"/>
<stop offset="0.4769" stop-color="#F9F9F9" stop-opacity="0.94"/>
<stop offset="0.5364" stop-color="#F8F8F8" stop-opacity="0.9468"/>
<stop offset="1" stop-color="#F5F5F5"/>
</linearGradient>
<linearGradient id="paint1_linear_171_796" x1="124.677" y1="69.3072" x2="117.445" y2="83.0927" gradientUnits="userSpaceOnUse">
<stop stop-color="#E2948F"/>
<stop offset="1" stop-color="#F0C2BF"/>
</linearGradient>
<linearGradient id="paint2_linear_171_796" x1="133.015" y1="61.7624" x2="136.301" y2="63.3676" gradientUnits="userSpaceOnUse">
<stop stop-color="#E2948F"/>
<stop offset="1" stop-color="#F0C2BF"/>
</linearGradient>
<linearGradient id="paint3_linear_171_796" x1="100.91" y1="62.2651" x2="97.6433" y2="63.2206" gradientUnits="userSpaceOnUse">
<stop stop-color="#E2948F"/>
<stop offset="1" stop-color="#F0C2BF"/>
</linearGradient>
<linearGradient id="paint4_linear_171_796" x1="266.539" y1="104.499" x2="267.81" y2="113.666" gradientUnits="userSpaceOnUse">
<stop stop-color="#8C5D4A"/>
<stop offset="1" stop-color="#B78776"/>
</linearGradient>
<linearGradient id="paint5_linear_171_796" x1="257.205" y1="90.0226" x2="245.027" y2="89.8283" gradientUnits="userSpaceOnUse">
<stop stop-color="#8C5D4A"/>
<stop offset="0.6806" stop-color="#B78776"/>
</linearGradient>
<linearGradient id="paint6_linear_171_796" x1="290.027" y1="90.0042" x2="282.738" y2="89.9311" gradientUnits="userSpaceOnUse">
<stop offset="0.3194" stop-color="#B78776"/>
<stop offset="1" stop-color="#8C5D4A"/>
</linearGradient>
</defs>
</svg>
