<svg width="350" height="276" viewBox="0 0 350 276" fill="none" xmlns="http://www.w3.org/2000/svg">
<path d="M209.695 63.9207C211.22 67.186 215.339 68.6992 218.897 67.2997C222.454 65.901 224.102 62.1195 222.577 58.8542C221.053 55.5889 216.934 54.0757 213.376 55.4751C209.819 56.8738 208.171 60.6553 209.695 63.9207Z" fill="#211915"/>
<path d="M217.797 58.4375C219.321 61.7028 223.441 63.216 226.998 61.8165C230.555 60.4178 232.204 56.6356 230.678 53.3703C229.155 50.105 225.035 48.5918 221.478 49.9912C217.921 51.3906 216.272 55.1721 217.797 58.4375Z" fill="#211915"/>
<path d="M227.187 54.1197C228.711 57.385 232.831 58.8981 236.389 57.4987C239.946 56.0993 241.594 52.3178 240.07 49.0525C238.545 45.7871 234.426 44.274 230.869 45.6734C227.311 47.0728 225.663 50.8543 227.187 54.1197Z" fill="#211915"/>
<path d="M219.209 109.545C219.209 109.545 215.658 102.065 225.566 94.6634C235.476 87.2617 269.692 88.6014 274.262 90.9345C278.833 93.2676 314.583 145.658 295.533 161.271C276.483 176.883 211.373 135.895 219.209 109.545Z" fill="#5FA199"/>
<path d="M288.959 159.124C288.959 159.124 309.764 168.473 298.277 175.037C286.788 181.601 285.48 176.012 285.48 176.012L288.959 159.124Z" fill="#BA3A2A"/>
<path d="M293.793 251.63L295.433 256.04C295.433 256.04 298.178 262.54 296.429 265.054C294.68 267.566 289.953 258.196 289.824 257.601C289.694 257.006 286.749 251.293 286.764 250.207C286.78 249.119 287.335 249.436 290.838 248.569C290.838 248.569 292.729 248.77 293.793 251.63Z" fill="black"/>
<path d="M283.272 236.39L285.742 241.659C286.242 242.726 285.664 243.959 284.476 244.358C283.395 244.723 282.191 244.261 281.713 243.299L278.53 236.903L283.272 236.39Z" fill="white"/>
<path d="M236.175 226.258L242.226 230.721C243.112 231.55 243.24 234.699 242.29 235.467L240.798 235.78L234.89 232.009L236.175 226.258Z" fill="#636AE8"/>
<path d="M242.228 230.721C242.228 230.721 246.35 229.873 248.311 231.982C250.272 234.09 239.026 249.295 239.026 249.295C239.026 249.295 238.285 249.688 238.417 248.412L239.789 239.414C239.789 239.414 239.778 235.32 241.024 233.822C242.062 232.573 242.228 230.721 242.228 230.721Z" fill="black"/>
<path d="M289.26 245.062L291.102 249.542L290.727 250.256C290.17 251.318 288.743 251.714 287.638 251.114L284.771 246.961L289.26 245.062Z" fill="#636AE8"/>
<path d="M194.891 197.509C200.699 193.823 219.366 183.704 239.249 182.822C253.851 182.174 286.418 161.638 286.418 161.638C286.418 161.638 307.317 168.759 293.832 189.468C280.347 210.178 284.991 214.369 286.273 221.664C287.287 227.433 288.172 238.285 289.451 244.021C289.81 245.628 288.674 247.195 286.912 247.472L286.861 247.48C285.754 247.654 284.631 247.273 283.913 246.479C278.348 240.32 262.744 222.963 261.189 220.287C259.293 217.025 260.953 197.449 260.953 197.449C260.953 197.449 237.231 208.951 223.937 208.183C223.937 208.183 230.886 220.107 234.302 223.06C235.704 224.273 237.704 226.019 239.58 227.661C238.306 229.377 237.275 231.232 236.214 233.074C228.05 229.421 204.801 218.735 197.679 212.429C188.989 204.733 190.519 200.284 194.891 197.509Z" fill="#495E7C"/>
<path d="M261.925 221.335C261.925 221.335 264.469 214.859 273.653 219.537C282.837 224.216 278.554 237.959 283.906 241.51C289.258 245.062 285.238 247.417 283.914 246.478C283.914 246.478 269.047 230.794 261.925 221.335Z" fill="#576E84"/>
<path opacity="0.44" d="M259.093 187.693C259.093 187.693 211.58 194.749 205.926 203.211C200.272 211.672 237.824 230.31 237.824 230.31" stroke="#002E82" stroke-miterlimit="10"/>
<path opacity="0.44" d="M294.7 167.229C294.7 167.229 295.79 181.609 283.866 197.789C271.943 213.969 288.027 234.973 288.027 234.973" stroke="#002E82" stroke-miterlimit="10"/>
<path opacity="0.72" d="M253.507 180.288C253.507 180.288 262.475 185.232 260.954 197.45C260.954 197.45 252.5 184.797 229.902 183.882L253.507 180.288Z" fill="#3A5168"/>
<path d="M301.75 170.809C301.75 170.809 285.771 164.558 269.048 174.23C252.325 183.902 241.673 184.39 229.903 183.882C229.903 183.882 212.526 132.644 231.012 108.975C249.498 85.3066 306.447 144.304 301.75 170.809Z" fill="#636AE8"/>
<path d="M214.819 111.964L160.366 118.982L159.055 122.498L214.611 126.243C214.611 126.243 212.822 120.485 213.123 119.312C213.217 118.946 213.269 118.739 213.326 118.567C213.699 117.439 213.891 116.707 214.314 115.738C214.433 115.464 214.453 115.146 214.55 114.854C215.032 113.41 214.819 111.964 214.819 111.964Z" fill="#84533D"/>
<path d="M153.944 118.096C153.944 118.096 141.995 117.036 140.96 117.352C139.927 117.669 140.344 118.837 142.405 118.919C144.466 119.002 150.692 119.74 150.692 119.74C150.692 119.74 140.535 119.679 140.059 120.187C139.583 120.696 139.934 121.574 141.322 121.45C142.71 121.325 149.499 121.709 149.499 121.709C149.499 121.709 143.619 122.325 142.409 122.782C141.2 123.238 142.918 123.899 144.203 123.696C145.488 123.493 150.479 123.039 150.479 123.039C150.479 123.039 146.267 124.7 145.867 125.272C145.467 125.844 146.04 126.056 146.606 125.942C147.172 125.829 151.954 123.868 151.954 123.868C151.954 123.868 156.852 124.516 159.082 122.38C161.311 120.243 160.375 118.721 159.905 118.521C159.435 118.32 151.208 114.553 149.813 114.431C148.418 114.309 148.686 116.056 150.832 116.775C152.979 117.496 154.522 117.693 153.944 118.096Z" fill="#84533D"/>
<path d="M158.976 120.741C158.487 119.883 157.314 118.832 156.221 118.659C155.533 118.55 154.847 118.446 154.152 118.381C154.132 118.379 154.112 118.377 154.091 118.376C154.007 118.338 153.924 118.299 153.839 118.261C153.669 118.187 153.496 118.115 153.325 118.042C153.717 118.076 153.944 118.096 153.944 118.096C154.522 117.693 152.979 117.496 150.833 116.776C148.686 116.056 148.418 114.31 149.814 114.432C151.209 114.553 159.437 118.321 159.906 118.521C160.35 118.71 161.204 120.077 159.428 122.025C159.345 121.563 159.191 121.117 158.976 120.741Z" fill="#84533D"/>
<path d="M251.343 114.106C251.343 114.106 250.368 100.133 235.678 105.627C224.874 109.668 213.267 110.766 194.721 113.397L198.103 131.946L222.435 134.686L251.343 114.106Z" fill="#636AE8"/>
<path d="M274.438 104.603L329.426 104.738L331.247 108.057L276.766 118.723C276.766 118.723 277.684 112.795 277.211 111.67C277.063 111.319 276.981 111.121 276.899 110.958C276.362 109.887 276.063 109.185 275.5 108.278C275.341 108.023 275.274 107.71 275.135 107.433C274.442 106.061 274.438 104.603 274.438 104.603Z" fill="#84533D"/>
<path d="M335.656 103.056C335.656 103.056 347.336 100.51 348.407 100.694C349.479 100.878 349.239 102.087 347.209 102.427C345.179 102.767 339.123 104.277 339.123 104.277C339.123 104.277 349.175 102.946 349.722 103.39C350.27 103.834 350.052 104.748 348.66 104.798C347.266 104.849 340.597 106.079 340.597 106.079C340.597 106.079 346.514 105.954 347.78 106.255C349.046 106.555 347.441 107.426 346.139 107.386C344.835 107.345 339.822 107.52 339.822 107.52C339.822 107.52 344.242 108.638 344.724 109.155C345.205 109.672 344.669 109.953 344.091 109.912C343.514 109.87 338.485 108.527 338.485 108.527C338.485 108.527 333.727 109.782 331.203 107.944C328.677 106.107 329.377 104.482 329.814 104.224C330.25 103.967 337.84 99.2044 339.204 98.9092C340.568 98.6141 340.563 100.378 338.543 101.36C336.522 102.341 335.023 102.73 335.656 103.056Z" fill="#84533D"/>
<path d="M331.064 106.307C331.421 105.395 332.426 104.206 333.484 103.899C334.151 103.704 334.814 103.516 335.492 103.364C335.512 103.361 335.532 103.355 335.551 103.352C335.629 103.303 335.706 103.254 335.784 103.206C335.942 103.11 336.102 103.019 336.26 102.925C335.877 103.007 335.655 103.056 335.655 103.056C335.023 102.73 336.521 102.341 338.541 101.359C340.561 100.378 340.566 98.614 339.203 98.9092C337.839 99.2043 330.248 103.967 329.812 104.224C329.401 104.467 328.757 105.928 330.807 107.635C330.822 107.167 330.908 106.705 331.064 106.307Z" fill="#84533D"/>
<path d="M238.572 111.298C238.572 111.298 237.462 97.3328 252.831 100.936C264.135 103.587 275.796 103.221 294.56 103.506L293.965 122.305L270.268 128.066L238.572 111.298Z" fill="#636AE8"/>
<path d="M215.108 79.1359C219.606 88.7706 231.76 93.2346 242.257 89.1061C252.753 84.9776 257.616 73.8204 253.119 64.1849C248.621 54.5502 236.466 50.0863 225.97 54.2147C215.474 58.3432 210.611 69.5012 215.108 79.1359Z" fill="#211915"/>
<path d="M209.437 72.9651C210.962 76.2304 215.081 77.7436 218.639 76.3442C222.196 74.9447 223.844 71.1633 222.319 67.8979C220.795 64.6326 216.676 63.1194 213.119 64.5189C209.561 65.9183 207.913 69.6998 209.437 72.9651Z" fill="#211915"/>
<path d="M236.885 56.0057C238.408 59.271 242.528 60.7842 246.085 59.3848C249.642 57.9853 251.291 54.2039 249.766 50.9385C248.243 47.6732 244.123 46.16 240.565 47.5595C237.009 48.9589 235.36 52.7404 236.885 56.0057Z" fill="#211915"/>
<path d="M245.541 62.1174C247.065 65.3827 251.185 66.8959 254.742 65.4965C258.299 64.0971 259.948 60.3156 258.423 57.0502C256.898 53.7849 252.779 52.2717 249.222 53.6712C245.665 55.0706 244.016 58.8521 245.541 62.1174Z" fill="#211915"/>
<path d="M250.795 71.0186C252.319 74.2839 256.438 75.7971 259.995 74.3977C263.553 72.9982 265.201 69.2168 263.676 65.9514C262.153 62.6861 258.033 61.1729 254.476 62.5724C250.919 63.9718 249.27 67.7533 250.795 71.0186Z" fill="#211915"/>
<path d="M249.438 79.4202C250.962 82.6855 255.082 84.1987 258.639 82.7993C262.196 81.4006 263.845 77.6191 262.32 74.3537C260.796 71.0877 256.676 69.5752 253.119 70.9747C249.563 72.3734 247.914 76.1549 249.438 79.4202Z" fill="#211915"/>
<path d="M245.937 88.7677C247.461 92.033 251.58 93.5462 255.137 92.1468C258.695 90.7473 260.343 86.9659 258.819 83.7005C257.294 80.4352 253.175 78.922 249.617 80.3215C246.06 81.7209 244.412 85.5024 245.937 88.7677Z" fill="#211915"/>
<path d="M240.094 94.318C241.617 97.5833 245.737 99.0965 249.294 97.697C252.851 96.2976 254.5 92.5161 252.975 89.2508C251.451 85.9855 247.331 84.4723 243.774 85.8717C240.218 87.2712 238.569 91.0526 240.094 94.318Z" fill="#211915"/>
<path d="M215.371 88.8001C212.715 81.5877 214.202 73.1926 219.231 67.2134C220.143 67.7065 221.295 67.8397 222.564 67.3343C226.258 65.8643 229.863 64.2137 233.554 62.7408C236.467 61.5789 239.613 61.1024 242.388 62.8826C245.379 64.8011 245.523 67.5805 247.081 70.3088C247.476 70.9992 247.943 71.66 248.344 72.3446C248.154 72.873 248.074 73.4381 248.145 73.9838C248.237 74.6993 248.513 75.4026 248.821 76.0642C248.968 76.3795 249.173 76.6509 249.401 76.9021C249.362 77.4895 249.284 78.0561 249.156 78.5859C247.597 85.0539 246.147 96.1025 251.615 103.869C257.083 111.636 238.839 117.027 238.304 110.474C237.77 103.921 231.47 100.738 231.47 100.738C220.731 99.3628 217.483 94.5361 215.371 88.8001Z" fill="#84533D"/>
<path d="M227.059 88.7029C227.059 88.7029 224.918 88.5136 223.467 89.1147C222.016 89.7158 220.852 90.7898 221.398 92.583C221.944 94.3762 224.353 94.86 227.036 94.9608C228.618 95.0205 233.294 93.8702 235.12 91.8372C236.947 89.8043 237.762 88.4567 237.547 86.7802C237.331 85.1029 235.325 84.1541 233.859 84.2621C232.393 84.37 231.383 85.4844 231.002 86.1805C230.621 86.8766 229.687 88.5712 227.059 88.7029Z" fill="#CE3E3E"/>
<path d="M224.196 94.6354C224.196 94.6354 225.413 92.9048 228.34 92.0827C231.267 91.2606 232.823 91.8128 234.549 92.3757C234.549 92.3757 231.856 94.4828 228.45 94.8859C225.687 95.2142 224.196 94.6354 224.196 94.6354Z" fill="#FF7D7D"/>
<path d="M219.103 67.361C219.103 67.361 223.629 73.5735 234.185 66.0278C244.739 58.4821 246.689 69.9712 242.737 72.9263C238.732 75.921 241.646 81.0486 241.646 81.0486L243.676 80.598C243.676 80.598 242.405 75.7172 245.322 74.9607C248.24 74.2041 249.37 77.3485 249.37 77.3485C249.37 77.3485 247.321 44.4828 219.103 67.361Z" fill="#211915"/>
<path d="M244.77 75.2212C244.77 75.2212 247.531 71.7608 249.769 74.407C252.171 77.2477 249.199 78.5369 249.726 81.8268C250.253 85.1166 249.906 86.4872 246.758 87.2323C243.608 87.9773 243.773 83.8431 243.773 83.8431L244.77 75.2212Z" fill="#84533D"/>
<path d="M227.841 79.1855C229.154 81.9987 232.703 83.3024 235.768 82.0967C238.833 80.8909 240.253 77.6327 238.94 74.8195C237.626 72.0062 234.077 70.7025 231.013 71.9083C227.948 73.1141 226.528 76.3722 227.841 79.1855Z" stroke="#211915" stroke-width="2" stroke-miterlimit="10"/>
<path d="M213.042 79.9486C214.356 82.7618 217.905 84.0655 220.969 82.8597C224.034 81.6547 225.454 78.3965 224.141 75.5833C222.828 72.77 219.279 71.4663 216.214 72.6721C213.149 73.8772 211.729 77.1353 213.042 79.9486Z" stroke="#211915" stroke-width="2" stroke-miterlimit="10"/>
<path d="M225.383 72.6937L220.898 85.1568L228.134 84.9078L225.383 72.6937Z" fill="#FF6252"/>
<path d="M231.622 77.879C231.839 78.6643 232.394 79.2122 232.862 79.1035C233.331 78.9941 233.533 78.2691 233.316 77.4838C233.098 76.6984 232.543 76.1498 232.075 76.2593C231.607 76.3687 231.404 77.0936 231.622 77.879Z" fill="#211915"/>
<path d="M219.115 78.0352C219.333 78.8206 219.888 79.3684 220.356 79.2597C220.823 79.1503 221.026 78.4254 220.809 77.6407C220.592 76.8553 220.036 76.3068 219.569 76.4162C219.101 76.5249 218.898 77.2498 219.115 78.0352Z" fill="#211915"/>
<path d="M222.921 73.9009L228.759 73.4474" stroke="#211915" stroke-width="2" stroke-miterlimit="10"/>
<path d="M238.565 74.1565L245.56 73.1876" stroke="#211915" stroke-width="2" stroke-miterlimit="10"/>
<path d="M261.3 98.8322C261.3 98.8322 248.954 105.201 261.206 127.942C273.458 150.683 299.973 148.165 299.973 148.165" stroke="#636AE8" stroke-width="7" stroke-miterlimit="10"/>
<path d="M231.608 106.307C231.608 106.307 235.512 129.2 220.642 157.14" stroke="#636AE8" stroke-width="7" stroke-miterlimit="10"/>
<path d="M231.703 121.217L254.271 116.643" stroke="#636AE8" stroke-width="7" stroke-miterlimit="10"/>
<path d="M34.2865 195.09C30.5254 197.085 24.2077 198.658 21.3515 199.306C20.8512 199.452 20.3548 199.565 19.867 199.628C13.405 200.463 22.3726 190.75 29.015 187.772C33.0129 185.98 34.4818 186.743 34.7813 187.884C34.7813 187.884 39.2592 192.451 34.2865 195.09Z" fill="#211915"/>
<path d="M45.7142 195.859C41.9531 197.855 35.6354 199.428 32.7793 200.075C32.279 200.222 31.7825 200.334 31.2948 200.397C24.8328 201.232 33.8003 191.52 40.4427 188.541C44.4406 186.749 45.9095 187.512 46.2091 188.653C46.2091 188.654 50.687 193.22 45.7142 195.859Z" fill="#211915"/>
<path d="M70.1179 96.551C70.1179 106.22 61.5785 114.058 51.0449 114.058C40.5112 114.058 31.9727 106.22 31.9727 96.551C31.9727 86.8817 40.512 79.0437 51.0449 79.0437C61.5785 79.0437 70.1179 86.8817 70.1179 96.551Z" fill="#211915"/>
<path d="M72.656 80.6066C72.656 90.2759 64.1166 98.1139 53.5838 98.1139C43.0501 98.1139 34.5107 90.2752 34.5107 80.6066C34.5107 70.9373 43.0501 63.0994 53.5838 63.0994C64.1166 63.0994 72.656 70.9373 72.656 80.6066Z" fill="#211915"/>
<path d="M98.7831 124.839L130.321 153.105L129.349 155.948L91.5322 134.152C91.5322 134.152 95.6659 131.213 96.0784 130.324C96.207 130.047 96.2799 129.891 96.3324 129.756C96.6759 128.865 96.93 128.307 97.1582 127.497C97.2225 127.269 97.3747 127.055 97.4625 126.824C97.8985 125.68 98.7831 124.839 98.7831 124.839Z" fill="#FFCB9C"/>
<path d="M134.926 155.332C134.926 155.332 143.192 159.856 143.696 160.511C144.2 161.166 143.326 161.738 141.952 160.893C140.578 160.047 136.176 157.811 136.176 157.811C136.176 157.811 142.767 162.199 142.811 162.734C142.856 163.27 142.175 163.685 141.343 162.999C140.511 162.314 135.928 159.602 135.928 159.602C135.928 159.602 139.406 162.563 139.951 163.385C140.496 164.207 139.044 163.886 138.319 163.194C137.595 162.503 134.606 160.033 134.606 160.033C134.606 160.033 136.467 162.942 136.43 163.487C136.392 164.03 135.912 163.918 135.606 163.597C135.299 163.277 133.224 159.926 133.224 159.926C133.224 159.926 129.726 158.209 129.391 155.858C129.057 153.507 130.449 152.931 130.856 153.007C131.263 153.082 138.525 154.235 139.49 154.764C140.453 155.294 139.377 156.305 137.619 155.834C135.859 155.365 134.761 154.82 134.926 155.332Z" fill="#FFCB9C"/>
<path d="M130.309 154.848C131.07 154.506 132.37 154.338 133.165 154.704C133.667 154.933 134.163 155.166 134.646 155.426C134.659 155.434 134.674 155.441 134.688 155.449C134.761 155.461 134.836 155.472 134.91 155.485C135.058 155.511 135.206 155.539 135.354 155.567C135.084 155.418 134.927 155.332 134.927 155.332C134.762 154.82 135.86 155.364 137.619 155.836C139.377 156.307 140.453 155.295 139.489 154.766C138.525 154.236 131.263 153.085 130.856 153.009C130.472 152.937 129.213 153.447 129.353 155.48C129.647 155.218 129.977 154.997 130.309 154.848Z" fill="#FFCB9C"/>
<path d="M47.3477 188.092C47.3477 188.092 46.8042 191.765 60.005 187.293C73.2058 182.82 47.3438 182.388 47.3438 182.388L47.3477 188.092Z" fill="#FF8888"/>
<path d="M95.3772 159.042C95.3772 159.042 114.551 200.597 95.8525 218.054C77.1535 235.512 40.0811 201.071 40.0811 201.071L47.8582 190.477C47.8582 190.477 66.3454 199.709 73.6551 197.744C77.737 196.646 56.0619 190.201 54.7036 164.517L95.3772 159.042Z" fill="black"/>
<path d="M96.2962 172.988C96.2962 172.988 102.092 217.802 78.8324 229.782C55.5732 241.763 30.4287 199.202 30.4287 199.202L41.1153 191.017C41.1153 191.017 56.0665 204.615 63.6828 204.598C67.9364 204.588 49.0775 192.852 55.5732 167.838L96.2962 172.988Z" fill="#232323"/>
<path opacity="0.44" d="M75.7686 170.392C75.7686 170.392 90.3308 216.537 65.7228 218.544C41.1147 220.552 36.6094 194.468 36.6094 194.468" stroke="#002E82" stroke-miterlimit="10"/>
<path d="M95.3779 170.877L96.2962 184.823L55.5732 179.672L56.1293 176.16L95.3779 170.877Z" fill="#232323"/>
<path d="M47.3471 188.092C47.3471 188.092 56.2731 178.277 78.0023 182.319C99.7315 186.36 108.113 175.053 108.113 175.053C108.113 175.053 101.827 113.269 66.624 110.191C31.422 107.114 47.3471 188.092 47.3471 188.092Z" fill="#636AE8"/>
<path d="M53.5827 114.305C53.5827 114.305 37.8465 123.474 27.7881 150.677L49.6451 152.394L53.5827 114.305Z" fill="#636AE8"/>
<path d="M66.625 110.193C66.625 110.193 90.0214 109.677 105.737 126.702L96.9367 135.355L66.625 110.193Z" fill="#636AE8"/>
<path d="M51.0449 116.102C51.0449 116.102 55.4107 124.583 63.7579 126.702C72.1059 128.82 77.1375 114.955 73.574 110.732C73.574 110.732 66.7152 109.849 62.4961 110.234C58.277 110.619 54.6319 112.986 51.0449 116.102Z" fill="#FFCB9C"/>
<path d="M77.8193 95.7202C77.2963 89.6366 73.3124 83.882 67.5507 80.9341C67.0488 81.5618 65.5447 82.6546 64.457 82.8489C60.161 83.6185 59.6372 81.695 55.473 82.3011C52.958 82.6675 50.4328 82.3371 49 84.4535C47.4559 86.7334 48.306 88.8231 48.0958 91.2851C48.0425 91.9078 47.9264 92.5305 47.8652 93.151C48.1875 93.4857 48.4401 93.8788 48.5757 94.3014C48.7545 94.8549 48.7922 95.4531 48.793 96.0298C48.793 96.3048 48.7357 96.5639 48.6542 96.8151C48.8847 97.237 49.1365 97.6315 49.4133 97.9856C52.7862 102.299 57.6547 110.02 56.2972 117.326C54.9397 124.633 70.2367 123.318 68.3757 118.335C66.5156 113.352 70.0634 109.181 70.0634 109.181C77.5033 105.055 78.2365 100.558 77.8193 95.7202Z" fill="#FFCB9C"/>
<path d="M69.176 99.0359C69.176 99.0359 70.6879 98.2765 71.9639 98.2988C73.2398 98.3211 74.4671 98.7746 74.6812 100.254C74.8953 101.734 73.2876 102.788 71.3451 103.64C70.2001 104.143 66.3598 104.65 64.3146 103.682C62.2701 102.713 61.2051 101.956 60.7879 100.659C60.3699 99.3606 61.5212 98.08 62.6387 97.7344C63.7554 97.3896 64.8831 97.9173 65.4031 98.3197C65.923 98.7221 67.1942 99.7004 69.176 99.0359Z" fill="#CE3E3E"/>
<path d="M73.3242 102.577C73.3242 102.577 71.8326 101.654 69.3929 101.897C66.954 102.14 65.9965 102.998 64.9189 103.912C64.9189 103.912 67.6276 104.685 70.276 103.994C72.4247 103.436 73.3242 102.577 73.3242 102.577Z" fill="#FF7D7D"/>
<path d="M64.9062 86.7536L72.4959 94.6376L67.0793 96.551L64.9062 86.7536Z" fill="#FF6252"/>
<path d="M51.8165 76.4601C53.8164 64.2773 44.6787 52.913 31.4069 51.0772C18.135 49.2414 5.75484 57.6293 3.75494 69.8121C1.75503 81.9949 10.8927 93.3593 24.1646 95.1951C37.4364 97.0309 49.8166 88.643 51.8165 76.4601Z" fill="#211915"/>
<path d="M58.4344 81.839C58.4344 81.839 45.8736 81.1119 51.0463 99.5831C56.219 118.054 38.2627 93.2684 38.2627 93.2684L43.7554 74.952L56.077 77.5111L58.4344 81.839Z" fill="#211915"/>
<path d="M49.844 93.6514C49.844 93.6514 46.6193 91.9021 45.8806 94.5001C45.0878 97.2889 47.7212 97.3781 48.4638 99.9545C49.2073 102.532 49.9342 103.441 52.5104 103.077C55.0866 102.713 53.5432 99.7148 53.5432 99.7148L49.844 93.6514Z" fill="#FFCB9C"/>
<path d="M53.7183 102.366C53.7183 103.698 52.5428 104.777 51.0912 104.777C49.6404 104.777 48.4648 103.697 48.4648 102.366C48.4648 101.034 49.6412 99.9545 51.0912 99.9545C52.5428 99.9545 53.7183 101.034 53.7183 102.366Z" fill="white"/>
<path d="M63.253 91.4974C63.4342 92.2216 63.2522 92.8789 62.8468 92.9638C62.4414 93.0495 61.9653 92.5312 61.785 91.8063C61.6038 91.0821 61.7858 90.4256 62.1912 90.3399C62.5966 90.2549 63.0727 90.7733 63.253 91.4974Z" fill="#211915"/>
<path d="M71.655 89.2126C71.8354 89.9368 71.6542 90.594 71.2488 90.679C70.8434 90.7646 70.3681 90.2456 70.187 89.5214C70.0066 88.7972 70.1878 88.1407 70.594 88.055C70.9986 87.9694 71.4739 88.4884 71.655 89.2126Z" fill="#211915"/>
<path d="M25.6602 162.788L22.379 163.973C18.97 156.018 29.4723 145.895 29.8503 145.522L28.2685 149.404L27.7885 150.678L29.1978 150.788C29.1209 150.865 23.0644 156.731 25.6602 162.788Z" fill="#380E59"/>
<path d="M21.2761 194.498L10.2853 192.728C7.49503 192.278 5.6129 189.815 6.10304 187.255L11.2107 160.529C12.2302 155.194 17.8201 151.594 23.6327 152.53C29.4454 153.466 33.3672 158.598 32.347 163.934L27.2394 190.659C26.7492 193.219 24.0656 194.947 21.2761 194.498Z" fill="#58167D"/>
<path d="M23.6318 152.53L42.2328 154.907L41.8469 159.513L26.5915 163.443L23.6318 152.53Z" fill="#58167D"/>
<path d="M8.02246 191.804L25.6031 199.679L21.9385 190.476L8.02246 191.804Z" fill="#58167D"/>
<path d="M38.1185 201.933L27.1276 200.163C24.3374 199.713 22.4553 197.251 22.9446 194.69L29.0482 162.754C30.0677 157.418 35.6576 153.819 41.4703 154.755C47.2829 155.691 51.204 160.823 50.1845 166.158L44.0809 198.094C43.5908 200.654 40.908 202.382 38.1185 201.933Z" fill="#380E59"/>
<path d="M9.20654 171.532L8.71094 173.041L26.057 177.842L26.5526 176.334L9.20654 171.532Z" fill="#380E59"/>
<path d="M14.7406 181.244C13.8505 181.093 13.2569 180.301 13.4208 179.485L15.3625 169.811C15.5264 168.994 16.389 168.449 17.2783 168.599C18.1684 168.75 18.7621 169.542 18.5982 170.359L16.6565 180.032C16.4933 180.849 15.6307 181.394 14.7406 181.244Z" fill="#380E59"/>
<path d="M43.7691 157.579C42.7748 158.175 41.7043 158.678 40.5452 159.068L39.332 156.03C47.1021 153.415 50.3041 144.442 52.9155 135.475C54.4463 130.218 60.4919 127.295 66.3382 124.469C70.7267 122.347 75.265 120.153 76.755 117.291C79.7092 111.619 74.8776 108.306 74.3592 108.01L73.0355 107.271C73.7044 106.844 74.2048 106.269 74.2048 106.269L75.2862 105.156C77.9988 106.654 83.4617 111.917 79.9358 118.687C77.9416 122.515 72.8771 124.964 67.9804 127.332C62.8053 129.834 57.4538 132.421 56.3206 136.311C54.4542 142.719 51.4733 152.953 43.7691 157.579Z" fill="#380E59"/>
<path d="M43.8524 157.117C45.0405 158.785 44.5308 161.022 42.7137 162.112C40.8975 163.203 38.4609 162.735 37.2728 161.067C36.0839 159.4 36.5937 157.163 38.4107 156.072C40.2278 154.981 42.6635 155.449 43.8524 157.117Z" fill="#380E59"/>
<path d="M31.9307 151.003L21.9248 170.69L23.9175 173.04L41.6205 151.764L31.9307 151.003Z" fill="#FFCB9C"/>
<path d="M18.4563 174.254C18.4563 174.254 12.4359 181.145 12.2131 181.92C11.9904 182.696 13.0272 182.952 13.9925 181.719C14.9579 180.486 18.2297 176.978 18.2297 176.978C18.2297 176.978 13.7259 183.203 13.8882 183.72C14.0506 184.236 14.8473 184.405 15.3649 183.496C15.8833 182.587 19.1441 178.576 19.1441 178.576C19.1441 178.576 17.0134 182.466 16.8157 183.412C16.6181 184.357 17.8564 183.589 18.272 182.709C18.6885 181.828 20.5471 178.556 20.5471 178.556C20.5471 178.556 19.9118 181.878 20.1542 182.376C20.3965 182.874 20.8027 182.614 20.9682 182.215C21.1337 181.817 21.801 178.011 21.801 178.011C21.801 178.011 24.425 175.281 23.8431 172.97C23.2612 170.66 21.7375 170.567 21.3854 170.769C21.0325 170.97 14.6678 174.381 13.9667 175.187C13.2656 175.992 14.6591 176.594 16.1264 175.589C17.5945 174.585 18.4163 173.721 18.4563 174.254Z" fill="#FFCB9C"/>
<path d="M22.5991 172.317C21.7568 172.242 20.4739 172.502 19.8684 173.099C19.4865 173.476 19.1101 173.853 18.7572 174.252C18.747 174.264 18.7368 174.275 18.7266 174.287C18.6615 174.322 18.5964 174.357 18.5321 174.392C18.4019 174.464 18.2749 174.539 18.1463 174.612C18.3431 174.386 18.4568 174.255 18.4568 174.255C18.4169 173.723 17.595 174.586 16.1269 175.591C14.6589 176.596 13.2661 175.994 13.9672 175.188C14.6691 174.383 21.0338 170.973 21.3859 170.77C21.7184 170.58 23.0924 170.654 23.7354 172.603C23.3614 172.452 22.9677 172.35 22.5991 172.317Z" fill="#FFCB9C"/>
<path d="M157.379 151.92C157.379 151.92 155.123 146.629 146.887 148.421C138.65 150.214 140.845 156.959 140.845 156.959" stroke="#211915" stroke-width="4" stroke-miterlimit="10"/>
<path d="M173.635 154.566C173.635 154.566 141.262 146.337 122.788 166.319C122.788 166.319 108.895 200.381 130.033 218.804C151.171 237.227 184.888 224.753 190.184 214.015C195.483 203.277 183.749 163.505 173.635 154.566Z" fill="#3C2C17"/>
<path d="M165.328 140.019C173.403 132.606 173.403 120.589 165.328 113.177C157.254 105.765 144.162 105.765 136.087 113.177C128.013 120.589 128.013 132.606 136.087 140.019C144.162 147.431 157.254 147.431 165.328 140.019Z" fill="#211915"/>
<path d="M178.029 155.052L227.847 133.683L231.034 135.975L186.685 166.917C186.685 166.917 184.765 161.195 183.815 160.362C183.519 160.103 183.353 159.956 183.204 159.839C182.222 159.08 181.625 158.562 180.695 157.962C180.432 157.792 180.227 157.535 179.973 157.34C178.71 156.369 178.029 155.052 178.029 155.052Z" fill="#FFDEC2"/>
<path d="M232.704 129.726C232.704 129.726 242.092 122.858 243.146 122.605C244.201 122.353 244.544 123.542 242.865 124.642C241.186 125.744 236.407 129.477 236.407 129.477C236.407 129.477 244.886 124.343 245.586 124.531C246.286 124.719 246.514 125.632 245.277 126.221C244.039 126.811 238.576 130.531 238.576 130.531C238.576 130.531 243.871 128.105 245.156 127.883C246.441 127.659 245.394 129.075 244.195 129.548C242.998 130.021 238.544 132.137 238.544 132.137C238.544 132.137 243.061 131.422 243.737 131.702C244.411 131.981 244.057 132.446 243.515 132.633C242.973 132.821 237.799 133.57 237.799 133.57C237.799 133.57 234.078 136.566 230.941 135.89C227.803 135.215 227.683 133.47 227.958 133.066C228.233 132.663 232.893 125.388 233.989 124.587C235.086 123.787 235.9 125.385 234.528 127.063C233.157 128.74 231.981 129.678 232.704 129.726Z" fill="#FFDEC2"/>
<path d="M230.058 134.461C229.958 133.496 230.316 132.028 231.13 131.337C231.642 130.902 232.157 130.471 232.7 130.069C232.717 130.057 232.732 130.045 232.748 130.034C232.795 129.96 232.843 129.886 232.892 129.812C232.99 129.664 233.092 129.518 233.192 129.371C232.884 129.595 232.705 129.725 232.705 129.725C231.982 129.677 233.158 128.739 234.529 127.062C235.902 125.385 235.088 123.787 233.991 124.586C232.893 125.387 228.235 132.663 227.96 133.066C227.7 133.446 227.795 135.019 230.441 135.764C230.237 135.335 230.101 134.884 230.058 134.461Z" fill="#FFDEC2"/>
<path d="M124.424 178.991L85.5186 214.662L86.7749 218.195L133.613 190.514C133.613 190.514 128.411 186.902 127.883 185.798C127.718 185.454 127.624 185.261 127.557 185.092C127.116 183.986 126.79 183.294 126.493 182.287C126.409 182.002 126.216 181.737 126.103 181.451C125.54 180.029 124.424 178.991 124.424 178.991Z" fill="#FFDEC2"/>
<path d="M79.8066 217.499C79.8066 217.499 69.5655 223.25 68.9467 224.073C68.328 224.897 69.4275 225.599 71.1284 224.527C72.8294 223.456 78.286 220.608 78.286 220.608C78.286 220.608 70.1325 226.167 70.0846 226.836C70.0376 227.506 70.894 228.013 71.9205 227.148C72.9471 226.282 78.6232 222.841 78.6232 222.841C78.6232 222.841 74.3296 226.579 73.6623 227.611C72.9949 228.644 74.8017 228.224 75.695 227.353C76.589 226.481 80.2787 223.362 80.2787 223.362C80.2787 223.362 78.0021 227.015 78.057 227.693C78.1127 228.371 78.7095 228.224 79.0867 227.821C79.4639 227.417 82.0001 223.211 82.0001 223.211C82.0001 223.211 86.3384 221.025 86.7195 218.088C87.1007 215.15 85.3558 214.449 84.8484 214.549C84.3418 214.649 75.3005 216.181 74.1061 216.854C72.9125 217.527 74.2708 218.774 76.4564 218.164C78.6428 217.553 80.005 216.859 79.8066 217.499Z" fill="#FFDEC2"/>
<path d="M85.5602 216.834C84.6066 216.419 82.9809 216.226 81.9951 216.692C81.374 216.985 80.7576 217.281 80.16 217.613C80.1428 217.623 80.1255 217.632 80.1083 217.642C80.0157 217.658 79.924 217.673 79.8315 217.689C79.6464 217.723 79.4621 217.762 79.2778 217.797C79.6134 217.607 79.8071 217.499 79.8071 217.499C80.0048 216.858 78.6434 217.552 76.4577 218.162C74.2713 218.772 72.9131 217.525 74.1074 216.851C75.3018 216.178 84.3431 214.647 84.8497 214.547C85.328 214.453 86.9059 215.073 86.7632 217.61C86.393 217.288 85.9782 217.016 85.5602 216.834Z" fill="#FFDEC2"/>
<path d="M93.4652 259.18L88.6289 263.499L93.4652 269.738L99.8691 266.378L93.4652 259.18Z" fill="#636AE8"/>
<path d="M243.619 259.18L248.455 263.499L243.619 269.738L237.215 266.378L243.619 259.18Z" fill="#636AE8"/>
<path d="M99.3471 267.818C99.3471 267.818 163.13 234.225 238.415 267.818L246.781 260.353C246.781 260.353 221.162 232.785 184.043 223.666H140.127C140.127 223.666 108.758 234.225 91.4609 259.767L99.3471 267.818Z" fill="#5E7496"/>
<path opacity="0.44" d="M95.1367 263.521C95.1367 263.521 126.532 238.545 163.653 240.464C200.772 242.384 241.334 265.214 241.334 265.214" stroke="#002E82" stroke-miterlimit="10"/>
<path opacity="0.48" d="M160.516 223.666C160.516 223.666 154.245 239.564 163.654 252.972" stroke="#002E82" stroke-miterlimit="10"/>
<path d="M119.097 234.067C119.097 234.067 136.728 226.786 149.013 232.066C159.821 236.709 176.723 241.863 203.909 231.806C203.909 231.806 195.023 168.477 163.653 160.799C132.284 153.119 117.96 219.03 119.097 234.067Z" fill="#636AE8"/>
<path d="M158.468 160.182C158.468 160.182 147.706 157.438 108.757 189.593L124.543 201.857L158.468 160.182Z" fill="#636AE8"/>
<path d="M148.683 175.126C148.683 175.126 141.201 162.924 156.778 160.178C168.236 158.158 178.617 153.27 195.728 146.194L203.91 163.437L185.14 177.911L148.683 175.126Z" fill="#636AE8"/>
<path d="M146.887 164.011C146.887 164.011 149.73 173.088 158.469 171.836C170.188 170.156 163.654 158.605 163.654 158.605C163.654 158.605 149.465 160.265 146.887 164.011Z" fill="#FFDEC2"/>
<path d="M258.257 255.088C258.257 255.088 247.812 260.629 242.989 265.494C238.167 270.36 245.372 274.232 245.372 274.232L258.257 255.088Z" fill="#444242"/>
<path d="M245.148 271.513C245.148 271.513 250.921 258.327 258.258 255.088C265.596 251.85 258.942 266.512 252.274 272.361C245.607 278.21 244.322 273.247 245.148 271.513Z" fill="#211915"/>
<path d="M80.1699 253.576C80.1699 253.576 89.2763 260.84 93.0037 266.458C96.7303 272.078 88.8536 274.62 88.8536 274.62L80.1699 253.576Z" fill="#444242"/>
<path d="M89.6374 271.99C89.6374 271.99 86.7013 258.037 80.1695 253.576C73.6377 249.117 77.1314 264.672 82.4657 271.578C87.8 278.485 90.0899 273.836 89.6374 271.99Z" fill="#211915"/>
<path d="M215.624 236.551C215.624 236.551 207.308 238.784 210.444 244.543C213.581 250.302 222.469 249.511 226.913 252.787C231.356 256.061 235.491 255.224 237.215 251.564C237.215 251.564 224.883 241.396 215.624 236.551Z" fill="#809ABF"/>
<path d="M116.228 235.794C116.228 235.794 124.767 237.15 122.359 243.197C119.952 249.245 111.023 249.382 107.012 253.097C103 256.812 98.7896 256.41 96.626 252.951C96.626 252.951 107.625 241.57 116.228 235.794Z" fill="#809ABF"/>
<path d="M175.291 135.576C174.638 127.986 169.669 120.807 162.48 117.13C161.854 117.912 160.853 118.451 159.469 118.446C155.443 118.43 151.422 118.216 147.397 118.197C144.22 118.182 141.126 118.881 139.338 121.521C137.412 124.366 138.472 126.973 138.21 130.044C138.143 130.82 137.998 131.597 137.923 132.372C138.325 132.789 138.64 133.28 138.809 133.806C139.032 134.497 139.079 135.243 139.08 135.963C139.08 136.307 139.008 136.63 138.906 136.943C139.194 137.469 139.509 137.962 139.854 138.403C144.062 143.785 150.135 153.416 148.442 162.531C146.748 171.646 165.831 170.006 163.51 163.79C161.189 157.573 165.614 152.37 165.614 152.37C174.896 147.222 175.811 141.611 175.291 135.576Z" fill="#FFDEC2"/>
<path d="M164.507 139.712C164.507 139.712 166.393 138.764 167.986 138.792C169.578 138.82 171.108 139.386 171.375 141.232C171.643 143.078 169.636 144.393 167.213 145.456C165.784 146.083 160.993 146.716 158.443 145.508C155.891 144.299 154.564 143.356 154.043 141.737C153.522 140.118 154.958 138.519 156.352 138.089C157.745 137.658 159.152 138.317 159.801 138.819C160.449 139.321 162.034 140.541 164.507 139.712Z" fill="#CE3E3E"/>
<path d="M169.682 144.131C169.682 144.131 167.821 142.98 164.778 143.283C161.735 143.585 160.541 144.656 159.197 145.797C159.197 145.797 162.576 146.761 165.88 145.9C168.559 145.201 169.682 144.131 169.682 144.131Z" fill="#FF7D7D"/>
<path d="M162.665 117.217C162.665 117.217 161.168 124.564 148.229 121.445C135.289 118.325 138.427 129.591 143.327 130.878C148.294 132.183 147.815 137.95 147.815 137.95L145.756 138.27C145.756 138.27 144.831 133.323 141.824 133.683C138.818 134.043 139.128 137.342 139.128 137.342C139.128 137.342 126.91 106.391 162.665 117.217Z" fill="#211915"/>
<path d="M142.443 133.722C142.443 133.722 138.42 131.54 137.498 134.781C136.509 138.261 139.793 138.372 140.721 141.586C141.649 144.8 142.555 145.935 145.769 145.481C148.984 145.028 147.058 141.287 147.058 141.287L142.443 133.722Z" fill="#FFDEC2"/>
<path d="M159.706 131.247C159.706 134.307 157.002 136.789 153.668 136.789C150.334 136.789 147.631 134.307 147.631 131.247C147.631 128.186 150.334 125.704 153.668 125.704C157.003 125.704 159.706 128.186 159.706 131.247Z" stroke="#211915" stroke-width="2" stroke-miterlimit="10"/>
<path d="M173.634 126.598C173.634 129.659 170.931 132.14 167.597 132.14C164.263 132.14 161.56 129.659 161.56 126.598C161.56 123.537 164.263 121.055 167.597 121.055C170.931 121.055 173.634 123.537 173.634 126.598Z" stroke="#211915" stroke-width="2" stroke-miterlimit="10"/>
<path d="M159.18 124.39L168.649 134.225L161.892 136.613L159.18 124.39Z" fill="#FF6252"/>
<path d="M155.668 131.412C155.806 132.213 155.53 132.917 155.053 132.986C154.576 133.055 154.079 132.462 153.942 131.661C153.804 130.861 154.08 130.156 154.556 130.087C155.034 130.019 155.532 130.612 155.668 131.412Z" fill="#211915"/>
<path d="M167.232 127.035C167.369 127.835 167.094 128.54 166.617 128.609C166.14 128.677 165.642 128.084 165.505 127.284C165.368 126.484 165.644 125.779 166.121 125.711C166.597 125.641 167.095 126.234 167.232 127.035Z" fill="#211915"/>
<path d="M161.959 124.61L156.398 126.304" stroke="#211915" stroke-width="2" stroke-miterlimit="10"/>
<path d="M147.688 130.501L140.844 132.139" stroke="#211915" stroke-width="2" stroke-miterlimit="10"/>
<path opacity="0.27" d="M193.418 193.74C193.418 193.74 198.158 234.508 140.844 230.227C140.844 230.227 144.869 229.966 151.94 233.266C159.012 236.565 178.421 241.983 203.908 231.806C203.908 231.806 198.612 202.747 193.418 193.74Z" fill="#DB9600"/>
<path d="M133.613 165.28C133.613 165.28 153.884 199.474 119.034 219.641" stroke="#211915" stroke-width="7" stroke-miterlimit="10"/>
<path d="M167.598 154.319C167.598 154.319 171.756 190.673 200.38 203.991" stroke="#211915" stroke-width="7" stroke-miterlimit="10"/>
<path opacity="0.27" d="M199.582 154.319C199.582 154.319 179.308 167.568 185.138 177.911L203.909 163.438L199.582 154.319Z" fill="#DB9600"/>
<path d="M279.82 35.6399L276.446 53.5186C276.355 54.0016 276.579 54.489 277.02 54.7647L303.882 71.6046C304.71 72.1236 305.844 71.6723 305.997 70.7631L308.716 54.6315C308.752 54.4213 308.845 54.2233 308.987 54.0556L323.232 37.2236C323.701 36.6686 323.581 35.8688 322.966 35.4513L296.509 17.4682C295.912 17.0622 295.07 17.1709 294.618 17.7115L280.083 35.0913C279.948 35.2519 279.857 35.4405 279.82 35.6399Z" fill="#BE1622"/>
<path d="M280.729 35.3361L294.233 18.9238C294.616 18.4731 295.319 18.3831 295.821 18.7207L321.856 36.2194C322.315 36.5275 322.416 37.1178 322.081 37.5396L308.769 54.3119L280.729 35.3361Z" fill="#DADADA"/>
<path d="M280.731 35.3361C280.731 35.3361 282.5 44.2682 277.829 51.4713C277.514 51.9579 277.64 52.5827 278.128 52.929L303.449 70.907C303.449 70.907 306.245 67.9009 310.783 67.3682L308.771 54.3112L280.731 35.3361Z" fill="#DADADA"/>
<path d="M280.729 35.3361L293.613 20.5831C293.962 20.1836 294.592 20.1087 295.04 20.4132L321.037 38.0882C321.383 38.3236 321.539 38.731 321.418 39.1118C320.785 41.1174 318.142 47.5214 308.769 54.3112L280.729 35.3361Z" fill="#F6F6F6"/>
<path d="M280.729 35.3361C280.729 35.3361 286.664 41.167 284.13 49.4873C283.984 49.9638 284.182 50.4728 284.626 50.7543L310.782 67.3689C310.782 67.3689 312.999 62.4845 308.77 54.3119L280.729 35.3361Z" fill="white"/>
<path d="M75.0022 49.809L95.0155 39.3587C95.5558 39.0765 95.8664 38.5308 95.8115 37.9621L92.4229 3.3227C92.3186 2.25586 91.0364 1.65332 90.0326 2.1997L72.2166 11.8964C71.9845 12.0223 71.7218 12.0922 71.452 12.0994L44.4176 12.802C43.5275 12.825 42.8319 13.5161 42.8782 14.3324L44.8465 49.4844C44.8912 50.2784 45.6198 50.8925 46.4856 50.8658L74.2721 49.9977C74.5277 49.9905 74.7787 49.9249 75.0022 49.809Z" fill="#636AE8"/>
<path d="M74.0318 49.2821L47.9573 50.2856C47.2326 50.3036 46.6233 49.7889 46.5817 49.1244L44.4502 14.6794C44.4126 14.0725 44.9168 13.5528 45.5779 13.5168L71.8634 12.0893L74.0318 49.2821Z" fill="#DADADA"/>
<path d="M74.0307 49.2821C74.0307 49.2821 81.4714 41.2095 91.9854 39.7323C92.6951 39.6323 93.2143 39.0657 93.1931 38.4063L92.0591 4.19593C92.0591 4.19593 87.0433 4.11243 83.1637 0.761429L71.8623 12.0886L74.0307 49.2821Z" fill="#DADADA"/>
<path d="M74.0318 49.2821L50.0417 49.5686C49.3924 49.5765 48.852 49.1115 48.8191 48.5162L46.8883 13.9718C46.8625 13.511 47.1471 13.082 47.6083 12.8991C50.0417 11.9367 58.2721 9.37826 71.8626 12.0886L74.0318 49.2821Z" fill="#F6F6F6"/>
<path d="M74.0315 49.2821C74.0315 49.2821 75.3497 40.0664 85.3768 35.9991C85.9508 35.7666 86.3029 35.2259 86.2504 34.6522L83.1637 0.761429C83.1637 0.761429 76.737 2.54743 71.8623 12.0886L74.0315 49.2821Z" fill="white"/>
<path d="M164.809 59.8002C164.809 59.8002 165.105 49.8991 155.771 44.5231L154.815 45.839L153.774 45.1336L153.125 46.0262L152.997 45.9254C151.574 44.8132 149.457 44.8132 148.081 45.9744C148.062 45.9909 148.042 46.0075 148.022 46.0248L164.809 59.8002Z" fill="white"/>
<path d="M164.809 59.8002C164.809 59.8002 174.189 54.9072 183.747 59.9435L182.931 61.3364L184.098 61.8482L183.544 62.7934L183.702 62.8503C185.44 63.4802 186.435 65.1956 185.965 66.8557C185.958 66.8794 185.952 66.9032 185.945 66.9276L164.809 59.8002Z" fill="white"/>
<path d="M186.107 66.9658L168.11 60.6971L150.679 86.3188L168.361 92.357C169.046 92.5917 169.817 92.3592 170.219 91.7977L186.722 68.7079C187.171 68.0794 186.871 67.2321 186.107 66.9658Z" fill="#4AB0BA"/>
<path d="M147.93 45.8534L162.692 57.7111L146.246 83.8755L128.287 71.6291C127.809 71.2404 127.688 70.6011 127.994 70.0871L146.417 46.0996C146.72 45.5928 147.456 45.4726 147.93 45.8534Z" fill="#4AB0BA"/>
<path d="M168.109 60.6971L150.678 86.3187C150.678 86.3187 147.576 86.8168 146.246 83.8755L162.692 57.711C164.043 59.2768 165.968 60.3379 168.109 60.6971Z" fill="#339999"/>
</svg>
