<svg width="356" height="248" viewBox="0 0 356 248" fill="none" xmlns="http://www.w3.org/2000/svg">
<path d="M319.643 228.989H296.174V229.155H319.643V228.989Z" fill="#EBEBEB"/>
<path d="M235.55 230.798H229.391V230.964H235.55V230.798Z" fill="#EBEBEB"/>
<path d="M295.465 222.799H281.866V222.966H295.465V222.799Z" fill="#EBEBEB"/>
<path d="M68.6327 223.919H38.0273V224.085H68.6327V223.919Z" fill="#EBEBEB"/>
<path d="M79.4298 223.919H74.9424V224.085H79.4298V223.919Z" fill="#EBEBEB"/>
<path d="M160.389 226.734H94.0127V226.9H160.389V226.734Z" fill="#EBEBEB"/>
<path d="M169.78 188.533H32.9557C30.7258 188.533 28.9111 186.826 28.9111 184.728V3.80468C28.9111 1.70704 30.7258 0 32.9557 0H169.78C172.009 0 173.824 1.70704 173.824 3.80468V184.728C173.824 186.826 172.009 188.533 169.78 188.533ZM32.9557 0.167304C30.8229 0.167304 29.0883 1.79902 29.0883 3.80535V184.729C29.0883 186.735 30.8229 188.367 32.9557 188.367H169.78C171.912 188.367 173.647 186.735 173.647 184.729V3.80468C173.647 1.79902 171.912 0.166638 169.78 0.166638L32.9557 0.167304Z" fill="#EBEBEB"/>
<path d="M323.042 188.533H186.218C183.988 188.533 182.174 186.826 182.174 184.728V3.80468C182.174 1.70704 183.988 0 186.218 0H323.042C325.273 0 327.087 1.70704 327.087 3.80468V184.728C327.087 186.826 325.272 188.533 323.042 188.533ZM186.218 0.167304C184.086 0.167304 182.351 1.79902 182.351 3.80535V184.729C182.351 186.735 184.086 188.367 186.218 188.367H323.042C325.175 188.367 326.909 186.735 326.909 184.729V3.80468C326.909 1.79902 325.175 0.166638 323.042 0.166638L186.218 0.167304Z" fill="#EBEBEB"/>
<path d="M355.142 218.26H0.856445V218.426H355.142V218.26Z" fill="#EBEBEB"/>
<path d="M201.363 218.324H314.369V130.99H201.363V218.324Z" fill="#F5F5F5"/>
<path d="M201.362 132.779H318.933L298.006 107.008H201.362V132.779Z" fill="#EBEBEB"/>
<path d="M286.021 192.252C286.021 187.378 290.22 183.427 295.401 183.427C300.582 183.427 304.782 187.378 304.782 192.252V214.029H286.021V192.252H286.021Z" fill="#E6E6E6"/>
<path d="M253.007 192.252C253.007 187.378 257.207 183.427 262.388 183.427C267.568 183.427 271.768 187.378 271.768 192.252V214.029H253.007V192.252Z" fill="#E6E6E6"/>
<path d="M219.992 192.252C219.992 187.378 224.192 183.427 229.372 183.427C234.553 183.427 238.753 187.378 238.753 192.252V214.029H219.992V192.252Z" fill="#E6E6E6"/>
<path d="M286.021 144.924C286.021 140.051 290.22 136.099 295.401 136.099C300.582 136.099 304.782 140.05 304.782 144.924V166.701H286.021V144.924H286.021Z" fill="#E6E6E6"/>
<path d="M253.007 144.924C253.007 140.051 257.207 136.099 262.388 136.099C267.568 136.099 271.768 140.05 271.768 144.924V166.701H253.007V144.924Z" fill="#E6E6E6"/>
<path d="M219.992 144.924C219.992 140.051 224.192 136.099 229.372 136.099C234.553 136.099 238.753 140.05 238.753 144.924V166.701H219.992V144.924Z" fill="#E6E6E6"/>
<path d="M205.841 175.026H318.934V170.021H205.841V175.026Z" fill="#E6E6E6"/>
<path d="M155.668 130.99H42.6621V218.323H155.668V130.99Z" fill="#F5F5F5"/>
<path d="M155.669 132.779H38.0967L59.0236 107.008H155.669V132.779Z" fill="#EBEBEB"/>
<path d="M71.0086 192.252C71.0086 187.378 66.8089 183.427 61.6278 183.427C56.4475 183.427 52.2471 187.378 52.2471 192.252V214.028H71.0079L71.0086 192.252Z" fill="#E6E6E6"/>
<path d="M104.024 192.252C104.024 187.378 99.8245 183.427 94.6435 183.427C89.4631 183.427 85.2627 187.378 85.2627 192.252V214.028H104.024L104.024 192.252Z" fill="#E6E6E6"/>
<path d="M137.038 192.252C137.038 187.378 132.838 183.427 127.657 183.427C122.477 183.427 118.277 187.378 118.277 192.252V214.028H137.038V192.252Z" fill="#E6E6E6"/>
<path d="M71.0086 144.924C71.0086 140.051 66.8089 136.099 61.6278 136.099C56.4475 136.099 52.2471 140.05 52.2471 144.924V166.701H71.0079L71.0086 144.924Z" fill="#E6E6E6"/>
<path d="M104.024 144.924C104.024 140.051 99.8245 136.099 94.6435 136.099C89.4631 136.099 85.2627 140.05 85.2627 144.924V166.701H104.024L104.024 144.924Z" fill="#E6E6E6"/>
<path d="M137.038 144.924C137.038 140.051 132.838 136.099 127.657 136.099C122.477 136.099 118.277 140.05 118.277 144.924V166.701H137.038V144.924Z" fill="#E6E6E6"/>
<path d="M151.189 170.021H38.0967V175.027H151.189V170.021Z" fill="#E6E6E6"/>
<path d="M213.884 140.933H143.493V218.324H213.884V140.933Z" fill="#F5F5F5"/>
<path d="M205.133 138.594H152.245V80.4462L178.689 58.6886L205.133 80.4462V138.594Z" fill="#F5F5F5"/>
<path d="M195.357 179.628C195.357 170.969 187.895 163.948 178.689 163.948C169.483 163.948 162.021 170.969 162.021 179.628V218.324H195.357L195.357 179.628Z" fill="#E6E6E6"/>
<path d="M216.927 136.376H140.449V141.381H216.927V136.376Z" fill="#E6E6E6"/>
<path d="M178.688 102.713C187.514 102.713 194.669 95.9826 194.669 87.6803C194.669 79.3779 187.514 72.6475 178.688 72.6475C169.863 72.6475 162.708 79.3779 162.708 87.6803C162.708 95.9826 169.863 102.713 178.688 102.713Z" fill="#E6E6E6"/>
<path d="M179.288 90.9277H176.598L177.004 76.5008C177.017 76.0223 177.434 75.6403 177.943 75.6403C178.452 75.6403 178.868 76.0216 178.881 76.5008L179.288 90.9277Z" fill="#FAFAFA"/>
<path d="M176.596 90.9277V88.3968L187.43 88.7787C187.79 88.7914 188.077 89.1833 188.077 89.6619C188.077 90.1411 187.79 90.5324 187.43 90.5451L176.596 90.9277Z" fill="#FAFAFA"/>
<path d="M49.7755 36.6923C67.1228 43.0332 123.259 35.8038 122.948 23.8059C122.371 1.50038 102.879 20.6951 102.879 20.6951C102.879 20.6951 95.9772 9.14173 85.6172 8.25255C75.2565 7.36404 73.4581 21.1397 73.4581 21.1397C73.4581 21.1397 62.9748 16.2512 58.2508 17.5843C53.5267 18.9174 53.3304 26.916 53.3304 26.916C53.3304 26.916 34.6454 31.1619 49.7755 36.6923Z" fill="#F5F5F5"/>
<path d="M138.443 50.2934C154.78 58.6792 211.439 58.2953 212.77 46.3594C215.244 24.1692 193.292 40.8483 193.292 40.8483C193.292 40.8483 188.025 28.5564 177.872 26.4221C167.719 24.2885 164.054 37.7322 164.054 37.7322C164.054 37.7322 154.325 31.6172 149.458 32.3684C144.592 33.1196 143.304 41.0283 143.304 41.0283C143.304 41.0283 124.194 42.9799 138.443 50.2934Z" fill="#F5F5F5"/>
<path d="M238.804 35.8158C246.28 40.8596 272.919 39.3952 273.835 31.6865C275.537 17.3557 264.814 28.5597 264.814 28.5597C264.814 28.5597 262.637 20.7638 257.917 19.6093C253.196 18.4548 251.147 27.1833 251.147 27.1833C251.147 27.1833 246.723 23.458 244.417 24.0459C242.111 24.6338 241.314 29.7495 241.314 29.7495C241.314 29.7495 232.284 31.4166 238.804 35.8158Z" fill="#F5F5F5"/>
<path d="M268.869 52.5296C277.756 58.5259 309.425 56.7849 310.514 47.6205C312.537 30.5841 299.789 43.9031 299.789 43.9031C299.789 43.9031 297.202 34.6354 291.59 33.2629C285.979 31.8905 283.542 42.2674 283.542 42.2674C283.542 42.2674 278.282 37.8388 275.541 38.5374C272.801 39.2359 271.852 45.3182 271.852 45.3182C271.852 45.3182 261.118 47.2992 268.869 52.5296Z" fill="#F0F0F0"/>
<path d="M177.999 248C253.875 248 315.384 244.621 315.384 240.453C315.384 236.284 253.875 232.905 177.999 232.905C102.124 232.905 40.6152 236.284 40.6152 240.453C40.6152 244.621 102.124 248 177.999 248Z" fill="#F5F5F5"/>
<path d="M198.53 102.28H214.864C221.636 102.28 227.341 107.104 227.99 113.445C227.993 113.474 227.996 113.503 227.999 113.532C228.818 122.146 228.687 139.503 227.999 148.129C227.971 148.475 227.925 148.897 227.864 149.375C227.082 155.56 221.483 160.209 214.862 160.209H192.016C186.444 160.209 181.397 156.921 179.648 151.945C179.575 151.737 179.517 151.545 179.475 151.374C178.418 147.023 178.055 137.78 179.475 133.522C180.266 131.15 184.723 127.732 185.513 125.36C186.736 121.693 183.95 113.539 185.513 109.988C186.032 108.811 187.859 107.048 189.656 105.505C192.081 103.425 195.248 102.28 198.53 102.28Z" fill="#636AE8"/>
<path opacity="0.5" d="M198.53 102.28H214.864C221.636 102.28 227.341 107.104 227.99 113.445C227.993 113.474 227.996 113.503 227.999 113.532C228.818 122.146 228.687 139.503 227.999 148.129C227.971 148.475 227.925 148.897 227.864 149.375C227.082 155.56 221.483 160.209 214.862 160.209H192.016C186.444 160.209 181.397 156.921 179.648 151.945C179.575 151.737 179.517 151.545 179.475 151.374C178.418 147.023 178.055 137.78 179.475 133.522C180.266 131.15 184.723 127.732 185.513 125.36C186.736 121.693 183.95 113.539 185.513 109.988C186.032 108.811 187.859 107.048 189.656 105.505C192.081 103.425 195.248 102.28 198.53 102.28Z" fill="black"/>
<path d="M192.04 104.917C191.894 104.716 191.626 104.518 191.292 104.325C190.719 104.679 190.168 105.067 189.657 105.506C187.859 107.048 186.032 108.811 185.514 109.99C183.95 113.54 186.737 121.694 185.514 125.361C184.722 127.733 180.266 131.151 179.475 133.523C178.054 137.782 178.418 147.025 179.475 151.375C179.516 151.546 179.575 151.737 179.649 151.946C181.169 156.275 185.188 159.324 189.876 160.045C190.384 159.808 190.804 159.556 191.084 159.287C193.003 157.447 194.547 108.341 192.04 104.917Z" fill="#636AE8"/>
<path opacity="0.2" d="M192.04 104.917C191.894 104.716 191.626 104.518 191.292 104.325C190.719 104.679 190.168 105.067 189.657 105.506C187.859 107.048 186.032 108.811 185.514 109.99C183.95 113.54 186.737 121.694 185.514 125.361C184.722 127.733 180.266 131.151 179.475 133.523C178.054 137.782 178.418 147.025 179.475 151.375C179.516 151.546 179.575 151.737 179.649 151.946C181.169 156.275 185.188 159.324 189.876 160.045C190.384 159.808 190.804 159.556 191.084 159.287C193.003 157.447 194.547 108.341 192.04 104.917Z" fill="white"/>
<path opacity="0.3" d="M186.323 153.408L181.806 151.357C180.942 150.964 180.393 150.141 180.393 149.238V140.119C180.393 138.82 181.512 137.767 182.893 137.767H187.83C189.246 137.767 190.379 138.872 190.33 140.203L189.909 151.373C189.846 153.07 187.949 154.147 186.323 153.408Z" fill="black"/>
<path d="M238.738 223.233L229.859 223.927L231.365 233.742L238.785 233.174L238.738 223.233Z" fill="#CE7A63"/>
<path d="M221.769 194.337C218.305 181.778 207.861 167.003 214.793 155.483L239.555 157.658C239.555 157.658 240.462 179.533 240.633 191.28C240.813 203.494 239.695 226.576 239.695 226.576L229.522 227.302C229.522 227.302 222.581 208.433 221.769 194.337Z" fill="#636AE8"/>
<path opacity="0.3" d="M221.769 194.337C218.305 181.778 207.861 167.003 214.793 155.483L239.555 157.658C239.555 157.658 240.462 179.533 240.633 191.28C240.813 203.494 239.695 226.576 239.695 226.576L229.522 227.302C229.522 227.302 222.581 208.433 221.769 194.337Z" fill="black"/>
<path d="M229.045 227.678L240.04 226.919C240.232 226.906 240.385 226.76 240.396 226.579L240.633 222.743C240.648 222.516 240.438 222.333 240.198 222.363L228 223.888C227.766 223.917 227.615 224.136 227.682 224.349L228.648 227.42C228.699 227.584 228.864 227.691 229.045 227.678Z" fill="#636AE8"/>
<path opacity="0.2" d="M214.891 166.609C214.775 169.512 214.938 172.496 215.274 175.501C216.489 179.452 218.04 183.408 219.433 187.245C221.258 176.381 221.264 163.719 214.891 166.609Z" fill="black"/>
<path d="M199.916 222.055L191.441 219.45L188.069 228.821L195.147 231.008L199.916 222.055Z" fill="#CE7A63"/>
<path d="M195.71 190.273C194.503 177.575 190.056 159.027 194.932 153.604L223.9 156.236C223.9 156.236 218.19 179.955 215.756 191.67C213.228 203.851 198.836 225.3 198.836 225.3L189.694 222.424C189.694 222.425 192.643 204.764 195.71 190.273Z" fill="#636AE8"/>
<path opacity="0.3" d="M195.71 190.273C194.503 177.575 190.056 159.027 194.932 153.604L223.9 156.236C223.9 156.236 218.19 179.955 215.756 191.67C213.228 203.851 198.836 225.3 198.836 225.3L189.694 222.424C189.694 222.425 192.643 204.764 195.71 190.273Z" fill="black"/>
<path d="M188.945 222.547L199.292 225.831C199.463 225.885 199.647 225.819 199.734 225.671L201.655 222.432C201.778 222.225 201.659 221.957 201.416 221.891L189.986 218.786C189.783 218.731 189.577 218.842 189.523 219.036L188.686 222.097C188.635 222.286 188.749 222.485 188.945 222.547Z" fill="#636AE8"/>
<path d="M244.924 127.883L242.967 128.021C242.902 128.025 242.767 128.105 242.663 128.153L242.32 128.319C242.092 128.434 241.861 128.545 241.63 128.649C241.175 128.868 240.716 129.06 240.277 129.23C239.792 129.416 239.32 129.563 238.897 129.66L238.472 122.305C238.398 120.847 238.287 119.39 238.194 117.932C238.088 116.485 237.983 114.998 237.838 113.603L237.829 113.515C237.518 110.603 234.878 108.355 231.712 108.407C228.377 108.463 225.721 111.052 225.78 114.189C225.81 115.771 225.918 117.261 226.05 118.788C226.193 120.305 226.347 121.82 226.563 123.333L226.884 125.602L227.27 127.869C227.521 129.381 227.847 130.892 228.175 132.403L228.323 133.089C228.418 133.517 228.603 133.935 228.882 134.318C229.432 135.07 230.081 135.859 230.992 136.593C231.884 137.323 233.05 138.002 234.356 138.378C235.658 138.768 237.026 138.824 238.182 138.662C239.35 138.504 240.327 138.174 241.165 137.786C242.829 136.989 243.996 136.017 244.995 135.008C245.493 134.502 245.931 133.973 246.342 133.439C246.543 133.167 246.736 132.893 246.924 132.613L247.196 132.182L247.488 131.701C247.749 131.273 247.881 130.77 247.838 130.242C247.728 128.833 246.422 127.777 244.924 127.883Z" fill="#263238"/>
<path d="M235.718 107.572C240.345 111.219 240.765 123.726 240.765 123.726C238.684 127.753 233.722 128.423 229.493 129.037C229.493 129.037 224.107 125.644 222.941 116.741C222.083 110.194 226.357 100.195 235.718 107.572Z" fill="#636AE8"/>
<g opacity="0.2">
<path d="M235.718 107.572C240.345 111.219 240.765 123.726 240.765 123.726C238.684 127.753 233.722 128.423 229.493 129.037C229.493 129.037 224.107 125.644 222.941 116.741C222.083 110.194 226.357 100.195 235.718 107.572Z" fill="black"/>
</g>
<path d="M229.695 104.667C222.454 103.285 212.676 102.483 204.994 102.795C200.198 102.99 196.574 105.456 196.212 114.624C195.476 133.22 192.198 147.475 194.017 154.352C194.017 154.352 229.391 167.465 240.73 159.009C245.537 136.984 238.948 117.738 235.863 109.695C234.876 107.121 232.544 105.21 229.695 104.667Z" fill="#636AE8"/>
<path d="M238.486 229.667H230.985C230.712 229.667 230.49 229.845 230.452 230.096L229.598 235.678C229.509 236.257 230.038 236.805 230.668 236.795C233.284 236.753 234.543 236.609 237.842 236.609C239.871 236.609 242.956 236.807 245.758 236.807C248.499 236.807 248.71 234.2 247.543 233.965C242.311 232.906 241.364 231.446 239.602 230.053C239.284 229.802 238.886 229.667 238.486 229.667Z" fill="#263238"/>
<path d="M240.995 230.765C241.659 230.765 242.271 230.668 242.614 230.378C242.832 230.194 242.928 229.951 242.9 229.654C242.883 229.477 242.79 229.34 242.631 229.259C241.813 228.837 239.151 230.116 238.851 230.263C238.791 230.292 238.758 230.354 238.767 230.416C238.776 230.478 238.827 230.528 238.893 230.54C239.46 230.646 240.259 230.765 240.995 230.765ZM242.184 229.465C242.306 229.465 242.407 229.482 242.479 229.519C242.545 229.553 242.577 229.603 242.584 229.681C242.603 229.881 242.544 230.037 242.403 230.157C241.998 230.5 240.899 230.56 239.419 230.328C240.335 229.915 241.552 229.465 242.184 229.465Z" fill="#636AE8"/>
<path d="M238.922 230.543C238.944 230.543 238.966 230.538 238.987 230.53C239.783 230.192 241.358 228.837 241.234 228.125C241.205 227.957 241.078 227.748 240.64 227.706C240.317 227.675 240.021 227.761 239.764 227.962C238.924 228.62 238.771 230.31 238.764 230.382C238.76 230.434 238.785 230.485 238.831 230.515C238.858 230.534 238.89 230.543 238.922 230.543ZM240.513 227.997C240.544 227.997 240.576 227.998 240.608 228.001C240.896 228.029 240.915 228.137 240.922 228.173C240.996 228.601 239.927 229.666 239.116 230.128C239.194 229.636 239.417 228.622 239.967 228.191C240.133 228.061 240.312 227.997 240.513 227.997Z" fill="#636AE8"/>
<path d="M196.475 227.352L189.252 225.447C188.989 225.378 188.725 225.493 188.616 225.725L186.191 230.884C185.94 231.419 186.293 232.081 186.901 232.231C189.432 232.854 198.628 235.542 201.326 236.253C203.966 236.949 204.916 234.493 203.86 233.969C199.126 231.622 198.735 229.795 197.438 228.007C197.204 227.684 196.859 227.453 196.475 227.352Z" fill="#263238"/>
<path d="M198.573 229.045C199.212 229.213 199.829 229.275 200.243 229.083C200.506 228.961 200.668 228.751 200.725 228.458C200.759 228.283 200.71 228.128 200.58 228.009C199.914 227.396 196.983 227.951 196.652 228.017C196.586 228.029 196.537 228.08 196.528 228.143C196.519 228.205 196.553 228.266 196.613 228.295C197.129 228.541 197.865 228.858 198.573 229.045ZM200.091 228.095C200.209 228.127 200.301 228.168 200.36 228.222C200.413 228.271 200.43 228.327 200.414 228.404C200.375 228.602 200.273 228.737 200.102 228.817C199.614 229.043 198.539 228.823 197.18 228.224C198.181 228.059 199.482 227.935 200.091 228.095Z" fill="#636AE8"/>
<path d="M196.642 228.305C196.663 228.311 196.686 228.312 196.708 228.309C197.572 228.186 199.477 227.281 199.562 226.565C199.582 226.395 199.52 226.161 199.11 226.01C198.808 225.898 198.499 225.906 198.193 226.035C197.197 226.455 196.563 228.044 196.536 228.111C196.517 228.161 196.526 228.216 196.562 228.257C196.583 228.28 196.611 228.297 196.642 228.305ZM198.904 226.258C198.934 226.266 198.964 226.275 198.994 226.286C199.264 226.386 199.251 226.496 199.247 226.532C199.196 226.962 197.861 227.716 196.948 227.955C197.164 227.501 197.669 226.581 198.323 226.306C198.52 226.223 198.711 226.207 198.904 226.258Z" fill="#636AE8"/>
<path opacity="0.2" d="M194.513 135.449C194.18 138.605 193.879 141.492 193.687 144.081C197.097 144.561 202.969 143.057 212.33 134.157L209.704 132.756L194.513 135.449Z" fill="black"/>
<path d="M226.754 106.44C225.9 105.484 224.863 105.901 224.539 104.55C224.433 103.589 224.68 102.616 225.368 101.585L214.729 94.8678C214.551 98.7724 214.403 101.855 212.415 103.232C211.585 106.08 216.997 109.487 224.656 110.224C229.519 110.692 227.984 107.816 226.754 106.44Z" fill="#CE7A63"/>
<path opacity="0.2" d="M225.17 101.9L216.521 99.0091C218.419 102.526 222.267 104.707 224.516 104.102C224.522 103.384 224.726 102.658 225.17 101.9Z" fill="black"/>
<path d="M223.45 82.5572C217.711 80.8042 212.178 84.9228 212.8 90.0206C213.422 95.1184 213.97 98.5691 217.468 100.603C224.418 104.645 228.315 101.71 229.446 96.5428C230.465 91.8922 229.276 84.3369 223.45 82.5572Z" fill="#CE7A63"/>
<path d="M223.854 96.8474C224.088 96.8534 224.334 96.8428 224.594 96.8114C224.674 96.8021 224.732 96.7328 224.722 96.6568C224.711 96.5801 224.638 96.5228 224.557 96.5368C222.372 96.7941 221.16 95.4843 221.147 95.471C221.094 95.4123 221.002 95.405 220.939 95.455C220.878 95.5043 220.87 95.5923 220.922 95.6503C220.97 95.703 221.985 96.8008 223.854 96.8474Z" fill="#263238"/>
<path d="M222.342 91.463C222.363 91.9102 222.632 92.2602 222.943 92.2448C223.254 92.2295 223.489 91.8542 223.469 91.407C223.448 90.9597 223.179 90.6091 222.868 90.6251C222.557 90.6404 222.321 91.0157 222.342 91.463Z" fill="#263238"/>
<path d="M227.924 91.2697C227.945 91.717 228.214 92.0669 228.525 92.0516C228.836 92.0362 229.071 91.661 229.051 91.2137C229.03 90.7664 228.761 90.4165 228.45 90.4318C228.139 90.4472 227.903 90.8218 227.924 91.2697Z" fill="#263238"/>
<path d="M226.057 91.5789L225.938 95.3383C225.938 95.3383 227.216 95.6656 227.995 95.025C227.611 93.0907 226.057 91.5789 226.057 91.5789Z" fill="#BA4D3C"/>
<path d="M220.63 90.2852C220.584 90.2918 220.535 90.2878 220.489 90.2712C220.346 90.2198 220.275 90.0672 220.331 89.9312C220.891 88.5681 222.15 88.2948 222.203 88.2842C222.354 88.2528 222.502 88.3435 222.533 88.4855C222.564 88.6275 222.468 88.7674 222.318 88.7988C222.276 88.8074 221.298 89.03 220.851 90.1179C220.813 90.2098 220.727 90.2712 220.63 90.2852Z" fill="#263238"/>
<path d="M229.934 89.454C229.843 89.4506 229.757 89.4053 229.707 89.3273C229.078 88.3335 228.072 88.2802 228.029 88.2782C227.875 88.2715 227.756 88.1495 227.764 88.0049C227.771 87.8602 227.901 87.7476 228.055 87.7523C228.111 87.7556 229.401 87.8096 230.189 89.0547C230.268 89.1787 230.224 89.3407 230.091 89.416C230.041 89.444 229.987 89.456 229.934 89.454Z" fill="#263238"/>
<path d="M215.557 94.5098C215.557 94.5098 217.65 95.1877 217.335 92.2455C217.02 89.304 217.368 85.5054 217.368 85.5054C217.368 85.5054 231.29 86.8945 229.963 82.8938C229.229 80.6789 226.295 83.0145 226.295 83.0145C226.295 83.0145 227.594 80.4416 225.71 79.925C224.083 79.4791 223.469 81.904 223.469 81.904C223.469 81.904 213.087 79.2798 211.578 86.3352C210.069 93.3913 215.557 94.5098 215.557 94.5098Z" fill="#263238"/>
<path d="M210.656 79.871C204.183 85.2687 207.819 90.2552 210.213 92.5275C209.008 94.0165 206.109 97.8585 207.28 99.009C208.473 100.181 210.76 95.453 211.564 93.6646C211.702 93.7659 211.784 93.8206 211.784 93.8206C211.784 93.8206 213.361 87.2237 223.47 81.9046C223.47 81.9046 218.149 73.6234 210.656 79.871Z" fill="#636AE8"/>
<path d="M222.923 81.1741C222.617 80.8002 222.186 80.3229 221.646 79.837C221.007 79.6004 220.27 79.6031 219.446 80.0543C217.579 81.0761 218.308 82.4006 219.164 83.2804C219.92 82.7425 221.296 81.8533 222.923 81.1741Z" fill="#263238"/>
<path opacity="0.5" d="M208.003 82.8538C205.513 87.0337 208.253 90.6598 210.195 92.5108L211.853 90.4312C209.272 87.7456 208.312 84.3095 208.003 82.8538Z" fill="white"/>
<path d="M228.6 89.4926C227.738 89.4926 227.021 90.2265 226.866 91.193C226.505 90.9817 226.044 90.9804 225.681 91.1896C225.486 90.2251 224.586 89.4926 223.505 89.4926C222.329 89.4926 221.374 90.3605 221.301 91.4496H213.36V91.7076H221.301C221.374 92.7967 222.329 93.6646 223.505 93.6646C224.728 93.6646 225.723 92.7287 225.723 91.5783C225.723 91.5469 225.714 91.5176 225.713 91.4863C226.037 91.2223 226.52 91.2256 226.84 91.4963C226.84 91.5243 226.833 91.5503 226.833 91.5783C226.833 92.7287 227.625 93.6646 228.599 93.6646C229.572 93.6646 230.365 92.7287 230.365 91.5783C230.365 90.4278 229.573 89.4926 228.6 89.4926ZM223.506 93.4073C222.434 93.4073 221.563 92.5867 221.563 91.5789C221.563 90.5711 222.434 89.7512 223.506 89.7512C224.577 89.7512 225.449 90.5718 225.449 91.5789C225.449 92.5867 224.577 93.4073 223.506 93.4073ZM228.6 93.4073C227.777 93.4073 227.108 92.5867 227.108 91.5789C227.108 90.5711 227.777 89.7512 228.6 89.7512C229.422 89.7512 230.091 90.5718 230.091 91.5789C230.09 92.5867 229.422 93.4073 228.6 93.4073Z" fill="#636AE8"/>
<path opacity="0.5" d="M228.6 89.4926C227.738 89.4926 227.021 90.2265 226.866 91.193C226.505 90.9817 226.044 90.9804 225.681 91.1896C225.486 90.2251 224.586 89.4926 223.505 89.4926C222.329 89.4926 221.374 90.3605 221.301 91.4496H213.36V91.7076H221.301C221.374 92.7967 222.329 93.6646 223.505 93.6646C224.728 93.6646 225.723 92.7287 225.723 91.5783C225.723 91.5469 225.714 91.5176 225.713 91.4863C226.037 91.2223 226.52 91.2256 226.84 91.4963C226.84 91.5243 226.833 91.5503 226.833 91.5783C226.833 92.7287 227.625 93.6646 228.599 93.6646C229.572 93.6646 230.365 92.7287 230.365 91.5783C230.365 90.4278 229.573 89.4926 228.6 89.4926ZM223.506 93.4073C222.434 93.4073 221.563 92.5867 221.563 91.5789C221.563 90.5711 222.434 89.7512 223.506 89.7512C224.577 89.7512 225.449 90.5718 225.449 91.5789C225.449 92.5867 224.577 93.4073 223.506 93.4073ZM228.6 93.4073C227.777 93.4073 227.108 92.5867 227.108 91.5789C227.108 90.5711 227.777 89.7512 228.6 89.7512C229.422 89.7512 230.091 90.5718 230.091 91.5789C230.09 92.5867 229.422 93.4073 228.6 93.4073Z" fill="white"/>
<path d="M211.007 94.3625C211.7 95.4783 212.88 96.1855 213.981 96.4334C215.637 96.8067 216.417 95.3976 215.915 93.9579C215.464 92.6621 214.059 90.9064 212.416 91.1744C210.797 91.439 210.215 93.0867 211.007 94.3625Z" fill="#CE7A63"/>
<path d="M212.267 103.85C210.443 102.055 207.347 101.793 204.836 102.345V102.799C207.154 103 210.959 104.597 211.758 114.412C212.814 127.389 197.921 143.061 193.296 147.445C192.461 148.236 191.956 149.278 191.867 150.39L191.687 152.636C191.598 153.74 192.961 154.402 193.866 153.694C200.141 148.783 216.521 134.308 216.521 117.005C216.521 109.948 214.479 106.028 212.267 103.85Z" fill="#636AE8"/>
<path opacity="0.5" d="M212.267 103.85C210.443 102.055 207.347 101.793 204.836 102.345V102.799C207.154 103 210.959 104.597 211.758 114.412C212.814 127.389 197.921 143.061 193.296 147.445C192.461 148.236 191.956 149.278 191.867 150.39L191.687 152.636C191.598 153.74 192.961 154.402 193.866 153.694C200.141 148.783 216.521 134.308 216.521 117.005C216.521 109.948 214.479 106.028 212.267 103.85Z" fill="black"/>
<path d="M213.856 130.478C213.353 128.977 211.653 128.144 210.058 128.617L209.916 128.659C208.208 129.165 206.403 129.735 204.661 130.216C202.91 130.707 201.173 131.163 199.487 131.502C198.646 131.673 197.824 131.829 197.034 131.927C196.518 131.992 196.019 132.035 195.554 132.058C195.618 131.639 195.697 131.212 195.806 130.768C195.966 130.094 196.202 129.393 196.466 128.689C196.716 127.981 197.024 127.262 197.362 126.543C198.04 125.107 198.837 123.65 199.72 122.223C200.154 121.505 200.627 120.801 201.093 120.099L201.808 119.066L202.161 118.566L202.463 118.15L202.685 117.846C204.471 115.38 203.923 112.002 201.378 110.158C198.738 108.247 194.952 108.711 192.919 111.194L192.333 111.911L191.823 112.561C191.493 112.993 191.181 113.431 190.873 113.869C190.253 114.742 189.688 115.643 189.136 116.557C188.582 117.47 188.082 118.417 187.595 119.38C187.106 120.341 186.659 121.333 186.261 122.359C185.445 124.401 184.792 126.574 184.454 128.923C184.294 130.1 184.169 131.307 184.221 132.572C184.264 133.832 184.423 135.13 184.743 136.433L184.815 136.729C184.979 137.382 185.295 138.012 185.771 138.572C186.569 139.51 187.614 140.266 188.633 140.747C189.657 141.239 190.636 141.484 191.507 141.61C193.256 141.853 194.655 141.723 195.92 141.537C197.184 141.348 198.31 141.047 199.377 140.709C200.442 140.369 201.45 140 202.419 139.591C204.352 138.767 206.153 137.847 207.881 136.845C209.616 135.827 211.235 134.79 212.87 133.55C213.806 132.835 214.24 131.625 213.856 130.478Z" fill="#263238"/>
<path d="M199.654 104.179C189.994 108.965 185.786 119.759 185.786 119.759C187.67 123.184 196.939 125.918 201.266 124.927C201.266 124.927 207.65 118.89 208.544 112.534C209.372 106.649 205.314 101.373 199.654 104.179Z" fill="#636AE8"/>
<g opacity="0.2">
<path d="M199.654 104.179C189.994 108.965 185.786 119.759 185.786 119.759C187.67 123.184 196.939 125.918 201.266 124.927C201.266 124.927 207.65 118.89 208.544 112.534C209.372 106.649 205.314 101.373 199.654 104.179Z" fill="black"/>
</g>
<path d="M210.305 130.174L211.705 132.047C214.971 134.13 217.092 129.718 217.092 129.718L219.023 127.983C219.677 127.395 219.721 126.371 219.127 125.562L217.633 123.531C216.953 122.606 215.69 122.296 214.832 122.846L212.907 124.08C212.347 124.439 211.89 124.923 211.577 125.488L210.156 128.056C209.781 128.733 209.839 129.55 210.305 130.174Z" fill="#CE7A63"/>
<path d="M241.728 131.209L241.92 127.85C241.997 126.51 241.893 125.168 241.593 123.855C240.718 120.01 238.164 112.061 231.178 105.211C230.869 104.907 230.463 104.701 230.025 104.614L226.4 103.898C226.115 103.842 225.943 104.183 226.171 104.352C229.399 106.744 239.434 115.352 241.476 131.209H241.728Z" fill="#636AE8"/>
<path opacity="0.5" d="M241.728 131.209L241.92 127.85C241.997 126.51 241.893 125.168 241.593 123.855C240.718 120.01 238.164 112.061 231.178 105.211C230.869 104.907 230.463 104.701 230.025 104.614L226.4 103.898C226.115 103.842 225.943 104.183 226.171 104.352C229.399 106.744 239.434 115.352 241.476 131.209H241.728Z" fill="black"/>
<path d="M247.758 130.174L246.358 132.047C243.092 134.13 240.972 129.718 240.972 129.718L239.041 127.983C238.386 127.395 238.342 126.371 238.937 125.562L240.43 123.531C241.11 122.606 242.374 122.296 243.231 122.846L245.156 124.08C245.716 124.439 246.173 124.923 246.486 125.488L247.908 128.056C248.283 128.733 248.225 129.55 247.758 130.174Z" fill="#CE7A63"/>
<path d="M262.886 89.8678C262.886 89.8678 252.567 88.8133 255.998 95.3775C255.998 95.3775 248.057 96.7053 253.742 103.066C253.742 103.066 246.394 107.675 252.098 110.608C252.098 110.608 247.118 120.041 257.095 116.545C257.095 116.545 261.522 123.547 267.531 117.222C267.531 117.222 277.239 122.889 277.594 116.545C277.594 116.545 285.471 115.751 278.143 109.556C278.143 109.556 281.206 107.546 277.657 103.066C277.657 103.066 281.791 100.451 276.26 97.0479C276.26 97.0479 280.287 93.0579 274.042 91.0463C274.042 91.0463 275.229 86.1951 268.769 88.7767C268.769 88.7767 267.992 84.1188 262.886 89.8678Z" fill="#263238"/>
<path d="M250.695 128.047C247.106 130.302 246.033 134.148 246.365 138.01C246.426 138.732 247.634 138.755 247.571 138.026C247.278 134.609 248.067 131.06 251.29 129.036C251.932 128.632 251.343 127.64 250.695 128.047Z" fill="#636AE8"/>
<g opacity="0.2">
<path d="M250.695 128.047C247.106 130.302 246.033 134.148 246.365 138.01C246.426 138.732 247.634 138.755 247.571 138.026C247.278 134.609 248.067 131.06 251.29 129.036C251.932 128.632 251.343 127.64 250.695 128.047Z" fill="black"/>
</g>
<path d="M258.95 114.814L268.164 114.929C271.985 114.977 275.165 117.739 275.48 121.32C275.482 121.337 275.483 121.354 275.485 121.37C275.878 126.236 275.665 136.027 275.208 140.888C275.189 141.082 275.159 141.321 275.122 141.59C274.631 145.074 271.435 147.657 267.7 147.61L254.811 147.448C251.667 147.409 248.846 145.518 247.899 142.698C247.86 142.58 247.828 142.471 247.806 142.375C247.245 139.913 247.113 134.695 247.948 132.303C248.414 130.971 250.955 129.074 251.42 127.741C252.139 125.682 250.633 121.061 251.543 119.069C251.845 118.408 252.89 117.427 253.916 116.569C255.302 115.414 257.099 114.79 258.95 114.814Z" fill="#636AE8"/>
<path opacity="0.5" d="M258.95 114.814L268.164 114.929C271.985 114.977 275.165 117.739 275.48 121.32C275.482 121.337 275.483 121.354 275.485 121.37C275.878 126.236 275.665 136.027 275.208 140.888C275.189 141.082 275.159 141.321 275.122 141.59C274.631 145.074 271.435 147.657 267.7 147.61L254.811 147.448C251.667 147.409 248.846 145.518 247.899 142.698C247.86 142.58 247.828 142.471 247.806 142.375C247.245 139.913 247.113 134.695 247.948 132.303C248.414 130.971 250.955 129.074 251.42 127.741C252.139 125.682 250.633 121.061 251.543 119.069C251.845 118.408 252.89 117.427 253.916 116.569C255.302 115.414 257.099 114.79 258.95 114.814Z" fill="black"/>
<path d="M255.268 116.256C255.187 116.141 255.037 116.028 254.851 115.916C254.525 116.111 254.211 116.327 253.919 116.571C252.892 117.428 251.848 118.41 251.546 119.071C250.636 121.062 252.142 125.683 251.423 127.743C250.957 129.075 248.416 130.972 247.951 132.304C247.115 134.697 247.246 139.914 247.808 142.376C247.83 142.473 247.861 142.581 247.901 142.699C248.725 145.152 250.967 146.901 253.606 147.341C253.895 147.211 254.134 147.071 254.293 146.922C255.391 145.897 256.655 118.205 255.268 116.256Z" fill="#636AE8"/>
<path opacity="0.2" d="M255.268 116.256C255.187 116.141 255.037 116.028 254.851 115.916C254.525 116.111 254.211 116.327 253.919 116.571C252.892 117.428 251.848 118.41 251.546 119.071C250.636 121.062 252.142 125.683 251.423 127.743C250.957 129.075 248.416 130.972 247.951 132.304C247.115 134.697 247.246 139.914 247.808 142.376C247.83 142.473 247.861 142.581 247.901 142.699C248.725 145.152 250.967 146.901 253.606 147.341C253.895 147.211 254.134 147.071 254.293 146.922C255.391 145.897 256.655 118.205 255.268 116.256Z" fill="white"/>
<path opacity="0.2" d="M247.382 136.117C247.288 138.388 247.468 140.886 247.808 142.376C247.83 142.473 247.862 142.581 247.902 142.699C248.725 145.152 250.968 146.901 253.606 147.341C253.896 147.211 254.134 147.071 254.294 146.922C254.73 146.515 255.193 141.888 255.505 136.34C252.099 137.552 248.622 136.557 247.382 136.117Z" fill="black"/>
<path d="M265.238 232.491H269.731L271.571 222.703H267.078L265.238 232.491Z" fill="#FFB573"/>
<path d="M270.079 232.002H265.031C264.848 232.002 264.698 232.122 264.673 232.291L264.097 236.047C264.038 236.437 264.394 236.806 264.818 236.799C266.578 236.771 267.426 236.673 269.646 236.673C271.012 236.673 274.934 236.807 276.82 236.807C278.665 236.807 278.807 235.052 278.021 234.894C274.501 234.181 272.017 233.199 270.831 232.261C270.616 232.093 270.348 232.002 270.079 232.002Z" fill="#263238"/>
<g opacity="0.2">
<path d="M271.568 222.706L270.621 227.751H266.126L267.073 222.706H271.568Z" fill="black"/>
</g>
<path d="M277.522 137.342C277.522 137.342 281.067 169.901 280.772 182.79C280.466 196.197 271.601 226.774 271.601 226.774H265.526C265.526 226.774 270.13 196.98 269.593 183.813C269.007 169.459 264.16 137.341 264.16 137.341H277.522V137.342Z" fill="#263238"/>
<path d="M264.998 226.979H272.127L272.649 224.84L264.666 224.578L264.998 226.979Z" fill="#636AE8"/>
<path opacity="0.6" d="M269.651 145.443C274.133 153.925 270.551 169.397 268.966 175.154C268.153 166.508 266.782 155.94 265.714 148.179C266.393 143.788 267.584 141.532 269.651 145.443Z" fill="black"/>
<path d="M226.084 194.688L227.599 198.667L237.951 196.829L236.437 192.849L226.084 194.688Z" fill="#FFB573"/>
<path d="M228.821 198.794L228.468 194.057C228.455 193.885 228.316 193.738 228.134 193.703L224.074 192.939C223.652 192.86 223.283 193.173 223.32 193.571C223.474 195.224 223.637 196.025 223.792 198.108C223.887 199.39 224.019 203.063 224.15 204.833C224.279 206.564 226.166 206.801 226.282 206.074C226.798 202.812 227.676 200.54 228.596 199.483C228.761 199.293 228.84 199.047 228.821 198.794Z" fill="#263238"/>
<g opacity="0.2">
<path d="M237.949 196.829L232.613 197.777L231.098 193.796L236.433 192.847L237.949 196.829Z" fill="black"/>
</g>
<path d="M272.475 137.342C272.475 137.342 267.495 170.941 264.113 183.582C260.596 196.732 234.392 197.854 234.392 197.854L231.725 192.719C231.725 192.719 247.023 188.889 253.629 180.235C255.341 171.752 255.322 158.041 256.353 148.409C256.698 145.186 257.388 142.419 257.991 140.458C258.595 138.497 259.661 136.826 259.661 136.826L272.475 137.342Z" fill="#263238"/>
<path d="M231.415 192.24L233.756 198.574L236.173 198.598L233.826 191.452L231.415 192.24Z" fill="#636AE8"/>
<path d="M228.148 200.333C228.179 200.753 228.277 201.143 228.502 201.372C228.645 201.517 228.825 201.587 229.037 201.581C229.164 201.578 229.258 201.525 229.309 201.428C229.574 200.929 228.528 199.196 228.408 199C228.384 198.962 228.339 198.938 228.294 198.941C228.25 198.944 228.216 198.974 228.211 199.016C228.161 199.369 228.113 199.869 228.148 200.333ZM229.14 201.137C229.145 201.214 229.138 201.277 229.115 201.321C229.093 201.361 229.059 201.379 229.004 201.381C228.86 201.385 228.745 201.341 228.652 201.247C228.386 200.977 228.291 200.281 228.388 199.356C228.729 199.951 229.11 200.737 229.14 201.137Z" fill="#636AE8"/>
<path d="M228.21 199.035C228.211 199.049 228.215 199.063 228.223 199.076C228.504 199.592 229.554 200.641 230.06 200.591C230.18 200.58 230.325 200.508 230.334 200.233C230.342 200.03 230.266 199.84 230.108 199.67C229.595 199.113 228.371 198.948 228.319 198.941C228.28 198.936 228.245 198.95 228.226 198.978C228.214 198.994 228.209 199.014 228.21 199.035ZM230.118 200.141C230.12 200.161 230.12 200.181 230.12 200.201C230.113 200.383 230.036 200.39 230.011 200.393C229.707 200.422 228.889 199.705 228.518 199.174C228.876 199.243 229.617 199.424 229.953 199.789C230.055 199.899 230.109 200.015 230.118 200.141Z" fill="#636AE8"/>
<path d="M271.765 232.741C272.212 232.741 272.624 232.675 272.855 232.481C273.002 232.357 273.066 232.193 273.047 231.993C273.036 231.874 272.973 231.782 272.866 231.727C272.317 231.443 270.525 232.304 270.323 232.403C270.282 232.423 270.26 232.464 270.267 232.507C270.273 232.549 270.307 232.583 270.352 232.591C270.733 232.661 271.271 232.741 271.765 232.741ZM272.566 231.866C272.648 231.866 272.716 231.877 272.764 231.902C272.808 231.925 272.83 231.958 272.835 232.011C272.847 232.146 272.808 232.251 272.712 232.331C272.439 232.562 271.7 232.602 270.704 232.447C271.322 232.169 272.141 231.866 272.566 231.866Z" fill="#636AE8"/>
<path d="M270.372 232.591C270.387 232.591 270.402 232.589 270.416 232.583C270.952 232.355 272.011 231.443 271.928 230.965C271.908 230.852 271.823 230.71 271.529 230.682C271.311 230.662 271.112 230.72 270.939 230.855C270.374 231.297 270.27 232.435 270.266 232.483C270.263 232.519 270.28 232.553 270.311 232.573C270.329 232.585 270.35 232.591 270.372 232.591ZM271.443 230.878C271.463 230.878 271.485 230.879 271.507 230.881C271.701 230.9 271.714 230.973 271.718 230.997C271.767 231.284 271.048 232.001 270.503 232.313C270.555 231.981 270.705 231.299 271.075 231.009C271.187 230.921 271.308 230.878 271.443 230.878Z" fill="#636AE8"/>
<path d="M281.639 117.426C281.614 117.909 281.599 118.503 281.585 119.052C281.573 119.612 281.57 120.175 281.578 120.738C281.599 121.865 281.62 122.994 281.694 124.118C281.83 126.365 282.094 128.597 282.535 130.771L282.717 131.58L282.808 131.985C282.827 132.075 282.813 132.04 282.812 132.067C282.803 132.089 282.766 132.146 282.975 132.299C283.396 132.597 284.459 132.836 285.526 132.905C287.713 133.052 290.211 132.832 292.567 132.535L293.352 134.983C290.876 135.953 288.399 136.665 285.555 136.891C284.13 136.956 282.601 137.009 280.765 136.225C280.311 136.019 279.84 135.735 279.408 135.355C278.978 134.976 278.597 134.494 278.333 133.976C278.271 133.846 278.207 133.715 278.155 133.584L278.081 133.386L278.025 133.222L277.884 132.768L277.603 131.859C276.91 129.427 276.486 126.962 276.243 124.497C276.131 123.264 276.055 122.03 276.045 120.793C276.039 120.175 276.042 119.557 276.058 118.935C276.069 118.302 276.105 117.716 276.165 117.019L281.639 117.426Z" fill="#FFB573"/>
<path d="M291.614 132.792L295.125 131.643L293.681 135.721C293.681 135.721 290.844 136.211 289.679 134.837L289.83 134.445C290.131 133.67 290.785 133.064 291.614 132.792Z" fill="#FFB573"/>
<path d="M298.422 132.157L297.773 135.709L293.681 135.721L295.125 131.643L298.422 132.157Z" fill="#FFB573"/>
<path d="M280.534 112.383C282.293 113.084 282.424 120.355 282.424 120.355L276.856 122.858C276.856 122.858 273.179 115.014 274.894 113.322C276.681 111.561 277.966 111.359 280.534 112.383Z" fill="#636AE8"/>
<path opacity="0.7" d="M280.534 112.383C282.293 113.084 282.424 120.355 282.424 120.355L276.856 122.858C276.856 122.858 273.179 115.014 274.894 113.322C276.681 111.561 277.966 111.359 280.534 112.383Z" fill="white"/>
<path opacity="0.2" d="M280.017 113.783L280.7 121.103L277.659 122.667L280.017 113.783Z" fill="black"/>
<path d="M280.152 113.723C280.349 116.341 280.076 122.565 277.522 137.342H259.273C259.566 130.641 259.135 127.348 255.967 114.44C255.721 113.438 256.309 112.422 257.339 112.08C258.958 111.543 261.443 110.855 263.787 110.748C266.858 110.609 269.374 110.517 272.073 110.748C274.236 110.934 276.575 111.293 278.077 111.547C279.219 111.741 280.07 112.635 280.152 113.723Z" fill="#636AE8"/>
<path opacity="0.9" d="M263.788 110.748C263.234 110.774 262.672 110.833 262.116 110.914C261.88 111.651 261.658 113.639 264.871 115.88C264.871 115.88 265.989 113.471 271.832 115.364C271.832 115.364 274.2 113.24 275.572 114.904C275.572 114.904 275.637 112.471 273.54 110.898C273.05 110.842 272.558 110.791 272.074 110.749C269.374 110.517 266.859 110.61 263.788 110.748Z" fill="white"/>
<path d="M263.79 110.751C266.862 110.609 269.376 110.516 272.076 110.751C272.256 110.768 272.436 110.784 272.616 110.8C273.278 111.98 273.446 112.245 271.861 114.904C271.861 114.904 264.592 113.7 262.699 110.817C263.059 110.789 263.425 110.768 263.79 110.751Z" fill="#FFB573"/>
<path d="M264.609 101.972C265.132 104.48 265.654 109.075 263.788 110.749C263.788 110.749 264.517 113.293 269.471 113.293C274.918 113.293 272.074 110.75 272.074 110.75C269.101 110.082 269.177 108.007 269.695 106.058L264.609 101.972Z" fill="#FFB573"/>
<path opacity="0.2" d="M266.683 103.639L269.693 106.055C269.569 106.516 269.472 106.984 269.438 107.439C268.302 107.284 266.741 106.112 266.621 104.993C266.561 104.435 266.586 103.899 266.683 103.639Z" fill="black"/>
<path d="M261.733 97.6251C262.749 101.71 263.087 103.459 265.686 105.222C269.596 107.875 274.707 105.808 275.008 101.52C275.28 97.6604 273.572 91.6295 268.98 90.6743C264.455 89.7345 260.716 93.5411 261.733 97.6251Z" fill="#FFB573"/>
<path d="M269.02 89.8678C270.785 90.1544 273.022 92.6194 273.494 93.6252C270.846 93.1659 263.56 95.2882 263.56 95.2882C263.56 95.2882 260.298 94.9443 262.127 92.578C263.956 90.2124 269.02 89.8678 269.02 89.8678Z" fill="#263238"/>
<path d="M269.367 97.6005C269.428 97.9365 269.667 98.1784 269.9 98.1411C270.133 98.1038 270.273 97.8011 270.212 97.4645C270.151 97.1286 269.912 96.8866 269.679 96.924C269.446 96.962 269.306 97.2646 269.367 97.6005Z" fill="#263238"/>
<path d="M273.228 96.9539C273.289 97.2898 273.528 97.5318 273.761 97.4944C273.995 97.4571 274.134 97.1545 274.073 96.8179C274.012 96.482 273.774 96.24 273.541 96.2773C273.307 96.3153 273.167 96.6179 273.228 96.9539Z" fill="#263238"/>
<path d="M273.44 96.3127L274.257 95.9428C274.257 95.9428 273.93 96.644 273.44 96.3127Z" fill="#263238"/>
<path d="M272.187 97.7591C272.187 97.7591 273.055 99.1089 273.848 99.7001C273.451 100.19 272.615 100.129 272.615 100.129L272.187 97.7591Z" fill="#ED893E"/>
<path d="M271.614 102.09C271.783 102.088 271.961 102.073 272.147 102.043C272.205 102.034 272.244 101.982 272.234 101.928C272.224 101.873 272.165 101.837 272.112 101.846C270.539 102.097 269.625 101.184 269.616 101.174C269.576 101.134 269.509 101.131 269.466 101.169C269.423 101.206 269.42 101.27 269.46 101.31C269.496 101.347 270.264 102.11 271.614 102.09Z" fill="#263238"/>
<path d="M267.17 97.0865C267.26 97.0852 267.342 97.0305 267.369 96.9452C267.66 96.06 268.862 95.6821 268.874 95.6788C268.986 95.6448 269.047 95.5315 269.011 95.4262C268.975 95.3215 268.855 95.2635 268.743 95.2975C268.684 95.3155 267.318 95.7454 266.963 96.8266C266.928 96.9326 266.991 97.0445 267.104 97.0772C267.126 97.0839 267.148 97.0865 267.17 97.0865Z" fill="#263238"/>
<path d="M273.802 95.4555C273.874 95.4648 273.95 95.4388 273.998 95.3809C274.071 95.2942 274.055 95.1682 273.962 95.0996C273.039 94.4137 272.103 94.6976 272.064 94.7103C271.953 94.7456 271.893 94.8589 271.93 94.9643C271.967 95.0682 272.087 95.1256 272.199 95.0902C272.229 95.0809 272.96 94.8656 273.698 95.4142C273.73 95.4368 273.765 95.4508 273.802 95.4555Z" fill="#263238"/>
<path d="M269.579 96.9599L270.395 96.59C270.395 96.59 270.069 97.2905 269.579 96.9599Z" fill="#263238"/>
<path d="M275.468 122.819L272.663 116.778C272.663 116.778 274.845 119.605 275.616 118.514C276.265 117.596 273.247 116.26 272.27 115.858C272.084 115.781 271.874 115.803 271.71 115.917C270.647 116.648 266.822 119.467 268.563 121.054C270.576 122.89 271.599 116.467 271.599 116.467L271.104 123.55L272.009 123.882L272.12 116.815L274.82 123.537L275.468 122.819ZM275.181 118.242C274.851 118.622 273.286 116.76 273.286 116.76C273.286 116.76 275.511 117.862 275.181 118.242ZM268.92 120.417C268.156 119.213 271.02 116.934 271.02 116.934C271.02 116.934 269.685 121.621 268.92 120.417Z" fill="#263238"/>
<path d="M276.29 96.884C276.068 95.7528 275.107 94.9683 274.15 95.1349C273.303 95.2822 272.739 96.1268 272.775 97.1033C272.378 96.9573 271.925 97.0353 271.609 97.3026C271.23 96.3874 270.203 95.8215 269.141 96.0068C267.984 96.2081 267.213 97.2252 267.352 98.3084L262.554 99.1436L262.57 99.4035L267.402 98.5623C267.684 99.6208 268.792 100.311 269.948 100.109C271.15 99.9001 271.947 98.8096 271.725 97.6785C271.718 97.6478 271.705 97.6205 271.697 97.5898C271.966 97.2752 272.44 97.1952 272.807 97.4065C272.812 97.4339 272.811 97.4605 272.817 97.4885C273.039 98.6197 273.999 99.4042 274.957 99.2376C275.915 99.0709 276.513 98.0151 276.29 96.884ZM269.899 99.8555C268.845 100.039 267.829 99.3815 267.634 98.3904C267.439 97.3992 268.138 96.4434 269.192 96.2601C270.245 96.0768 271.261 96.734 271.456 97.7252C271.65 98.7163 270.952 99.6722 269.899 99.8555ZM274.908 98.9836C274.099 99.1242 273.282 98.4324 273.087 97.4412C272.892 96.45 273.391 95.5289 274.201 95.3882C275.009 95.2476 275.825 95.9395 276.021 96.9306C276.215 97.9218 275.716 98.843 274.908 98.9836Z" fill="#636AE8"/>
<path d="M263.529 93.9405C265.102 95.0743 264.413 99.1889 262.461 100.451C259.412 99.7628 258.833 90.5564 263.529 93.9405Z" fill="#263238"/>
<path d="M261.229 101.6C261.686 102.356 262.472 102.842 263.208 103.02C264.315 103.287 264.844 102.35 264.516 101.379C264.221 100.505 263.29 99.3135 262.189 99.4762C261.104 99.6375 260.705 100.737 261.229 101.6Z" fill="#FFB573"/>
<path d="M297.268 132.085L291.194 126.372C289.273 124.565 288.194 122.115 288.194 119.56H282.157C282.157 122.115 281.078 124.565 279.158 126.372L273.084 132.085H297.268Z" fill="#263238"/>
<path opacity="0.2" d="M295.167 132.085C292.663 131.766 290.337 126.428 289.199 126.556C288.061 126.684 291.944 131.237 290.366 131.235C288.788 131.234 287.864 129.49 287.212 129.554C286.56 129.618 285.598 131.489 284.501 131.359C283.403 131.229 284.126 128.712 283.543 128.647C282.96 128.582 281.928 131.775 280.659 131.419C279.39 131.063 282.791 126.001 282.106 125.81C281.42 125.618 279.874 127.643 278.602 129.965C277.962 131.134 277.044 131.746 276.291 132.066L295.167 132.085Z" fill="white"/>
<path opacity="0.2" d="M285.177 125.098C284.322 124.985 283.714 127.153 284.571 127.433C285.429 127.714 286.031 125.212 285.177 125.098Z" fill="white"/>
<path d="M281.822 119.721C281.822 119.721 281.55 118.842 283.692 118.842C285.834 118.842 288.55 118.643 288.55 119.721C288.55 120.8 288.338 120.913 288.7 121.651C289.063 122.389 287.524 121.594 287.343 120.658C287.162 119.721 286.226 121.112 286.377 122.531C286.528 123.95 285.329 124.092 285.219 121.992C285.109 119.891 283.993 119.891 283.963 120.743C283.933 121.594 283.148 121.85 282.756 120.941C282.364 120.033 282.763 122.849 282.021 122.619C281.279 122.39 281.791 120.97 281.822 119.721Z" fill="#636AE8"/>
<path opacity="0.2" d="M287.901 119.253C287.878 119.132 287.743 119.038 287.566 118.968C286.581 118.766 285.026 118.842 283.692 118.842C283.309 118.842 283.005 118.871 282.762 118.918C282.545 119.007 282.271 119.157 282.289 119.339C282.319 119.636 287.976 119.665 287.901 119.253Z" fill="black"/>
<path d="M300.876 131.74H267.6V133.639H300.876V131.74Z" fill="#636AE8"/>
<path opacity="0.5" d="M300.876 131.74H267.6V133.639H300.876V131.74Z" fill="white"/>
<path opacity="0.3" d="M284.238 131.74H267.6V133.639H284.238V131.74Z" fill="black"/>
<path d="M258.588 111.901C261.028 113.508 268.176 120.197 255.318 138.11C255.106 138.405 254.97 138.747 254.929 139.102L254.739 140.792C254.695 141.183 255.229 141.378 255.472 141.058C258.042 137.668 265.273 127.567 265.273 121.206C265.271 114.806 262.87 112.203 261.352 111.197C260.714 110.774 259.882 110.706 259.161 110.988L258.666 111.181C258.344 111.307 258.302 111.714 258.588 111.901Z" fill="#636AE8"/>
<path opacity="0.5" d="M258.588 111.901C261.028 113.508 268.176 120.197 255.318 138.11C255.106 138.405 254.97 138.747 254.929 139.102L254.739 140.792C254.695 141.183 255.229 141.378 255.472 141.058C258.042 137.668 265.273 127.567 265.273 121.206C265.271 114.806 262.87 112.203 261.352 111.197C260.714 110.774 259.882 110.706 259.161 110.988L258.666 111.181C258.344 111.307 258.302 111.714 258.588 111.901Z" fill="black"/>
<path d="M266.238 132.227C265.034 131.987 263.845 131.682 262.836 131.319C262.389 131.157 261.978 130.96 261.737 130.793L261.718 130.684C261.325 128.508 261.215 126.17 261.199 123.831C261.197 122.658 261.224 121.478 261.266 120.298C261.301 119.129 261.386 117.911 261.462 116.799L256 116.293C255.842 117.621 255.79 118.85 255.737 120.129C255.7 121.398 255.699 122.668 255.757 123.945C255.878 126.498 256.143 129.07 256.85 131.688L256.914 131.933L256.946 132.055C256.977 132.161 257.011 132.267 257.048 132.37C257.2 132.775 257.422 133.139 257.653 133.413C258.124 133.978 258.601 134.294 259.036 134.55C259.911 135.034 260.675 135.261 261.416 135.459C262.89 135.84 264.272 135.981 265.642 136.098C268.382 136.29 271.028 136.227 273.719 135.98L273.735 133.423C271.22 133.092 268.655 132.72 266.238 132.227Z" fill="#FFB573"/>
<path d="M254.147 113.229C253.233 114.808 254.156 121.778 254.156 121.778L262.805 122.816C262.805 122.816 263.363 115.86 261.566 114.246C259.696 112.564 255.189 111.426 254.147 113.229Z" fill="#636AE8"/>
<g opacity="0.7">
<path d="M254.147 113.229C253.233 114.808 254.156 121.778 254.156 121.778L262.805 122.816C262.805 122.816 263.363 115.86 261.566 114.246C259.696 112.564 255.189 111.426 254.147 113.229Z" fill="white"/>
</g>
<path d="M271.935 133.704L276.261 131.631L275.223 135.817C275.223 135.817 272.445 136.551 271.15 135.285L271.935 133.704Z" fill="#FFB573"/>
<path d="M279.968 132.313L278.896 135.773L275.222 135.817L276.26 131.631L279.968 132.313Z" fill="#FFB573"/>
<path d="M274.409 111.255C275.563 112.684 279.023 117.549 279.283 124.76C279.289 124.911 279.517 124.932 279.55 124.784L280.188 121.976C280.2 121.922 280.206 121.871 280.208 121.817C280.228 121.179 280.203 117.044 276.653 111.205C276.614 111.141 276.543 111.096 276.465 111.087L274.637 110.885C274.419 110.86 274.277 111.091 274.409 111.255Z" fill="#636AE8"/>
<path opacity="0.5" d="M274.409 111.255C275.563 112.684 279.023 117.549 279.283 124.76C279.289 124.911 279.517 124.932 279.55 124.784L280.188 121.976C280.2 121.922 280.206 121.871 280.208 121.817C280.228 121.179 280.203 117.044 276.653 111.205C276.614 111.141 276.543 111.096 276.465 111.087L274.637 110.885C274.419 110.86 274.277 111.091 274.409 111.255Z" fill="black"/>
<path d="M159.599 123.333C160.37 116.776 160.719 113.3 158.144 109.553C155.568 105.805 154.914 84.2982 138.267 87.8449C134.627 88.6208 129.436 89.3193 131.513 100.372C133.589 111.425 126.913 109.713 130.787 115.414C134.661 121.114 124.394 127.666 129.553 133.901C134.713 140.135 125.247 144.524 128.677 147.621C128.677 147.621 130.246 146.909 132.746 146.14C132.409 145.585 132.196 144.61 132.862 142.975C134.097 139.942 136.155 136.267 133.685 132.813C133.685 132.813 137.043 133.876 135.501 140.845C134.997 143.125 135.034 144.546 135.309 145.429C136.52 145.131 137.851 144.858 139.259 144.649C138.871 144.003 138.577 143.183 138.647 142.212C138.83 139.683 139.996 138.646 139.859 136.616C139.859 136.616 141.094 139.555 140.476 141.361C140.169 142.259 140.212 143.459 140.884 144.44C144.382 144.071 148.243 144.166 151.912 145.305C162.703 148.653 165.737 139.893 165.737 139.893C165.737 139.893 158.827 129.89 159.599 123.333Z" fill="#263238"/>
<path d="M159.323 116.972L159.264 117.348L159.204 117.849C159.168 118.192 159.154 118.543 159.147 118.895C159.131 119.599 159.186 120.306 159.284 121C159.501 122.388 159.94 123.723 160.631 124.954C160.974 125.571 161.388 126.156 161.85 126.719C162.075 127.005 162.33 127.273 162.584 127.543L162.984 127.937L163.339 128.313C163.793 128.81 164.251 129.196 164.61 129.464C164.793 129.59 164.949 129.702 165.115 129.782C165.2 129.828 165.287 129.858 165.385 129.888L165.53 129.924C165.554 129.931 165.578 129.938 165.598 129.946C165.607 129.95 165.618 129.954 165.623 129.962C165.622 129.976 165.65 129.961 165.598 130.024C166.174 129.455 167.131 129.433 167.735 129.974C168.34 130.516 168.363 131.416 167.788 131.985L167.526 132.276C167.455 132.351 167.384 132.42 167.312 132.487C167.166 132.616 167.012 132.73 166.851 132.838C166.529 133.05 166.173 133.212 165.803 133.336C165.058 133.573 164.274 133.621 163.559 133.545C162.118 133.389 160.963 132.84 159.982 132.255C159.736 132.104 159.501 131.947 159.283 131.785L158.675 131.284C158.282 130.936 157.888 130.584 157.522 130.201C156.784 129.444 156.119 128.609 155.537 127.722C154.371 125.946 153.592 123.937 153.23 121.892C153.047 120.869 152.967 119.836 152.984 118.803C152.991 118.286 153.027 117.769 153.088 117.246C153.119 116.985 153.158 116.723 153.207 116.455L153.288 116.046L153.337 115.829L153.408 115.551C153.798 114.014 155.438 113.066 157.072 113.432C158.615 113.779 159.601 115.175 159.377 116.624L159.323 116.972Z" fill="#B55B52"/>
<path d="M170.288 128.861L170.082 130.082C170.004 130.54 169.695 130.936 169.253 131.143L167.187 132.11C166.361 132.497 165.387 132.483 164.573 132.074L164.069 131.821C164.264 129.775 166.077 127.699 166.077 127.699L166.524 127.053C166.922 126.479 167.688 126.309 168.284 126.664L169.655 127.48C170.129 127.762 170.381 128.311 170.288 128.861Z" fill="#B55B52"/>
<path d="M154.723 111.52C158.869 111.815 160.851 114.634 162.81 121.068C161.338 123.244 155.425 124.871 155.425 124.871C155.425 124.871 151.555 115.352 154.723 111.52Z" fill="#636AE8"/>
<path opacity="0.7" d="M154.723 111.52C158.869 111.815 160.851 114.634 162.81 121.068C161.338 123.244 155.425 124.871 155.425 124.871C155.425 124.871 151.555 115.352 154.723 111.52Z" fill="white"/>
<path d="M186.535 234.316C182.932 235.231 182.441 235.299 180.398 235.749C178.648 236.13 178.292 236.439 176.89 236.764C175.72 237.036 175.463 235.977 175.476 234.68C175.482 234.029 175.392 232.679 175.358 231.638L180.534 229.938C181.659 231.083 183.88 232.56 185.985 232.301C187.993 232.054 187.972 233.952 186.535 234.316Z" fill="#263238"/>
<path d="M150.171 146.276C147.38 156.528 145.596 156.051 159.752 187.639C156.432 203.536 175.15 231.4 175.15 231.4C176.953 231.467 180.103 231.012 180.815 230.336C177.578 221.216 171.351 198.399 169.605 183.638C167.942 169.582 165.254 151.327 163.753 140.563C163.604 139.489 163.175 136.265 163.175 136.265L150.811 139.337C150.812 139.336 150.63 144.588 150.171 146.276Z" fill="#636AE8"/>
<g opacity="0.3">
<path d="M150.171 146.276C147.38 156.528 145.596 156.051 159.752 187.639C156.432 203.536 175.15 231.4 175.15 231.4C176.953 231.467 180.103 231.012 180.815 230.336C177.578 221.216 171.351 198.399 169.605 183.638C167.942 169.582 165.254 151.327 163.753 140.563C163.604 139.489 163.175 136.265 163.175 136.265L150.811 139.337C150.812 139.336 150.63 144.588 150.171 146.276Z" fill="black"/>
</g>
<path opacity="0.2" d="M149.186 161.418C150.438 166.007 153.083 172.608 157.949 183.592C160.213 165.538 156.064 154.076 156.064 154.076H150.355L149.186 161.418Z" fill="black"/>
<path d="M179.913 226.356C180.255 227.156 180.871 228.544 181.446 229.566C181.654 229.934 181.618 230.357 181.375 230.514C179.347 231.831 175.805 232.229 174.669 232.325C174.452 232.344 174.211 232.17 174.065 231.894L172.496 228.939C172.281 228.535 172.357 228.077 172.652 227.981L179.188 225.863C179.442 225.781 179.759 225.995 179.913 226.356Z" fill="#636AE8"/>
<path d="M116.343 226.252C114.569 223.232 113.834 220.503 113.236 218.642C112.728 217.047 112.426 217.311 111.85 215.716C111.468 214.658 112.518 213.659 113.591 213.701C114.427 213.734 115.48 213.919 116.503 213.789L119.169 217.345C117.97 218.71 117.259 223.393 118.439 225.779C119.278 227.486 117.055 227.46 116.343 226.252Z" fill="#263238"/>
<path d="M156.775 149.253C156.775 149.253 157.268 179.804 155.04 190.233C152.861 200.43 118.63 218.005 118.63 218.005C117.864 218.249 116.386 214.503 116.516 213.683C126.811 204.252 136.681 188.602 144.44 186.44C136.792 160.67 138.33 155.795 143.296 147.068C144.427 145.081 143.893 140.563 143.893 140.563L156.822 139.337L156.775 149.253Z" fill="#636AE8"/>
<g opacity="0.3">
<path d="M156.775 149.253C156.775 149.253 157.268 179.804 155.04 190.233C152.861 200.43 118.63 218.005 118.63 218.005C117.864 218.249 116.386 214.503 116.516 213.683C126.811 204.252 136.681 188.602 144.44 186.44C136.792 160.67 138.33 155.795 143.296 147.068C144.427 145.081 143.893 140.563 143.893 140.563L156.822 139.337L156.775 149.253Z" fill="black"/>
</g>
<path d="M122.771 216.052C121.975 216.58 120.559 217.527 119.528 218.247C119.187 218.486 118.782 218.544 118.604 218.386C117.271 217.205 116.052 214.738 115.669 213.917C115.593 213.755 115.711 213.512 115.96 213.312L118.638 211.162C119.004 210.868 119.498 210.788 119.663 210.995L123.124 215.331C123.265 215.508 123.111 215.825 122.771 216.052Z" fill="#636AE8"/>
<path d="M161.012 118.001C161.382 119.832 161.862 121.196 162.33 125.629C162.802 129.37 163.147 133.069 163.602 139.249L143.706 142.212C143.218 136.88 141.554 130.969 135.985 119.638C134.694 117.011 136.096 114.094 138.999 113.374C139.774 113.181 140.6 112.994 141.451 112.827C144.761 112.179 147.479 111.671 150.485 111.482C151.481 111.42 152.519 111.384 153.513 111.367C157.101 111.303 160.348 114.72 161.012 118.001Z" fill="#636AE8"/>
<path d="M140.473 103.164C141.719 105.782 143.528 110.648 141.946 112.754C141.946 112.754 144.633 111.955 151.052 114.486C152.36 111.949 150.98 111.409 150.98 111.409C147.558 111.172 147.082 108.924 147.12 106.74L140.473 103.164Z" fill="#B55B52"/>
<path d="M149.708 113.984C147.826 114.528 147.684 117.354 147.684 117.354C147.684 117.354 142.542 114.966 140.711 113.014C141.34 112.573 142.23 111.753 142.23 111.753C142.23 111.753 148.408 113.106 149.708 113.984Z" fill="white"/>
<path d="M151.49 113.42C151.49 113.42 153.224 113.594 154.196 115.705C153.965 111.651 151.871 111.268 151.871 111.268C151.871 111.268 151.199 110.952 150.091 111.29C151.745 111.821 151.49 113.42 151.49 113.42Z" fill="white"/>
<path opacity="0.2" d="M143.184 104.623L147.119 106.738C147.107 107.256 147.129 107.775 147.214 108.271C145.933 108.289 143.916 107.278 143.482 106.092C143.266 105.501 143.149 104.919 143.184 104.623Z" fill="black"/>
<path d="M137.323 98.0758C138.92 102.286 139.5 104.095 142.482 105.784C146.969 108.325 152.13 105.859 151.906 101.358C151.704 97.306 149.125 91.1017 144.131 90.3765C139.21 89.6626 135.725 93.8659 137.323 98.0758Z" fill="#B55B52"/>
<path d="M147.075 97.6693C147.075 97.6693 148.224 99.0723 149.174 99.6622C148.82 100.215 147.906 100.2 147.906 100.2L147.075 97.6693Z" fill="#A02724"/>
<path d="M146.554 102.313C146.76 102.294 146.976 102.257 147.199 102.197C147.26 102.181 147.292 102.122 147.27 102.064C147.248 102.007 147.182 101.973 147.12 101.989C145.483 102.426 144.302 101.546 144.29 101.537C144.239 101.498 144.165 101.503 144.127 101.547C144.088 101.592 144.099 101.661 144.15 101.699C144.195 101.734 145.145 102.444 146.554 102.313Z" fill="#263238"/>
<path d="M143.695 98.1832C143.829 98.5364 144.137 98.7704 144.381 98.7051C144.625 98.6397 144.714 98.3011 144.579 97.9472C144.444 97.5939 144.137 97.36 143.892 97.4246C143.649 97.4899 143.56 97.8292 143.695 98.1832Z" fill="#263238"/>
<path d="M148.406 96.7794C148.54 97.1327 148.848 97.3667 149.092 97.3013C149.337 97.2367 149.425 96.8974 149.29 96.5435C149.155 96.1902 148.848 95.9562 148.603 96.0209C148.36 96.0869 148.271 96.4261 148.406 96.7794Z" fill="#263238"/>
<path d="M148.505 96.0702L149.308 95.5863C149.308 95.5863 149.101 96.3722 148.505 96.0702Z" fill="#263238"/>
<path d="M142.344 96.2982C142.399 96.2742 142.443 96.2302 142.46 96.1729C142.736 95.275 143.561 95.0671 143.571 95.0644C143.693 95.0337 143.763 94.9184 143.723 94.8051C143.683 94.6918 143.549 94.6245 143.425 94.6545C143.382 94.6651 142.345 94.9251 142.003 96.0396C141.969 96.1509 142.044 96.2709 142.171 96.3075C142.231 96.3255 142.293 96.3202 142.344 96.2982Z" fill="#263238"/>
<path d="M149.491 94.4245C149.548 94.4211 149.603 94.3985 149.643 94.3565C149.723 94.2692 149.707 94.1325 149.607 94.0519C148.602 93.2393 147.575 93.4673 147.531 93.478C147.409 93.5066 147.342 93.6233 147.382 93.7393C147.421 93.8546 147.553 93.9252 147.675 93.8972C147.715 93.8879 148.515 93.7213 149.314 94.3678C149.366 94.4091 149.431 94.4278 149.491 94.4245Z" fill="#263238"/>
<path d="M143.792 97.4733L144.596 96.9894C144.596 96.9894 144.389 97.7759 143.792 97.4733Z" fill="#263238"/>
<path d="M142.466 90.963C142.466 90.963 143.784 91.6915 144.386 92.9447C144.828 92.7607 145.317 92.6421 145.851 92.6041C145.512 92.0182 144.797 91.1983 143.32 90.7477C143.32 90.7477 145.56 90.7724 146.85 92.6314C147.615 92.7227 148.461 92.9727 149.398 93.4459C149.398 93.4459 144.887 86.5338 138.694 89.6279C132.5 92.722 137.322 101.045 137.322 101.045H138.557C138.557 101.045 141.411 100.926 138.269 95.4929C138.269 95.4929 140.44 96.2234 140.562 97.7885C140.562 97.7885 141.362 94.8763 143.534 93.4106C143.471 92.8413 143.233 91.9742 142.466 90.963Z" fill="#263238"/>
<path d="M137.216 100.373C137.216 100.373 129.839 94.4538 138.551 88.8301C138.551 88.8301 131.897 88.7041 132.034 83.0904L139.923 87.5683L145.034 80.7675C145.034 80.7675 147.88 84.4455 141.424 88.2528C141.424 88.2528 144.657 86.9624 147.141 90.1298C147.141 90.1298 143.248 87.8462 139.586 89.9512C132.858 93.8199 137.216 100.373 137.216 100.373Z" fill="#636AE8"/>
<path d="M136.633 102.128C137.429 102.895 138.479 103.244 139.352 103.24C140.667 103.232 140.877 101.959 140.138 100.897C139.473 99.9415 137.988 98.7937 136.848 99.3123C135.726 99.8235 135.721 101.252 136.633 102.128Z" fill="#B55B52"/>
<path d="M156.057 120.995L152.136 115.531C152.136 115.531 154.826 117.94 155.375 116.735C155.836 115.722 152.611 114.922 151.573 114.694C151.375 114.65 151.173 114.708 151.033 114.846C150.128 115.746 146.909 119.17 148.927 120.435C151.259 121.898 151.03 115.407 151.03 115.407L151.906 122.457L152.86 122.629L151.609 115.659L155.558 121.812L156.057 120.995ZM154.895 116.542C154.643 116.972 152.745 115.407 152.745 115.407C152.745 115.407 155.146 116.112 154.895 116.542ZM149.155 119.747C148.172 118.693 150.55 115.964 150.55 115.964C150.55 115.964 150.138 120.801 149.155 119.747Z" fill="#263238"/>
<path d="M179.572 121.118H156.416V125.66H179.58C179.371 124.153 179.368 122.626 179.572 121.118Z" fill="#636AE8"/>
<path opacity="0.7" d="M179.572 121.118H156.416V125.66H179.58C179.371 124.153 179.368 122.626 179.572 121.118Z" fill="white"/>
<path d="M160.635 125.9H153.358L153.283 125.83C152.582 125.17 152.196 124.293 152.196 123.361C152.196 122.428 152.582 121.551 153.283 120.892L153.358 120.822H160.635L160.202 121.23C159.597 121.799 159.264 122.556 159.264 123.361C159.264 124.165 159.597 124.923 160.202 125.492L160.635 125.9Z" fill="#636AE8"/>
<g opacity="0.3">
<path d="M160.635 125.9H153.358L153.283 125.83C152.582 125.17 152.196 124.293 152.196 123.361C152.196 122.428 152.582 121.551 153.283 120.892L153.358 120.822H160.635L160.202 121.23C159.597 121.799 159.264 122.556 159.264 123.361C159.264 124.165 159.597 124.923 160.202 125.492L160.635 125.9Z" fill="black"/>
</g>
<path d="M179.81 125.9H160.154L160.133 125.88C159.454 125.241 159.029 124.389 158.995 123.486C158.958 122.507 159.347 121.581 160.079 120.893L160.154 120.823H179.81C179.951 120.823 180.065 120.93 180.065 121.062C180.065 121.194 179.951 121.301 179.81 121.301H160.366C159.807 121.862 159.5 122.59 159.5 123.362C159.5 124.135 159.807 124.863 160.366 125.422H179.81C179.951 125.422 180.065 125.53 180.065 125.662C180.065 125.792 179.951 125.9 179.81 125.9Z" fill="#636AE8"/>
<path d="M178 111.949H157.159V116.037H178.007C177.819 114.68 177.816 113.305 178 111.949Z" fill="#636AE8"/>
<path opacity="0.8" d="M178 111.949H157.159V116.037H178.007C177.819 114.68 177.816 113.305 178 111.949Z" fill="white"/>
<path d="M160.957 116.252H154.406L154.34 116.189C153.709 115.595 153.361 114.806 153.361 113.967C153.361 113.128 153.709 112.339 154.34 111.745L154.406 111.682H160.957L160.566 112.049C160.022 112.561 159.721 113.243 159.721 113.967C159.721 114.692 160.021 115.373 160.566 115.885L160.957 116.252Z" fill="#263238"/>
<path d="M178.214 116.252H160.523L160.504 116.235C159.893 115.659 159.509 114.893 159.48 114.08C159.447 113.199 159.797 112.365 160.456 111.745L160.523 111.682H178.214C178.34 111.682 178.442 111.779 178.442 111.897C178.442 112.016 178.34 112.113 178.214 112.113H160.714C160.21 112.617 159.935 113.272 159.935 113.967C159.935 114.662 160.211 115.317 160.714 115.821H178.214C178.34 115.821 178.442 115.918 178.442 116.037C178.442 116.155 178.34 116.252 178.214 116.252Z" fill="#636AE8"/>
<g opacity="0.4">
<path d="M178.214 116.252H160.523L160.504 116.235C159.893 115.659 159.509 114.893 159.48 114.08C159.447 113.199 159.797 112.365 160.456 111.745L160.523 111.682H178.214C178.34 111.682 178.442 111.779 178.442 111.897C178.442 112.016 178.34 112.113 178.214 112.113H160.714C160.21 112.617 159.935 113.272 159.935 113.967C159.935 114.662 160.211 115.317 160.714 115.821H178.214C178.34 115.821 178.442 115.918 178.442 116.037C178.442 116.155 178.34 116.252 178.214 116.252Z" fill="white"/>
</g>
<path d="M178 107.379H157.159V111.467H178.007C177.819 110.11 177.816 108.735 178 107.379Z" fill="#636AE8"/>
<path opacity="0.8" d="M178 107.379H157.159V111.467H178.007C177.819 110.11 177.816 108.735 178 107.379Z" fill="white"/>
<path d="M160.957 111.682H154.406L154.34 111.619C153.709 111.025 153.361 110.236 153.361 109.397C153.361 108.558 153.709 107.769 154.34 107.175L154.406 107.112H160.957L160.566 107.479C160.022 107.991 159.721 108.673 159.721 109.397C159.721 110.122 160.021 110.802 160.566 111.315L160.957 111.682Z" fill="#636AE8"/>
<g opacity="0.4">
<path d="M160.957 111.682H154.406L154.34 111.619C153.709 111.025 153.361 110.236 153.361 109.397C153.361 108.558 153.709 107.769 154.34 107.175L154.406 107.112H160.957L160.566 107.479C160.022 107.991 159.721 108.673 159.721 109.397C159.721 110.122 160.021 110.802 160.566 111.315L160.957 111.682Z" fill="white"/>
</g>
<path d="M178.214 111.682H160.523L160.504 111.664C159.893 111.089 159.509 110.322 159.48 109.509C159.447 108.628 159.797 107.795 160.456 107.175L160.523 107.112H178.214C178.34 107.112 178.442 107.208 178.442 107.327C178.442 107.446 178.34 107.542 178.214 107.542H160.714C160.21 108.047 159.935 108.702 159.935 109.397C159.935 110.091 160.211 110.747 160.714 111.251H178.214C178.34 111.251 178.442 111.348 178.442 111.466C178.442 111.585 178.34 111.682 178.214 111.682Z" fill="#636AE8"/>
<g opacity="0.5">
<path d="M178.214 111.682H160.523L160.504 111.664C159.893 111.089 159.509 110.322 159.48 109.509C159.447 108.628 159.797 107.795 160.456 107.175L160.523 107.112H178.214C178.34 107.112 178.442 107.208 178.442 107.327C178.442 107.446 178.34 107.542 178.214 107.542H160.714C160.21 108.047 159.935 108.702 159.935 109.397C159.935 110.091 160.211 110.747 160.714 111.251H178.214C178.34 111.251 178.442 111.348 178.442 111.466C178.442 111.585 178.34 111.682 178.214 111.682Z" fill="white"/>
</g>
<path d="M178 126.194H157.159V130.282H178.007C177.819 128.925 177.816 127.55 178 126.194Z" fill="#636AE8"/>
<path opacity="0.8" d="M178 126.194H157.159V130.282H178.007C177.819 128.925 177.816 127.55 178 126.194Z" fill="white"/>
<path d="M160.957 130.497H154.406L154.34 130.434C153.709 129.84 153.361 129.051 153.361 128.212C153.361 127.373 153.709 126.584 154.34 125.99L154.406 125.927H160.957L160.566 126.294C160.022 126.806 159.721 127.487 159.721 128.212C159.721 128.936 160.021 129.617 160.566 130.13L160.957 130.497Z" fill="#263238"/>
<path d="M178.214 130.497H160.523L160.504 130.479C159.893 129.904 159.509 129.137 159.48 128.324C159.447 127.443 159.797 126.61 160.456 125.99L160.523 125.926H178.214C178.34 125.926 178.442 126.023 178.442 126.142C178.442 126.26 178.34 126.357 178.214 126.357H160.714C160.21 126.862 159.935 127.517 159.935 128.211C159.935 128.906 160.211 129.562 160.714 130.066H178.214C178.34 130.066 178.442 130.162 178.442 130.281C178.442 130.4 178.34 130.497 178.214 130.497Z" fill="#636AE8"/>
<path d="M178 116.519H157.159V120.607H178.007C177.819 119.25 177.816 117.875 178 116.519Z" fill="#636AE8"/>
<path opacity="0.7" d="M178 116.519H157.159V120.607H178.007C177.819 119.25 177.816 117.875 178 116.519Z" fill="white"/>
<path d="M160.957 120.822H154.406L154.34 120.759C153.709 120.165 153.361 119.376 153.361 118.537C153.361 117.698 153.709 116.909 154.34 116.315L154.406 116.252H160.957L160.566 116.619C160.022 117.132 159.721 117.812 159.721 118.537C159.721 119.262 160.021 119.943 160.566 120.455L160.957 120.822Z" fill="#636AE8"/>
<g opacity="0.6">
<path d="M160.957 120.822H154.406L154.34 120.759C153.709 120.165 153.361 119.376 153.361 118.537C153.361 117.698 153.709 116.909 154.34 116.315L154.406 116.252H160.957L160.566 116.619C160.022 117.132 159.721 117.812 159.721 118.537C159.721 119.262 160.021 119.943 160.566 120.455L160.957 120.822Z" fill="white"/>
</g>
<path d="M178.214 120.822H160.523L160.504 120.805C159.893 120.229 159.509 119.463 159.48 118.65C159.447 117.768 159.797 116.935 160.456 116.315L160.523 116.252H178.214C178.34 116.252 178.442 116.349 178.442 116.467C178.442 116.586 178.34 116.683 178.214 116.683H160.714C160.21 117.187 159.935 117.842 159.935 118.537C159.935 119.232 160.211 119.887 160.714 120.392H178.214C178.34 120.392 178.442 120.489 178.442 120.607C178.442 120.725 178.34 120.822 178.214 120.822Z" fill="#636AE8"/>
<g opacity="0.3">
<path d="M178.214 120.822H160.523L160.504 120.805C159.893 120.229 159.509 119.463 159.48 118.65C159.447 117.768 159.797 116.935 160.456 116.315L160.523 116.252H178.214C178.34 116.252 178.442 116.349 178.442 116.467C178.442 116.586 178.34 116.683 178.214 116.683H160.714C160.21 117.187 159.935 117.842 159.935 118.537C159.935 119.232 160.211 119.887 160.714 120.392H178.214C178.34 120.392 178.442 120.489 178.442 120.607C178.442 120.725 178.34 120.822 178.214 120.822Z" fill="white"/>
</g>
<path d="M163.665 126.38L162.198 126.073C161.646 125.958 161.069 126.1 160.649 126.456L158.686 128.117C157.901 128.782 157.506 129.762 157.627 130.75L157.702 131.361C160.099 132.026 163.209 131.084 163.209 131.084L164.127 130.908C164.945 130.751 165.46 130.056 165.309 129.311L164.962 127.594C164.843 127.001 164.327 126.518 163.665 126.38Z" fill="#B55B52"/>
<path d="M161.12 128.735C160.672 128.066 159.732 127.865 159.022 128.286L158.988 128.305C157.825 128.995 156.63 129.718 155.432 130.378C154.239 131.051 153.042 131.704 151.843 132.292C150.654 132.886 149.436 133.416 148.314 133.778C147.843 133.93 147.383 134.035 147.029 134.073C146.515 133.301 146.024 132.504 145.57 131.667C145.025 130.618 144.504 129.546 144.033 128.439C143.568 127.331 143.124 126.208 142.718 125.069C142.513 124.5 142.314 123.929 142.132 123.355C141.952 122.794 141.762 122.184 141.614 121.686L141.587 121.594C141.149 120.125 139.557 119.227 137.961 119.575C136.319 119.933 135.297 121.475 135.677 123.019C135.858 123.753 136.03 124.367 136.244 125.02C136.448 125.664 136.666 126.3 136.894 126.934C137.361 128.199 137.883 129.448 138.475 130.678C139.058 131.909 139.729 133.119 140.466 134.306C141.203 135.494 142.057 136.644 142.997 137.756L143.077 137.85C143.171 137.96 143.277 138.063 143.397 138.157C144.145 138.746 145.053 139.033 145.762 139.109C146.489 139.196 147.089 139.139 147.613 139.051C148.659 138.865 149.475 138.557 150.24 138.231C151.758 137.572 153.031 136.777 154.266 135.961C155.487 135.132 156.64 134.261 157.746 133.35C158.847 132.423 159.908 131.504 160.937 130.479C161.403 130.016 161.497 129.298 161.12 128.735Z" fill="#B55B52"/>
<path d="M137.459 114.042C134.064 116.3 133.903 119.676 135.736 126.142C138.188 127.298 144.149 125.835 144.149 125.835C144.149 125.835 142.27 115.799 137.459 114.042Z" fill="#636AE8"/>
<path opacity="0.7" d="M137.459 114.042C134.064 116.3 133.903 119.676 135.736 126.142C138.188 127.298 144.149 125.835 144.149 125.835C144.149 125.835 142.27 115.799 137.459 114.042Z" fill="white"/>
<path d="M123.873 108.32C122.636 111.178 121.358 114.042 120.071 116.885C118.8 119.724 117.476 122.583 116.317 125.366L116.24 125.55C116.225 125.573 116.215 125.608 116.202 125.643C116.176 125.713 116.155 125.807 116.134 125.908C116.096 126.116 116.08 126.376 116.077 126.658C116.074 127.225 116.156 127.881 116.284 128.548C116.551 129.89 116.964 131.309 117.466 132.714C117.956 134.126 118.525 135.541 119.122 136.953C119.706 138.366 120.363 139.788 120.998 141.164L118.349 142.635C116.352 140.012 114.611 137.308 113.119 134.358C112.393 132.877 111.703 131.353 111.207 129.668C110.961 128.821 110.75 127.94 110.649 126.953C110.599 126.46 110.584 125.939 110.631 125.373C110.657 125.088 110.694 124.796 110.762 124.487C110.796 124.333 110.832 124.179 110.884 124.017L111.001 123.648C111.51 122.093 112.05 120.604 112.621 119.123C113.182 117.64 113.765 116.171 114.365 114.712C115.562 111.788 116.818 108.906 118.156 106.035L123.873 108.32Z" fill="#FFB573"/>
<path d="M120.652 140.446L123.134 142.392C124.436 143.413 124.544 145.26 123.37 146.409C121.806 147.94 119.069 147.299 118.449 145.258C118.137 144.236 117.898 143.147 117.855 142.138L120.652 140.446Z" fill="#FFB573"/>
<path d="M121.135 140.803C119.893 141.205 118.546 141.996 117.914 142.397C117.79 142.476 117.621 142.459 117.514 142.353C116.809 141.655 115.992 140.484 115.881 139.97C115.86 139.871 115.903 139.775 115.986 139.713C116.985 138.967 119.567 137.739 120.109 138.131C120.548 138.448 121.1 139.847 121.322 140.445C121.378 140.596 121.293 140.752 121.135 140.803Z" fill="#263238"/>
<path d="M85.8607 114.88C80.6392 117.436 78.5773 122.5 78.4164 127.783C78.3867 128.771 80.0199 128.969 80.0504 127.972C80.1921 123.299 81.8225 118.598 86.5111 116.303C87.4457 115.846 86.8038 114.418 85.8607 114.88Z" fill="#636AE8"/>
<g opacity="0.2">
<path d="M85.8607 114.88C80.6392 117.436 78.5773 122.5 78.4164 127.783C78.3867 128.771 80.0199 128.969 80.0504 127.972C80.1921 123.299 81.8225 118.598 86.5111 116.303C87.4457 115.846 86.8038 114.418 85.8607 114.88Z" fill="black"/>
</g>
<path d="M99.144 98.0925L111.618 99.5369C116.79 100.135 120.666 104.325 120.528 109.225C120.527 109.247 120.527 109.27 120.526 109.292C120.291 115.944 118.457 129.188 117.069 135.715C117.013 135.976 116.936 136.295 116.841 136.654C115.625 141.309 110.886 144.365 105.829 143.779L88.3801 141.759C84.1252 141.266 80.5986 138.309 79.7604 134.354C79.7256 134.188 79.6994 134.037 79.6852 133.902C79.3125 130.486 79.9588 123.394 81.4694 120.267C82.3105 118.526 86.056 116.309 86.8971 114.568C88.1973 111.875 86.8843 105.401 88.4333 102.828C88.947 101.974 90.5186 100.789 92.0456 99.7702C94.104 98.3964 96.6371 97.8018 99.144 98.0925Z" fill="#636AE8"/>
<path opacity="0.5" d="M99.144 98.0925L111.618 99.5369C116.79 100.135 120.666 104.325 120.528 109.225C120.527 109.247 120.527 109.27 120.526 109.292C120.291 115.944 118.457 129.188 117.069 135.715C117.013 135.976 116.936 136.295 116.841 136.654C115.625 141.309 110.886 144.365 105.829 143.779L88.3801 141.759C84.1252 141.266 80.5986 138.309 79.7604 134.354C79.7256 134.188 79.6994 134.037 79.6852 133.902C79.3125 130.486 79.9588 123.394 81.4694 120.267C82.3105 118.526 86.056 116.309 86.8971 114.568C88.1973 111.875 86.8843 105.401 88.4333 102.828C88.947 101.974 90.5186 100.789 92.0456 99.7702C94.104 98.3964 96.6371 97.8018 99.144 98.0925Z" fill="black"/>
<path d="M93.922 99.5329C93.8299 99.3663 93.645 99.191 93.4097 99.0137C92.9371 99.2336 92.4773 99.4809 92.0429 99.7709C90.5159 100.79 88.9443 101.975 88.4306 102.829C86.8817 105.403 88.1947 111.876 86.8944 114.568C86.0534 116.31 82.3086 118.526 81.4668 120.268C79.9568 123.395 79.3106 130.486 79.6833 133.903C79.6982 134.037 79.7237 134.188 79.7584 134.354C80.4875 137.795 83.2517 140.479 86.7598 141.444C87.1722 141.308 87.518 141.152 87.7582 140.972C89.4084 139.737 95.4944 102.369 93.922 99.5329Z" fill="#636AE8"/>
<path opacity="0.2" d="M93.922 99.5329C93.8299 99.3663 93.645 99.191 93.4097 99.0137C92.9371 99.2336 92.4773 99.4809 92.0429 99.7709C90.5159 100.79 88.9443 101.975 88.4306 102.829C86.8817 105.403 88.1947 111.876 86.8944 114.568C86.0534 116.31 82.3086 118.526 81.4668 120.268C79.9568 123.395 79.3106 130.486 79.6833 133.903C79.6982 134.037 79.7237 134.188 79.7584 134.354C80.4875 137.795 83.2517 140.479 86.7598 141.444C87.1722 141.308 87.518 141.152 87.7582 140.972C89.4084 139.737 95.4944 102.369 93.922 99.5329Z" fill="black"/>
<path opacity="0.2" d="M80.0947 125.357C79.6079 128.423 79.4584 131.835 79.6837 133.903C79.6986 134.037 79.7241 134.188 79.7588 134.354C80.4879 137.795 83.2521 140.479 86.7602 141.444C87.1726 141.308 87.5184 141.152 87.7586 140.972C88.4147 140.481 89.7723 134.273 91.0711 126.796C86.2635 127.961 81.706 126.128 80.0947 125.357Z" fill="black"/>
<path d="M124.414 110.271C126.384 104.716 123.329 100.447 118.731 102.48C114.595 104.307 109.471 124.238 110.177 127.503C111.252 132.472 115.507 139.144 115.507 139.144L119.85 137.182C119.85 137.182 116.237 129.46 116.602 126.492C116.968 123.523 122.542 115.545 124.414 110.271Z" fill="#636AE8"/>
<path opacity="0.4" d="M124.414 110.271C126.384 104.716 123.329 100.447 118.731 102.48C114.595 104.307 109.471 124.238 110.177 127.503C111.252 132.472 115.507 139.144 115.507 139.144L119.85 137.182C119.85 137.182 116.237 129.46 116.602 126.492C116.968 123.523 122.542 115.545 124.414 110.271Z" fill="white"/>
<path d="M121.12 101.976C121.12 101.976 124.979 116.093 116.421 140.584C108.775 139.711 94.7656 138.111 91.0449 137.686C91.3432 134.002 96.0985 116.405 94.5701 98.7103C94.5701 98.7103 99.0256 98.3857 103.195 98.6717C106.456 98.8949 111.163 99.3342 113.982 99.9041C117.699 100.656 121.12 101.976 121.12 101.976Z" fill="#636AE8"/>
<path d="M105.738 87.3676C105.997 90.7104 105.904 96.77 103.194 98.6717C105.091 99.6995 106.863 100.922 108.521 102.322C110.464 103.961 113.571 102.951 113.93 100.519C113.96 100.312 113.978 100.107 113.982 99.9041C110.223 98.593 110.672 95.9028 111.674 93.4433L105.738 87.3676Z" fill="#FFB573"/>
<path opacity="0.2" d="M108.158 89.8459L111.672 93.4393C111.432 94.0212 111.228 94.6157 111.107 95.2023C109.654 94.8324 107.82 93.0733 107.851 91.5989C107.867 90.8644 107.988 90.1698 108.158 89.8459Z" fill="black"/>
<path d="M105.96 82.4065C105.678 86.8604 105.272 89.454 107.354 91.9942C110.483 95.8155 116.546 94.4531 118.237 90.1685C119.759 86.3118 119.965 79.6756 115.591 77.3907C111.283 75.1398 106.242 77.9526 105.96 82.4065Z" fill="#FFB573"/>
<path d="M112.928 84.4568C112.881 84.8167 113.046 85.132 113.297 85.16C113.547 85.1887 113.787 84.9201 113.834 84.5601C113.881 84.2002 113.715 83.8849 113.465 83.8569C113.215 83.8282 112.974 84.0969 112.928 84.4568Z" fill="#263238"/>
<path d="M117.255 84.9507C117.208 85.3106 117.373 85.6253 117.623 85.6539C117.874 85.6826 118.114 85.414 118.161 85.054C118.207 84.6941 118.042 84.3788 117.791 84.3508C117.542 84.3221 117.302 84.5908 117.255 84.9507Z" fill="#263238"/>
<path d="M115.856 84.9727C115.856 84.9727 116.459 87.149 117.287 88.2601C116.533 88.7774 115.417 88.3741 115.417 88.3741L115.856 84.9727Z" fill="#ED893E"/>
<path d="M114.187 89.242C114.243 89.242 114.292 89.202 114.299 89.148C114.307 89.0894 114.262 89.0367 114.201 89.0294C112.521 88.8374 111.88 87.6443 111.873 87.6323C111.846 87.5796 111.778 87.5576 111.722 87.5836C111.666 87.6096 111.642 87.6736 111.67 87.7262C111.697 87.7796 112.373 89.0354 114.173 89.2407C114.178 89.2413 114.183 89.242 114.187 89.242Z" fill="#263238"/>
<path d="M111.823 82.9971C111.882 82.9971 111.941 82.9751 111.986 82.9324C112.68 82.2565 113.483 82.3852 113.517 82.3912C113.639 82.4125 113.758 82.3365 113.781 82.2212C113.804 82.1059 113.724 81.9952 113.603 81.9732C113.559 81.9652 112.53 81.7899 111.66 82.6364C111.573 82.7211 111.576 82.8557 111.666 82.9377C111.709 82.9771 111.766 82.9971 111.823 82.9971Z" fill="#263238"/>
<path d="M119.356 83.7709C119.38 83.7709 119.405 83.7669 119.43 83.7596C119.548 83.7209 119.611 83.6003 119.57 83.489C119.163 82.3752 118.152 82.1245 118.109 82.1139C117.987 82.0859 117.864 82.1545 117.834 82.2685C117.804 82.3825 117.877 82.4978 117.998 82.5265C118.034 82.5358 118.818 82.7398 119.142 83.627C119.174 83.7156 119.262 83.7709 119.356 83.7709Z" fill="#263238"/>
<path d="M115.876 140.522C115.876 140.522 125.456 168.801 126.515 182.484C127.617 196.716 131.3 232.696 131.3 232.696L127.592 233.749C127.592 233.749 114.982 200.616 114.489 186.614C114.167 177.453 96.7178 138.334 96.7178 138.334L115.876 140.522Z" fill="#FFB573"/>
<path d="M131.645 229.749L126.76 231.845C126.583 231.922 126.485 232.104 126.526 232.284L127.43 236.288C127.524 236.703 128.012 236.925 128.419 236.742C130.111 235.983 130.894 235.533 133.043 234.611C134.364 234.044 139.069 232.181 140.894 231.398C142.679 230.632 142.134 228.815 141.312 228.981C137.627 229.73 133.985 230.144 132.472 229.697C132.2 229.617 131.905 229.638 131.645 229.749Z" fill="#263238"/>
<path d="M134.196 228.761C134.183 228.729 134.167 228.698 134.149 228.666C134.055 228.501 133.919 228.462 133.821 228.457C133.229 228.431 132.272 229.75 132.087 230.014C132.057 230.057 132.057 230.112 132.087 230.154C132.117 230.197 132.172 230.218 132.225 230.208C132.84 230.096 133.912 229.827 134.185 229.288C134.27 229.121 134.273 228.944 134.196 228.761ZM132.504 229.892C132.936 229.328 133.531 228.697 133.81 228.709C133.84 228.711 133.876 228.721 133.913 228.785C133.993 228.926 134.004 229.057 133.942 229.178C133.801 229.457 133.274 229.716 132.504 229.892Z" fill="#636AE8"/>
<path d="M132.82 228.122C132.805 228.087 132.788 228.056 132.767 228.028C132.707 227.948 132.565 227.826 132.292 227.907C132.118 227.958 131.986 228.067 131.901 228.23C131.581 228.843 132.052 230.075 132.072 230.128C132.089 230.174 132.129 230.202 132.179 230.21C132.228 230.216 132.277 230.198 132.306 230.161C132.625 229.761 133.028 228.615 132.82 228.122ZM132.236 229.781C132.107 229.358 131.963 228.684 132.143 228.341C132.195 228.242 132.27 228.178 132.373 228.148C132.5 228.11 132.532 228.153 132.547 228.174C132.719 228.398 132.51 229.271 132.236 229.781Z" fill="#636AE8"/>
<path d="M96.4268 138.426L116.421 140.584C116.421 140.584 125.475 169.562 127.121 178.959C128.587 187.329 130.758 217.735 131.214 224.279C131.266 225.018 130.791 225.698 130.05 225.95L126.122 227.286C125.17 227.609 124.126 227.12 123.829 226.21C121.756 219.84 114.478 197.061 114.009 189.775C113.464 181.272 96.4268 138.426 96.4268 138.426Z" fill="#263238"/>
<path opacity="0.6" d="M101.551 150.292C101.736 151.239 101.923 152.187 102.109 153.127C103.027 155.555 103.997 158.148 104.971 160.797C107.02 155.771 106.8 148.954 106.365 145.957C106.009 143.487 103.278 147.466 101.551 150.292Z" fill="black"/>
<path d="M131.79 234.13L132.064 232.279L133.158 231.893L132.877 233.749L131.79 234.13Z" fill="white"/>
<path d="M133.614 233.485L133.98 231.161L135.17 230.688L134.758 233.011L133.614 233.485Z" fill="white"/>
<path d="M109.434 139.786C109.434 139.786 95.1054 176.033 87.9779 187.808C80.3898 200.344 48.7549 177.218 48.7549 177.218L51.5977 174.42C51.5977 174.42 70.1311 182.013 77.4648 181.447C84.6773 168.761 91.0431 137.684 91.0431 137.684L109.434 139.786Z" fill="#FFB573"/>
<path d="M109.9 139.839L91.0444 137.686C91.0444 137.686 82.6748 168.353 78.9002 176.749C76.8744 181.255 69.4288 180.741 56.7383 175.973L53.1543 180.936C53.1543 180.936 73.6596 194.55 83.4011 192.228C93.1411 189.904 109.9 139.839 109.9 139.839Z" fill="#263238"/>
<path d="M48.4299 178.211L52.536 174.957C52.6855 174.839 52.7274 174.639 52.6367 174.476L50.6215 170.847C50.4125 170.471 49.8789 170.381 49.5388 170.66C48.1259 171.819 47.5002 172.45 45.6948 173.881C44.5837 174.762 40.5846 177.746 39.0505 178.962C37.5505 180.151 38.5942 181.763 39.3382 181.395C42.6734 179.742 46.0632 178.422 47.6476 178.47C47.9325 178.479 48.2109 178.385 48.4299 178.211Z" fill="#263238"/>
<path d="M46.2539 179.808C46.2758 179.835 46.2999 179.862 46.3268 179.888C46.4636 180.022 46.606 180.026 46.7017 180.006C47.2799 179.881 47.8248 178.37 47.9275 178.068C47.9438 178.019 47.9282 177.967 47.8871 177.933C47.846 177.9 47.7879 177.894 47.7397 177.917C47.1792 178.18 46.2234 178.71 46.1143 179.298C46.0803 179.48 46.127 179.651 46.2539 179.808ZM47.5605 178.291C47.3054 178.943 46.9135 179.7 46.6407 179.759C46.611 179.766 46.5734 179.765 46.5203 179.712C46.4019 179.596 46.3545 179.473 46.3786 179.341C46.4352 179.038 46.8703 178.655 47.5605 178.291Z" fill="#636AE8"/>
<path d="M47.763 180.076C47.7871 180.106 47.8133 180.132 47.8409 180.154C47.9217 180.216 48.0932 180.297 48.3327 180.15C48.4857 180.056 48.5814 179.918 48.6168 179.74C48.7507 179.069 47.9444 178.001 47.9096 177.955C47.8806 177.915 47.8324 177.898 47.7835 177.903C47.7346 177.909 47.6928 177.94 47.6751 177.983C47.4824 178.448 47.4214 179.654 47.763 180.076ZM47.8508 178.331C48.096 178.705 48.4276 179.318 48.3525 179.694C48.3305 179.803 48.276 179.882 48.186 179.938C48.0747 180.006 48.0315 179.973 48.011 179.958C47.7814 179.784 47.7332 178.891 47.8508 178.331Z" fill="#636AE8"/>
<path d="M87.8771 161.297C90.7312 151.746 93.5811 141.782 94.6305 138.095L93.5301 137.969C92.4502 141.763 89.6372 151.592 86.8206 161.017L86.511 162.054C83.6866 171.518 80.7666 181.303 77.1911 182.415C70.3718 184.534 60.0033 180.14 55.3622 177.877L54.7344 178.747C58.5458 180.632 66.3231 184.015 73.0502 184.015C74.624 184.015 76.1417 183.83 77.5355 183.396C81.6651 182.112 84.4008 172.946 87.5674 162.334L87.8771 161.297Z" fill="#636AE8"/>
<path d="M48.1026 173.283L48.4215 175.127L47.4989 175.8L47.1836 173.949L48.1026 173.283Z" fill="white"/>
<path d="M46.562 174.407L46.9425 176.728L45.9554 177.511L45.6182 175.177L46.562 174.407Z" fill="white"/>
<path d="M96.3184 98.3364C96.3184 98.3364 115.202 103.659 116.624 106.08L118.117 104.79C118.117 104.79 113.262 101.886 101.532 98.3371C101.532 98.3371 96.3184 97.2392 96.3184 98.3364Z" fill="#263238"/>
<path d="M115.416 112.337C115.416 112.337 106.748 123.948 89.9552 132.51C88.7939 133.102 87.9238 134.1 87.5305 135.286L87.4462 135.541C87.2513 136.129 87.8827 136.661 88.4793 136.408C92.4168 134.741 103.626 129.043 117.179 113.758L115.416 112.337Z" fill="#263238"/>
<path d="M97.1843 103.183C99.1378 105.251 101.167 107.361 103.199 109.381C104.213 110.399 105.248 111.389 106.284 112.349C107.316 113.306 108.385 114.222 109.42 115.003C109.679 115.198 109.931 115.373 110.179 115.54L110.534 115.762L110.692 115.849L110.771 115.894C110.796 115.908 110.835 115.93 110.816 115.921C110.785 115.917 110.645 115.909 110.564 115.93C110.478 115.953 110.492 115.989 110.594 115.96C110.799 115.915 111.235 115.623 111.632 115.243C112.043 114.862 112.466 114.39 112.865 113.879C113.671 112.855 114.421 111.693 115.142 110.501C115.496 109.901 115.857 109.295 116.201 108.68L117.201 106.833L120.127 107.725C119.453 110.676 118.541 113.473 116.959 116.291C116.55 116.992 116.1 117.698 115.517 118.4C114.918 119.092 114.242 119.819 113.097 120.445C112.528 120.748 111.808 121.023 110.96 121.092C110.12 121.177 109.212 121.012 108.49 120.715C107.938 120.483 107.552 120.279 107.137 120.052C106.747 119.829 106.37 119.602 106.017 119.372C104.603 118.454 103.385 117.475 102.188 116.487C100.996 115.498 99.874 114.47 98.763 113.44C96.5572 111.355 94.4839 109.235 92.4609 106.974L97.1843 103.183Z" fill="#FFB573"/>
<path d="M117.136 108.547L115.489 105.764C114.675 104.388 115.328 102.652 116.881 102.064C118.981 101.269 121.236 102.85 121.016 104.969C120.948 105.632 120.842 106.306 120.684 106.948C120.539 107.538 120.025 107.987 119.394 108.109L117.136 108.547Z" fill="#FFB573"/>
<path d="M90.6472 102.596C91.744 98.1024 97.2553 96.3421 100.222 101.451C104.072 108.078 110.657 114.962 110.657 114.962L115.877 108.547L120.53 110.316C120.53 110.316 116.993 123.652 109.434 121.587C101.877 119.522 89.529 107.178 90.6472 102.596Z" fill="#636AE8"/>
<path opacity="0.4" d="M90.6472 102.596C91.744 98.1024 97.2553 96.3421 100.222 101.451C104.072 108.078 110.657 114.962 110.657 114.962L115.877 108.547L120.53 110.316C120.53 110.316 116.993 123.652 109.434 121.587C101.877 119.522 89.529 107.178 90.6472 102.596Z" fill="white"/>
<path d="M119.41 81.1473C120.862 81.1473 122.039 80.0399 122.039 78.6738C122.039 77.3077 120.862 76.2002 119.41 76.2002C117.958 76.2002 116.78 77.3077 116.78 78.6738C116.78 80.0399 117.958 81.1473 119.41 81.1473Z" fill="#263238"/>
<path d="M115.61 78.0925C117.062 78.0925 118.239 76.9851 118.239 75.619C118.239 74.2528 117.062 73.1454 115.61 73.1454C114.158 73.1454 112.98 74.2528 112.98 75.619C112.98 76.9851 114.158 78.0925 115.61 78.0925Z" fill="#263238"/>
<path d="M110.752 77.1894C112.204 77.1894 113.381 76.0819 113.381 74.7158C113.381 73.3497 112.204 72.2422 110.752 72.2422C109.299 72.2422 108.122 73.3497 108.122 74.7158C108.122 76.0819 109.299 77.1894 110.752 77.1894Z" fill="#263238"/>
<path d="M106.271 79.145C107.723 79.145 108.901 78.0376 108.901 76.6714C108.901 75.3053 107.723 74.1979 106.271 74.1979C104.819 74.1979 103.642 75.3053 103.642 76.6714C103.642 78.0376 104.819 79.145 106.271 79.145Z" fill="#263238"/>
<path d="M106.98 80.7588C106.98 82.1252 105.803 83.2324 104.35 83.2324C102.898 83.2324 101.721 82.1252 101.721 80.7588C101.721 79.3924 102.898 78.2852 104.35 78.2852C105.803 78.2846 106.98 79.3924 106.98 80.7588Z" fill="#263238"/>
<path d="M106.197 86.4011C105.246 86.7997 104.074 86.2751 103.578 85.23C103.083 84.1848 103.452 83.0144 104.402 82.6158C105.353 82.2172 106.525 82.7411 107.021 83.7869C107.516 84.8321 107.147 86.0025 106.197 86.4011Z" fill="#263238"/>
<path d="M104.349 83.7709C104.349 83.7709 103.622 77.134 108.9 75.339C114.177 73.544 118.851 78.0925 118.851 78.0925L119.223 79.8136L116.352 80.2435L111.596 80.7581L108.589 81.6426L105.547 84.7821L104.349 83.7709Z" fill="#263238"/>
<path d="M105.545 84.7827C105.545 84.7827 109.395 81.2533 116.35 81.1367C117.371 81.1194 118.082 81.3953 118.524 81.6573C118.695 81.7586 118.903 81.6 118.836 81.4207L117.997 79.1777C117.885 78.8764 117.609 78.6591 117.274 78.6091C115.806 78.3898 111.536 78.1799 106.093 81.7099C105.862 81.8606 105.716 82.1072 105.699 82.3718L105.545 84.7827Z" fill="#636AE8"/>
<path d="M105.665 82.9051L105.624 83.543C108.133 82.0792 114.208 78.9618 118.418 80.3022L118.193 79.701C113.939 78.6205 108.325 81.378 105.665 82.9051Z" fill="white"/>
<path d="M103.208 87.0377C103.744 88.1302 104.766 88.888 105.758 89.2153C107.249 89.7072 108.097 88.4755 107.768 87.1004C107.472 85.8632 106.338 84.1162 104.8 84.2175C103.284 84.3182 102.596 85.7879 103.208 87.0377Z" fill="#FFB573"/>
<path d="M113.192 79.9216C112.779 80.9641 111.805 81.5853 111.017 81.3087C110.229 81.0327 109.926 79.9636 110.339 78.9211C110.752 77.8786 111.726 77.2574 112.514 77.534C113.301 77.8099 113.605 78.8791 113.192 79.9216Z" fill="#263238"/>
<path d="M111.405 79.0044C110.991 80.0469 110.018 80.6681 109.23 80.3915C108.442 80.1149 108.139 79.0464 108.552 78.0039C108.965 76.9614 109.939 76.3402 110.726 76.6168C111.514 76.8928 111.818 77.9619 111.405 79.0044Z" fill="#263238"/>
</svg>
