<svg width="15" height="15" viewBox="0 0 15 15" fill="none" xmlns="http://www.w3.org/2000/svg">
<path d="M1.83334 13.1667H11.75V14.5833H1.83334C1.05417 14.5833 0.416672 13.9458 0.416672 13.1667V3.25001H1.83334V13.1667ZM14.5833 1.83334V10.3333C14.5833 11.1125 13.9458 11.75 13.1667 11.75H4.66667C3.88751 11.75 3.25001 11.1125 3.25001 10.3333V1.83334C3.25001 1.05417 3.88751 0.416672 4.66667 0.416672H13.1667C13.9458 0.416672 14.5833 1.05417 14.5833 1.83334ZM13.1667 1.83334H4.66667V10.3333H13.1667V1.83334ZM11.75 3.25001H8.20834V8.20834L9.97917 7.14584L11.75 8.20834V3.25001Z" fill="#808080"/>
</svg>
